G75*
%MOIN*%
%OFA0B0*%
%FSLAX25Y25*%
%IPPOS*%
%LPD*%
%AMOC8*
5,1,8,0,0,1.08239X$1,22.5*
%
%ADD10C,0.00500*%
%ADD11C,0.00300*%
%ADD12C,0.00600*%
%ADD13C,0.00800*%
%ADD14C,0.00100*%
D10*
X0078369Y0044117D02*
X0078369Y0046819D01*
X0079720Y0046819D01*
X0080170Y0046369D01*
X0080170Y0045468D01*
X0079720Y0045018D01*
X0078369Y0045018D01*
X0079270Y0045018D02*
X0080170Y0044117D01*
X0081315Y0044117D02*
X0083117Y0045918D01*
X0083117Y0046369D01*
X0082667Y0046819D01*
X0081766Y0046819D01*
X0081315Y0046369D01*
X0081315Y0044117D02*
X0083117Y0044117D01*
X0082224Y0063417D02*
X0080422Y0063417D01*
X0081323Y0063417D02*
X0081323Y0066119D01*
X0080422Y0065218D01*
X0079277Y0064768D02*
X0078827Y0064318D01*
X0077476Y0064318D01*
X0078377Y0064318D02*
X0079277Y0063417D01*
X0079277Y0064768D02*
X0079277Y0065669D01*
X0078827Y0066119D01*
X0077476Y0066119D01*
X0077476Y0063417D01*
X0077476Y0083417D02*
X0077476Y0086119D01*
X0078827Y0086119D01*
X0079277Y0085669D01*
X0079277Y0084768D01*
X0078827Y0084318D01*
X0077476Y0084318D01*
X0078377Y0084318D02*
X0079277Y0083417D01*
X0080422Y0083867D02*
X0080873Y0083417D01*
X0081774Y0083417D01*
X0082224Y0083867D01*
X0082224Y0084318D01*
X0081774Y0084768D01*
X0081323Y0084768D01*
X0081774Y0084768D02*
X0082224Y0085218D01*
X0082224Y0085669D01*
X0081774Y0086119D01*
X0080873Y0086119D01*
X0080422Y0085669D01*
X0057619Y0166367D02*
X0035619Y0166367D01*
X0035619Y0171367D01*
X0040619Y0171367D01*
X0040619Y0201367D01*
X0035619Y0201367D01*
X0035619Y0206367D01*
X0057619Y0206367D01*
X0057619Y0166367D01*
X0035619Y0171367D02*
X0035619Y0201367D01*
X0035619Y0211367D02*
X0035619Y0216367D01*
X0040619Y0216367D01*
X0040619Y0246367D01*
X0035619Y0246367D01*
X0035619Y0251367D01*
X0057619Y0251367D01*
X0057619Y0211367D01*
X0035619Y0211367D01*
X0035619Y0216367D02*
X0035619Y0246367D01*
X0108369Y0254117D02*
X0108369Y0260222D01*
X0111422Y0260222D01*
X0112439Y0259205D01*
X0112439Y0257170D01*
X0111422Y0256152D01*
X0108369Y0256152D01*
X0114446Y0255134D02*
X0115464Y0254117D01*
X0118516Y0254117D01*
X0118516Y0258187D01*
X0120523Y0260222D02*
X0121541Y0260222D01*
X0121541Y0254117D01*
X0122558Y0254117D02*
X0120523Y0254117D01*
X0124575Y0254117D02*
X0127627Y0254117D01*
X0128645Y0255134D01*
X0127627Y0256152D01*
X0125592Y0256152D01*
X0124575Y0257170D01*
X0125592Y0258187D01*
X0128645Y0258187D01*
X0130652Y0257170D02*
X0130652Y0255134D01*
X0131669Y0254117D01*
X0133705Y0254117D01*
X0134722Y0256152D02*
X0134722Y0257170D01*
X0133705Y0258187D01*
X0131669Y0258187D01*
X0130652Y0257170D01*
X0130652Y0256152D02*
X0134722Y0256152D01*
X0142806Y0255134D02*
X0143824Y0256152D01*
X0146876Y0256152D01*
X0146876Y0257170D02*
X0146876Y0254117D01*
X0143824Y0254117D01*
X0142806Y0255134D01*
X0143824Y0258187D02*
X0145859Y0258187D01*
X0146876Y0257170D01*
X0148883Y0258187D02*
X0148883Y0254117D01*
X0148883Y0258187D02*
X0151936Y0258187D01*
X0152954Y0257170D01*
X0152954Y0254117D01*
X0154961Y0255134D02*
X0154961Y0257170D01*
X0155978Y0258187D01*
X0159031Y0258187D01*
X0159031Y0260222D02*
X0159031Y0254117D01*
X0155978Y0254117D01*
X0154961Y0255134D01*
X0167115Y0254117D02*
X0170168Y0254117D01*
X0171185Y0255134D01*
X0171185Y0256152D01*
X0170168Y0257170D01*
X0167115Y0257170D01*
X0167115Y0260222D02*
X0167115Y0254117D01*
X0170168Y0257170D02*
X0171185Y0258187D01*
X0171185Y0259205D01*
X0170168Y0260222D01*
X0167115Y0260222D01*
X0173192Y0260222D02*
X0174210Y0260222D01*
X0174210Y0254117D01*
X0175227Y0254117D02*
X0173192Y0254117D01*
X0177244Y0255134D02*
X0178261Y0254117D01*
X0180296Y0254117D01*
X0181314Y0255134D01*
X0181314Y0257170D01*
X0180296Y0258187D01*
X0178261Y0258187D01*
X0177244Y0257170D01*
X0177244Y0255134D01*
X0183321Y0255134D02*
X0184338Y0254117D01*
X0186373Y0254117D01*
X0187391Y0255134D01*
X0187391Y0257170D01*
X0186373Y0258187D01*
X0184338Y0258187D01*
X0183321Y0257170D01*
X0183321Y0255134D01*
X0189398Y0254117D02*
X0189398Y0258187D01*
X0190416Y0258187D01*
X0191433Y0257170D01*
X0192451Y0258187D01*
X0193468Y0257170D01*
X0193468Y0254117D01*
X0191433Y0254117D02*
X0191433Y0257170D01*
X0201552Y0256152D02*
X0204605Y0256152D01*
X0205623Y0257170D01*
X0205623Y0259205D01*
X0204605Y0260222D01*
X0201552Y0260222D01*
X0201552Y0254117D01*
X0203588Y0256152D02*
X0205623Y0254117D01*
X0207630Y0255134D02*
X0207630Y0257170D01*
X0208647Y0258187D01*
X0210682Y0258187D01*
X0211700Y0257170D01*
X0211700Y0256152D01*
X0207630Y0256152D01*
X0207630Y0255134D02*
X0208647Y0254117D01*
X0210682Y0254117D01*
X0215742Y0254117D02*
X0213707Y0258187D01*
X0217777Y0258187D02*
X0215742Y0254117D01*
X0219784Y0255134D02*
X0220802Y0254117D01*
X0222837Y0254117D01*
X0223854Y0255134D01*
X0223854Y0256152D01*
X0222837Y0257170D01*
X0221819Y0257170D01*
X0222837Y0257170D02*
X0223854Y0258187D01*
X0223854Y0259205D01*
X0222837Y0260222D01*
X0220802Y0260222D01*
X0219784Y0259205D01*
X0225619Y0251367D02*
X0225619Y0246367D01*
X0220619Y0246367D01*
X0220619Y0226367D01*
X0225619Y0226367D01*
X0225619Y0221367D01*
X0203619Y0221367D01*
X0203619Y0251367D01*
X0225619Y0251367D01*
X0225619Y0246367D02*
X0225619Y0226367D01*
X0225619Y0216367D02*
X0225619Y0211367D01*
X0220619Y0211367D01*
X0220619Y0181367D01*
X0225619Y0181367D01*
X0225619Y0176367D01*
X0203619Y0176367D01*
X0203619Y0216367D01*
X0225619Y0216367D01*
X0225619Y0211367D02*
X0225619Y0181367D01*
X0225619Y0171367D02*
X0225619Y0166367D01*
X0220619Y0166367D01*
X0220619Y0136367D01*
X0225619Y0136367D01*
X0225619Y0131367D01*
X0203619Y0131367D01*
X0203619Y0171367D01*
X0225619Y0171367D01*
X0225619Y0166367D02*
X0225619Y0136367D01*
X0225619Y0126367D02*
X0225619Y0121367D01*
X0220619Y0121367D01*
X0220619Y0101367D01*
X0225619Y0101367D01*
X0225619Y0096367D01*
X0203619Y0096367D01*
X0203619Y0126367D01*
X0225619Y0126367D01*
X0225619Y0121367D02*
X0225619Y0101367D01*
X0225619Y0091367D02*
X0225619Y0086367D01*
X0220619Y0086367D01*
X0220619Y0066367D01*
X0225619Y0066367D01*
X0225619Y0061367D01*
X0203619Y0061367D01*
X0203619Y0091367D01*
X0225619Y0091367D01*
X0225619Y0086367D02*
X0225619Y0066367D01*
X0114446Y0255134D02*
X0114446Y0258187D01*
D11*
X0108669Y0245505D02*
X0108669Y0243570D01*
X0106734Y0245505D01*
X0106250Y0245505D01*
X0105766Y0245022D01*
X0105766Y0244054D01*
X0106250Y0243570D01*
X0105766Y0242559D02*
X0105766Y0241591D01*
X0105766Y0242075D02*
X0108185Y0242075D01*
X0108669Y0241591D01*
X0108669Y0241108D01*
X0108185Y0240624D01*
X0130469Y0229201D02*
X0130953Y0228717D01*
X0131436Y0228717D01*
X0131920Y0229201D01*
X0131920Y0231619D01*
X0131436Y0231619D02*
X0132404Y0231619D01*
X0133415Y0231619D02*
X0134867Y0231619D01*
X0135350Y0231136D01*
X0135350Y0230168D01*
X0134867Y0229684D01*
X0133415Y0229684D01*
X0133415Y0228717D02*
X0133415Y0231619D01*
X0136362Y0231136D02*
X0136846Y0231619D01*
X0137813Y0231619D01*
X0138297Y0231136D01*
X0138297Y0230652D01*
X0136362Y0228717D01*
X0138297Y0228717D01*
X0142101Y0222403D02*
X0142101Y0221919D01*
X0142101Y0220952D02*
X0142101Y0219017D01*
X0141617Y0219017D02*
X0142585Y0219017D01*
X0143582Y0219501D02*
X0144065Y0219984D01*
X0145517Y0219984D01*
X0145517Y0220468D02*
X0145517Y0219017D01*
X0144065Y0219017D01*
X0143582Y0219501D01*
X0144065Y0220952D02*
X0145033Y0220952D01*
X0145517Y0220468D01*
X0146528Y0219017D02*
X0147496Y0219017D01*
X0147012Y0219017D02*
X0147012Y0221919D01*
X0146528Y0221919D01*
X0142101Y0220952D02*
X0141617Y0220952D01*
X0140613Y0220952D02*
X0140129Y0220952D01*
X0139162Y0219984D01*
X0139162Y0219017D02*
X0139162Y0220952D01*
X0138150Y0220468D02*
X0138150Y0219984D01*
X0136215Y0219984D01*
X0136215Y0219501D02*
X0136215Y0220468D01*
X0136699Y0220952D01*
X0137667Y0220952D01*
X0138150Y0220468D01*
X0137667Y0219017D02*
X0136699Y0219017D01*
X0136215Y0219501D01*
X0135204Y0219501D02*
X0134720Y0219017D01*
X0133753Y0219017D01*
X0133269Y0219501D01*
X0133753Y0220468D02*
X0134720Y0220468D01*
X0135204Y0219984D01*
X0135204Y0219501D01*
X0133753Y0220468D02*
X0133269Y0220952D01*
X0133269Y0221436D01*
X0133753Y0221919D01*
X0134720Y0221919D01*
X0135204Y0221436D01*
X0134184Y0200019D02*
X0133217Y0200019D01*
X0132733Y0199536D01*
X0132733Y0197601D01*
X0133217Y0197117D01*
X0134184Y0197117D01*
X0134668Y0197601D01*
X0135680Y0197117D02*
X0137615Y0197117D01*
X0136647Y0197117D02*
X0136647Y0200019D01*
X0135680Y0199052D01*
X0134668Y0199536D02*
X0134184Y0200019D01*
X0131736Y0200019D02*
X0130769Y0200019D01*
X0131253Y0200019D02*
X0131253Y0197117D01*
X0131736Y0197117D02*
X0130769Y0197117D01*
X0097576Y0184419D02*
X0097576Y0181517D01*
X0098543Y0181517D02*
X0096608Y0181517D01*
X0095597Y0181033D02*
X0093662Y0181033D01*
X0092650Y0181517D02*
X0090715Y0181517D01*
X0091683Y0181517D02*
X0091683Y0184419D01*
X0090715Y0183452D01*
X0089704Y0183936D02*
X0089220Y0184419D01*
X0088253Y0184419D01*
X0087769Y0183936D01*
X0087769Y0182001D01*
X0088253Y0181517D01*
X0089220Y0181517D01*
X0089704Y0182001D01*
X0096608Y0183452D02*
X0097576Y0184419D01*
X0094774Y0163719D02*
X0093806Y0163719D01*
X0093322Y0163236D01*
X0093322Y0161301D01*
X0095257Y0163236D01*
X0095257Y0161301D01*
X0094774Y0160817D01*
X0093806Y0160817D01*
X0093322Y0161301D01*
X0092311Y0160333D02*
X0090376Y0160333D01*
X0089364Y0160817D02*
X0087429Y0160817D01*
X0088397Y0160817D02*
X0088397Y0163719D01*
X0087429Y0162752D01*
X0086418Y0163236D02*
X0085934Y0163719D01*
X0084967Y0163719D01*
X0084483Y0163236D01*
X0084483Y0161301D01*
X0084967Y0160817D01*
X0085934Y0160817D01*
X0086418Y0161301D01*
X0094774Y0163719D02*
X0095257Y0163236D01*
X0070548Y0175139D02*
X0067645Y0175139D01*
X0067645Y0176590D01*
X0068129Y0177074D01*
X0069096Y0177074D01*
X0069580Y0176590D01*
X0069580Y0175139D01*
X0069580Y0178085D02*
X0069580Y0180020D01*
X0069096Y0180020D01*
X0068613Y0179537D01*
X0068613Y0178569D01*
X0069096Y0178085D01*
X0070064Y0178085D01*
X0070548Y0178569D01*
X0070548Y0179537D01*
X0070064Y0181516D02*
X0070548Y0181999D01*
X0070064Y0181516D02*
X0068129Y0181516D01*
X0068613Y0181999D02*
X0068613Y0181032D01*
X0070064Y0182996D02*
X0069580Y0183480D01*
X0069580Y0184931D01*
X0069096Y0184931D02*
X0070548Y0184931D01*
X0070548Y0183480D01*
X0070064Y0182996D01*
X0068613Y0183480D02*
X0068613Y0184448D01*
X0069096Y0184931D01*
X0067645Y0185943D02*
X0067645Y0186427D01*
X0070548Y0186427D01*
X0070548Y0186910D02*
X0070548Y0185943D01*
X0070548Y0190854D02*
X0067645Y0190854D01*
X0067645Y0192305D01*
X0068129Y0192789D01*
X0069096Y0192789D01*
X0069580Y0192305D01*
X0069580Y0190854D01*
X0069580Y0191821D02*
X0070548Y0192789D01*
X0070064Y0193800D02*
X0070548Y0194284D01*
X0070548Y0195251D01*
X0070064Y0195735D01*
X0069096Y0195735D01*
X0069096Y0194768D01*
X0068129Y0195735D02*
X0067645Y0195251D01*
X0067645Y0194284D01*
X0068129Y0193800D01*
X0070064Y0193800D01*
X0070548Y0196747D02*
X0067645Y0196747D01*
X0067645Y0198198D01*
X0068129Y0198682D01*
X0068613Y0198682D01*
X0069096Y0198198D01*
X0069096Y0196747D01*
X0069096Y0198198D02*
X0069580Y0198682D01*
X0070064Y0198682D01*
X0070548Y0198198D01*
X0070548Y0196747D01*
X0062319Y0195624D02*
X0062319Y0194173D01*
X0061836Y0193689D01*
X0060868Y0193689D01*
X0060384Y0194173D01*
X0060384Y0195624D01*
X0059417Y0195624D02*
X0062319Y0195624D01*
X0061796Y0197521D02*
X0062280Y0198005D01*
X0062280Y0198972D01*
X0061796Y0199456D01*
X0060829Y0199456D01*
X0060829Y0198488D01*
X0061796Y0197521D02*
X0059861Y0197521D01*
X0059377Y0198005D01*
X0059377Y0198972D01*
X0059861Y0199456D01*
X0059377Y0200467D02*
X0062280Y0202402D01*
X0059377Y0202402D01*
X0059377Y0203414D02*
X0059377Y0204865D01*
X0059861Y0205349D01*
X0061796Y0205349D01*
X0062280Y0204865D01*
X0062280Y0203414D01*
X0059377Y0203414D01*
X0059377Y0200467D02*
X0062280Y0200467D01*
X0061532Y0208190D02*
X0058629Y0208190D01*
X0058629Y0210125D02*
X0061532Y0210125D01*
X0060564Y0209158D01*
X0061532Y0208190D01*
X0061532Y0211137D02*
X0058629Y0211137D01*
X0059597Y0211620D02*
X0059597Y0212588D01*
X0060081Y0213072D01*
X0061532Y0213072D01*
X0061532Y0214083D02*
X0061532Y0215051D01*
X0061532Y0214567D02*
X0059597Y0214567D01*
X0059597Y0214083D01*
X0058629Y0214567D02*
X0058146Y0214567D01*
X0059597Y0216048D02*
X0059597Y0217015D01*
X0059113Y0216531D02*
X0061048Y0216531D01*
X0061532Y0217015D01*
X0061048Y0218012D02*
X0060081Y0218012D01*
X0059597Y0218496D01*
X0059597Y0219463D01*
X0060081Y0219947D01*
X0060564Y0219947D01*
X0060564Y0218012D01*
X0061048Y0218012D02*
X0061532Y0218496D01*
X0061532Y0219463D01*
X0061847Y0220828D02*
X0060879Y0221795D01*
X0061847Y0222763D01*
X0058944Y0222763D01*
X0058944Y0223774D02*
X0061847Y0223774D01*
X0060396Y0223774D02*
X0059912Y0224258D01*
X0059912Y0225226D01*
X0060396Y0225709D01*
X0061847Y0225709D01*
X0061847Y0226721D02*
X0061847Y0227688D01*
X0061847Y0227205D02*
X0059912Y0227205D01*
X0059912Y0226721D01*
X0058944Y0227205D02*
X0058461Y0227205D01*
X0059912Y0228685D02*
X0059912Y0229653D01*
X0059428Y0229169D02*
X0061363Y0229169D01*
X0061847Y0229653D01*
X0061363Y0230650D02*
X0060396Y0230650D01*
X0059912Y0231133D01*
X0059912Y0232101D01*
X0060396Y0232585D01*
X0060879Y0232585D01*
X0060879Y0230650D01*
X0061363Y0230650D02*
X0061847Y0231133D01*
X0061847Y0232101D01*
X0061847Y0232363D02*
X0060879Y0233331D01*
X0061847Y0234298D01*
X0058944Y0234298D01*
X0058944Y0235310D02*
X0061847Y0235310D01*
X0060396Y0235310D02*
X0059912Y0235794D01*
X0059912Y0236761D01*
X0060396Y0237245D01*
X0061847Y0237245D01*
X0061847Y0238256D02*
X0061847Y0239224D01*
X0061847Y0238740D02*
X0059912Y0238740D01*
X0059912Y0238256D01*
X0058944Y0238740D02*
X0058461Y0238740D01*
X0059912Y0240221D02*
X0059912Y0241188D01*
X0059428Y0240705D02*
X0061363Y0240705D01*
X0061847Y0241188D01*
X0061363Y0242185D02*
X0060396Y0242185D01*
X0059912Y0242669D01*
X0059912Y0243636D01*
X0060396Y0244120D01*
X0060879Y0244120D01*
X0060879Y0242185D01*
X0061363Y0242185D02*
X0061847Y0242669D01*
X0061847Y0243636D01*
X0061954Y0244450D02*
X0060019Y0244450D01*
X0059535Y0244934D01*
X0059535Y0245901D01*
X0060019Y0246385D01*
X0060986Y0246385D02*
X0060986Y0245417D01*
X0060986Y0246385D02*
X0061954Y0246385D01*
X0062437Y0245901D01*
X0062437Y0244934D01*
X0061954Y0244450D01*
X0062437Y0247397D02*
X0059535Y0247397D01*
X0062437Y0249331D01*
X0059535Y0249331D01*
X0059535Y0250343D02*
X0059535Y0251794D01*
X0060019Y0252278D01*
X0061954Y0252278D01*
X0062437Y0251794D01*
X0062437Y0250343D01*
X0059535Y0250343D01*
X0065542Y0246851D02*
X0066026Y0247335D01*
X0066509Y0247335D01*
X0066509Y0245400D01*
X0066026Y0245400D02*
X0065542Y0245884D01*
X0065542Y0246851D01*
X0066026Y0245400D02*
X0066993Y0245400D01*
X0067477Y0245884D01*
X0067477Y0246851D01*
X0067477Y0244403D02*
X0066993Y0243919D01*
X0065058Y0243919D01*
X0065542Y0243436D02*
X0065542Y0244403D01*
X0065542Y0241955D02*
X0067477Y0241955D01*
X0067477Y0241471D02*
X0067477Y0242439D01*
X0067477Y0240460D02*
X0066026Y0240460D01*
X0065542Y0239976D01*
X0065542Y0239008D01*
X0066026Y0238525D01*
X0067477Y0238525D02*
X0064574Y0238525D01*
X0064574Y0237513D02*
X0067477Y0237513D01*
X0066509Y0236546D01*
X0067477Y0235578D01*
X0064574Y0235578D01*
X0064574Y0231151D02*
X0067477Y0231151D01*
X0067477Y0230667D02*
X0067477Y0231635D01*
X0067477Y0229656D02*
X0066026Y0229656D01*
X0065542Y0229172D01*
X0065542Y0228205D01*
X0066509Y0228205D02*
X0066509Y0229656D01*
X0067477Y0229656D02*
X0067477Y0228205D01*
X0066993Y0227721D01*
X0066509Y0228205D01*
X0065542Y0226724D02*
X0065542Y0225756D01*
X0065058Y0226240D02*
X0066993Y0226240D01*
X0067477Y0226724D01*
X0066509Y0224745D02*
X0066509Y0222810D01*
X0066026Y0222810D02*
X0065542Y0223294D01*
X0065542Y0224261D01*
X0066026Y0224745D01*
X0066509Y0224745D01*
X0067477Y0224261D02*
X0067477Y0223294D01*
X0066993Y0222810D01*
X0066026Y0222810D01*
X0066026Y0221798D02*
X0066509Y0221315D01*
X0066509Y0219863D01*
X0067477Y0219863D02*
X0064574Y0219863D01*
X0064574Y0221315D01*
X0065058Y0221798D01*
X0066026Y0221798D01*
X0061847Y0220828D02*
X0058944Y0220828D01*
X0059597Y0211620D02*
X0060081Y0211137D01*
X0060868Y0192678D02*
X0061352Y0192678D01*
X0061352Y0190743D01*
X0061836Y0190743D02*
X0060868Y0190743D01*
X0060384Y0191227D01*
X0060384Y0192194D01*
X0060868Y0192678D01*
X0062319Y0192194D02*
X0062319Y0191227D01*
X0061836Y0190743D01*
X0062319Y0189731D02*
X0061352Y0188764D01*
X0061352Y0189248D02*
X0061352Y0187796D01*
X0061729Y0187162D02*
X0059794Y0187162D01*
X0059794Y0188614D01*
X0060278Y0189097D01*
X0061729Y0189097D01*
X0061352Y0189248D02*
X0060868Y0189731D01*
X0059901Y0189731D01*
X0059417Y0189248D01*
X0059417Y0187796D01*
X0062319Y0187796D01*
X0061729Y0185667D02*
X0061729Y0184700D01*
X0061245Y0184216D01*
X0060278Y0184216D01*
X0059794Y0184700D01*
X0059794Y0185667D01*
X0060278Y0186151D01*
X0060761Y0186151D01*
X0060761Y0184216D01*
X0060761Y0183204D02*
X0060761Y0181269D01*
X0060278Y0181269D02*
X0059794Y0181753D01*
X0059794Y0182720D01*
X0060278Y0183204D01*
X0060761Y0183204D01*
X0061729Y0182720D02*
X0061729Y0181753D01*
X0061245Y0181269D01*
X0060278Y0181269D01*
X0059794Y0180265D02*
X0059794Y0179781D01*
X0060761Y0178814D01*
X0059794Y0178814D02*
X0061729Y0178814D01*
X0061245Y0177802D02*
X0060278Y0177802D01*
X0060278Y0176835D01*
X0060317Y0176250D02*
X0060801Y0176250D01*
X0060801Y0174315D01*
X0061284Y0174315D02*
X0060317Y0174315D01*
X0059833Y0174799D01*
X0059833Y0175766D01*
X0060317Y0176250D01*
X0061245Y0175867D02*
X0061729Y0176351D01*
X0061729Y0177319D01*
X0061245Y0177802D01*
X0061245Y0175867D02*
X0059310Y0175867D01*
X0058826Y0176351D01*
X0058826Y0177319D01*
X0059310Y0177802D01*
X0061768Y0175766D02*
X0061768Y0174799D01*
X0061284Y0174315D01*
X0061768Y0173304D02*
X0059833Y0173304D01*
X0061768Y0173304D02*
X0061768Y0171852D01*
X0061284Y0171369D01*
X0059833Y0171369D01*
X0058866Y0169888D02*
X0061768Y0169888D01*
X0061768Y0169404D02*
X0061768Y0170372D01*
X0061284Y0168393D02*
X0061768Y0167909D01*
X0061768Y0166458D01*
X0058866Y0166458D01*
X0058866Y0167909D01*
X0059349Y0168393D01*
X0059833Y0168393D01*
X0060317Y0167909D01*
X0060317Y0166458D01*
X0060317Y0167909D02*
X0060801Y0168393D01*
X0061284Y0168393D01*
X0058866Y0169404D02*
X0058866Y0169888D01*
X0061692Y0161707D02*
X0061208Y0161223D01*
X0061208Y0159772D01*
X0064111Y0159772D01*
X0064111Y0161223D01*
X0063627Y0161707D01*
X0061692Y0161707D01*
X0061208Y0158761D02*
X0064111Y0158761D01*
X0061208Y0156826D01*
X0064111Y0156826D01*
X0063627Y0155814D02*
X0062659Y0155814D01*
X0062659Y0154847D01*
X0061692Y0155814D02*
X0061208Y0155330D01*
X0061208Y0154363D01*
X0061692Y0153879D01*
X0063627Y0153879D01*
X0064111Y0154363D01*
X0064111Y0155330D01*
X0063627Y0155814D01*
X0066428Y0156276D02*
X0066911Y0155793D01*
X0067879Y0155793D01*
X0068363Y0156276D01*
X0068363Y0157728D01*
X0068363Y0158739D02*
X0065460Y0158739D01*
X0066428Y0157728D02*
X0066428Y0156276D01*
X0066428Y0154781D02*
X0068363Y0154781D01*
X0068363Y0153330D01*
X0067879Y0152846D01*
X0066428Y0152846D01*
X0066428Y0151835D02*
X0066911Y0151351D01*
X0066911Y0149900D01*
X0066911Y0148888D02*
X0066428Y0148404D01*
X0066428Y0147437D01*
X0066911Y0146953D01*
X0067879Y0146953D01*
X0068363Y0147437D01*
X0068363Y0148404D01*
X0067879Y0148888D01*
X0066911Y0148888D01*
X0065460Y0149900D02*
X0065460Y0151351D01*
X0065944Y0151835D01*
X0066428Y0151835D01*
X0066911Y0151351D02*
X0067395Y0151835D01*
X0067879Y0151835D01*
X0068363Y0151351D01*
X0068363Y0149900D01*
X0065460Y0149900D01*
X0063025Y0146530D02*
X0061090Y0146530D01*
X0061090Y0144595D02*
X0063025Y0144595D01*
X0063993Y0145562D01*
X0063025Y0146530D01*
X0062058Y0143583D02*
X0061574Y0143583D01*
X0061090Y0143100D01*
X0061090Y0142132D01*
X0061574Y0141648D01*
X0062058Y0143583D02*
X0063993Y0141648D01*
X0063993Y0143583D01*
X0064976Y0142526D02*
X0065460Y0142526D01*
X0066428Y0142526D02*
X0068363Y0142526D01*
X0068363Y0142042D02*
X0068363Y0143010D01*
X0067879Y0144007D02*
X0068363Y0144490D01*
X0068363Y0145942D01*
X0066428Y0145942D02*
X0066428Y0144490D01*
X0066911Y0144007D01*
X0067879Y0144007D01*
X0066428Y0142526D02*
X0066428Y0142042D01*
X0065944Y0141031D02*
X0066911Y0141031D01*
X0067395Y0140547D01*
X0067395Y0139096D01*
X0068363Y0139096D02*
X0065460Y0139096D01*
X0065460Y0140547D01*
X0065944Y0141031D01*
X0063993Y0140637D02*
X0063993Y0138702D01*
X0063993Y0139669D02*
X0061090Y0139669D01*
X0062058Y0138702D01*
X0070269Y0132936D02*
X0070269Y0131001D01*
X0070753Y0130517D01*
X0071720Y0130517D01*
X0072204Y0131001D01*
X0073215Y0131001D02*
X0073699Y0130517D01*
X0074667Y0130517D01*
X0075150Y0131001D01*
X0075150Y0131484D01*
X0074667Y0131968D01*
X0074183Y0131968D01*
X0074667Y0131968D02*
X0075150Y0132452D01*
X0075150Y0132936D01*
X0074667Y0133419D01*
X0073699Y0133419D01*
X0073215Y0132936D01*
X0072204Y0132936D02*
X0071720Y0133419D01*
X0070753Y0133419D01*
X0070269Y0132936D01*
X0067485Y0128051D02*
X0067001Y0127567D01*
X0067001Y0126600D01*
X0066518Y0126116D01*
X0066034Y0126600D01*
X0066034Y0128051D01*
X0067485Y0128051D02*
X0067969Y0127567D01*
X0067969Y0126116D01*
X0067969Y0125112D02*
X0067001Y0123660D01*
X0066034Y0125112D01*
X0065066Y0123660D02*
X0067969Y0123660D01*
X0067969Y0122649D02*
X0067969Y0121198D01*
X0067485Y0120714D01*
X0066518Y0120714D01*
X0066034Y0121198D01*
X0066034Y0122649D01*
X0066034Y0119702D02*
X0067969Y0119702D01*
X0067969Y0118251D01*
X0067485Y0117767D01*
X0066034Y0117767D01*
X0066034Y0116756D02*
X0066518Y0116272D01*
X0066518Y0114821D01*
X0066518Y0113809D02*
X0066034Y0113326D01*
X0066034Y0112358D01*
X0066518Y0111874D01*
X0067485Y0111874D01*
X0067969Y0112358D01*
X0067969Y0113326D01*
X0067485Y0113809D01*
X0066518Y0113809D01*
X0067969Y0114821D02*
X0065066Y0114821D01*
X0065066Y0116272D01*
X0065550Y0116756D01*
X0066034Y0116756D01*
X0066518Y0116272D02*
X0067001Y0116756D01*
X0067485Y0116756D01*
X0067969Y0116272D01*
X0067969Y0114821D01*
X0067969Y0110863D02*
X0067969Y0109412D01*
X0067485Y0108928D01*
X0066518Y0108928D01*
X0066034Y0109412D01*
X0066034Y0110863D01*
X0062969Y0110877D02*
X0062001Y0109910D01*
X0060066Y0109910D01*
X0060550Y0108898D02*
X0060066Y0108415D01*
X0060066Y0107447D01*
X0060550Y0106963D01*
X0060550Y0108898D02*
X0061034Y0108898D01*
X0062969Y0106963D01*
X0062969Y0108898D01*
X0062969Y0110877D02*
X0062001Y0111845D01*
X0060066Y0111845D01*
X0064583Y0107447D02*
X0065066Y0107447D01*
X0066034Y0107447D02*
X0067969Y0107447D01*
X0067969Y0106963D02*
X0067969Y0107931D01*
X0066034Y0107447D02*
X0066034Y0106963D01*
X0066518Y0105952D02*
X0067001Y0105468D01*
X0067001Y0104017D01*
X0067969Y0104017D02*
X0065066Y0104017D01*
X0065066Y0105468D01*
X0065550Y0105952D01*
X0066518Y0105952D01*
X0062969Y0105952D02*
X0062969Y0104017D01*
X0062969Y0104984D02*
X0060066Y0104984D01*
X0061034Y0104017D01*
X0066608Y0093973D02*
X0067575Y0092522D01*
X0068543Y0093973D01*
X0068543Y0092522D02*
X0065640Y0092522D01*
X0066608Y0091510D02*
X0066608Y0090059D01*
X0067092Y0089575D01*
X0068059Y0089575D01*
X0068543Y0090059D01*
X0068543Y0091510D01*
X0070440Y0091510D02*
X0072375Y0091510D01*
X0073343Y0090543D01*
X0072375Y0089575D01*
X0070440Y0089575D01*
X0070924Y0088564D02*
X0070440Y0088080D01*
X0070440Y0087113D01*
X0070924Y0086629D01*
X0070924Y0088564D02*
X0071408Y0088564D01*
X0073343Y0086629D01*
X0073343Y0088564D01*
X0073343Y0085617D02*
X0073343Y0083682D01*
X0073343Y0084650D02*
X0070440Y0084650D01*
X0071408Y0083682D01*
X0068543Y0083682D02*
X0068543Y0085134D01*
X0068059Y0085617D01*
X0067575Y0085617D01*
X0067092Y0085134D01*
X0067092Y0083682D01*
X0068543Y0083682D02*
X0065640Y0083682D01*
X0065640Y0085134D01*
X0066124Y0085617D01*
X0066608Y0085617D01*
X0067092Y0085134D01*
X0066608Y0086629D02*
X0068059Y0086629D01*
X0068543Y0087113D01*
X0068543Y0088564D01*
X0066608Y0088564D01*
X0062969Y0088898D02*
X0060066Y0088898D01*
X0060066Y0089910D02*
X0060066Y0091361D01*
X0060550Y0091845D01*
X0062485Y0091845D01*
X0062969Y0091361D01*
X0062969Y0089910D01*
X0060066Y0089910D01*
X0060066Y0086963D02*
X0062969Y0088898D01*
X0062969Y0086963D02*
X0060066Y0086963D01*
X0060550Y0085952D02*
X0060066Y0085468D01*
X0060066Y0084501D01*
X0060550Y0084017D01*
X0062485Y0084017D01*
X0062969Y0084501D01*
X0062969Y0085468D01*
X0062485Y0085952D01*
X0061518Y0085952D01*
X0061518Y0084984D01*
X0062001Y0074345D02*
X0060066Y0074345D01*
X0060066Y0072410D02*
X0062001Y0072410D01*
X0062969Y0073377D01*
X0062001Y0074345D01*
X0061034Y0071398D02*
X0060550Y0071398D01*
X0060066Y0070915D01*
X0060066Y0069947D01*
X0060550Y0069463D01*
X0061034Y0071398D02*
X0062969Y0069463D01*
X0062969Y0071398D01*
X0062969Y0068452D02*
X0062969Y0066517D01*
X0062969Y0067484D02*
X0060066Y0067484D01*
X0061034Y0066517D01*
X0060550Y0056845D02*
X0060066Y0056361D01*
X0060066Y0054910D01*
X0062969Y0054910D01*
X0062969Y0056361D01*
X0062485Y0056845D01*
X0060550Y0056845D01*
X0060066Y0053898D02*
X0062969Y0053898D01*
X0060066Y0051963D01*
X0062969Y0051963D01*
X0062485Y0050952D02*
X0061518Y0050952D01*
X0061518Y0049984D01*
X0062485Y0049017D02*
X0060550Y0049017D01*
X0060066Y0049501D01*
X0060066Y0050468D01*
X0060550Y0050952D01*
X0062485Y0050952D02*
X0062969Y0050468D01*
X0062969Y0049501D01*
X0062485Y0049017D01*
X0065129Y0050475D02*
X0068031Y0050475D01*
X0067064Y0050475D02*
X0066096Y0051926D01*
X0067064Y0050475D02*
X0068031Y0051926D01*
X0068031Y0049463D02*
X0068031Y0048012D01*
X0067547Y0047528D01*
X0066580Y0047528D01*
X0066096Y0048012D01*
X0066096Y0049463D01*
X0066096Y0046517D02*
X0068031Y0046517D01*
X0068031Y0045065D01*
X0067547Y0044582D01*
X0066096Y0044582D01*
X0066096Y0043570D02*
X0066580Y0043086D01*
X0066580Y0041635D01*
X0068031Y0041635D02*
X0065129Y0041635D01*
X0065129Y0043086D01*
X0065612Y0043570D01*
X0066096Y0043570D01*
X0066580Y0043086D02*
X0067064Y0043570D01*
X0067547Y0043570D01*
X0068031Y0043086D01*
X0068031Y0041635D01*
X0069929Y0041635D02*
X0069929Y0043570D01*
X0069929Y0044582D02*
X0071864Y0044582D01*
X0072831Y0045549D01*
X0071864Y0046517D01*
X0069929Y0046517D01*
X0071380Y0043570D02*
X0072347Y0043570D01*
X0072831Y0043086D01*
X0072831Y0042119D01*
X0072347Y0041635D01*
X0071380Y0041635D02*
X0070896Y0042603D01*
X0070896Y0043086D01*
X0071380Y0043570D01*
X0071380Y0041635D02*
X0069929Y0041635D01*
X0062969Y0040431D02*
X0062001Y0041398D01*
X0060066Y0041398D01*
X0060066Y0039463D02*
X0062001Y0039463D01*
X0062969Y0040431D01*
X0062485Y0038452D02*
X0061518Y0038452D01*
X0061034Y0037968D01*
X0061034Y0037484D01*
X0061518Y0036517D01*
X0060066Y0036517D01*
X0060066Y0038452D01*
X0062485Y0038452D02*
X0062969Y0037968D01*
X0062969Y0037001D01*
X0062485Y0036517D01*
X0072753Y0102517D02*
X0073720Y0102517D01*
X0074204Y0103001D01*
X0075215Y0102517D02*
X0077150Y0104452D01*
X0077150Y0104936D01*
X0076667Y0105419D01*
X0075699Y0105419D01*
X0075215Y0104936D01*
X0074204Y0104936D02*
X0073720Y0105419D01*
X0072753Y0105419D01*
X0072269Y0104936D01*
X0072269Y0103001D01*
X0072753Y0102517D01*
X0075215Y0102517D02*
X0077150Y0102517D01*
X0062485Y0119017D02*
X0062969Y0119501D01*
X0062969Y0120468D01*
X0062485Y0120952D01*
X0061518Y0120952D01*
X0061518Y0119984D01*
X0062485Y0119017D02*
X0060550Y0119017D01*
X0060066Y0119501D01*
X0060066Y0120468D01*
X0060550Y0120952D01*
X0060066Y0121963D02*
X0062969Y0123898D01*
X0060066Y0123898D01*
X0060066Y0124910D02*
X0060066Y0126361D01*
X0060550Y0126845D01*
X0062485Y0126845D01*
X0062969Y0126361D01*
X0062969Y0124910D01*
X0060066Y0124910D01*
X0060066Y0121963D02*
X0062969Y0121963D01*
X0067395Y0158739D02*
X0066428Y0160190D01*
X0066911Y0161195D02*
X0066428Y0161678D01*
X0066428Y0163130D01*
X0067395Y0162646D02*
X0067395Y0161678D01*
X0066911Y0161195D01*
X0068363Y0161195D02*
X0068363Y0162646D01*
X0067879Y0163130D01*
X0067395Y0162646D01*
X0068363Y0160190D02*
X0067395Y0158739D01*
X0089236Y0212017D02*
X0089236Y0213468D01*
X0090204Y0214436D01*
X0090204Y0214919D01*
X0091215Y0213952D02*
X0092183Y0214919D01*
X0092183Y0212017D01*
X0093150Y0212017D02*
X0091215Y0212017D01*
X0089236Y0213468D02*
X0088269Y0214436D01*
X0088269Y0214919D01*
X0064574Y0230667D02*
X0064574Y0231151D01*
X0061847Y0232363D02*
X0058944Y0232363D01*
X0064091Y0241955D02*
X0064574Y0241955D01*
X0065542Y0241955D02*
X0065542Y0241471D01*
X0177519Y0212169D02*
X0177519Y0209751D01*
X0178003Y0209267D01*
X0178970Y0209267D01*
X0179454Y0209751D01*
X0179454Y0212169D01*
X0180465Y0211202D02*
X0181433Y0212169D01*
X0181433Y0209267D01*
X0182400Y0209267D02*
X0180465Y0209267D01*
X0188160Y0207933D02*
X0191063Y0207933D01*
X0191063Y0207449D02*
X0191063Y0208417D01*
X0191063Y0209414D02*
X0191063Y0210865D01*
X0190579Y0211349D01*
X0190095Y0210865D01*
X0190095Y0209897D01*
X0189611Y0209414D01*
X0189128Y0209897D01*
X0189128Y0211349D01*
X0189611Y0212360D02*
X0189128Y0212844D01*
X0189128Y0213811D01*
X0189611Y0214295D01*
X0190095Y0214295D01*
X0190095Y0212360D01*
X0190579Y0212360D02*
X0189611Y0212360D01*
X0190579Y0212360D02*
X0191063Y0212844D01*
X0191063Y0213811D01*
X0193928Y0213826D02*
X0194411Y0213342D01*
X0195379Y0213342D01*
X0195863Y0213826D01*
X0195863Y0214794D01*
X0195379Y0215277D01*
X0194411Y0215277D01*
X0193928Y0214794D01*
X0193928Y0213826D01*
X0193928Y0212331D02*
X0193928Y0210880D01*
X0194411Y0210396D01*
X0194895Y0210880D01*
X0194895Y0211847D01*
X0195379Y0212331D01*
X0195863Y0211847D01*
X0195863Y0210396D01*
X0195863Y0209384D02*
X0194411Y0209384D01*
X0193928Y0208901D01*
X0193928Y0207449D01*
X0195863Y0207449D01*
X0194895Y0206438D02*
X0194895Y0204503D01*
X0194411Y0204503D02*
X0193928Y0204987D01*
X0193928Y0205954D01*
X0194411Y0206438D01*
X0194895Y0206438D01*
X0195863Y0205954D02*
X0195863Y0204987D01*
X0195379Y0204503D01*
X0194411Y0204503D01*
X0194895Y0203491D02*
X0195379Y0203491D01*
X0195863Y0203008D01*
X0195863Y0202040D01*
X0195379Y0201556D01*
X0194411Y0202040D02*
X0194411Y0203008D01*
X0194895Y0203491D01*
X0193444Y0203491D02*
X0192960Y0203008D01*
X0192960Y0202040D01*
X0193444Y0201556D01*
X0193928Y0201556D01*
X0194411Y0202040D01*
X0197566Y0202447D02*
X0197566Y0203415D01*
X0198050Y0203898D01*
X0197566Y0204910D02*
X0200469Y0204910D01*
X0200469Y0206845D01*
X0199985Y0209017D02*
X0200469Y0209501D01*
X0200469Y0210468D01*
X0199985Y0210952D01*
X0199501Y0210952D01*
X0199018Y0210468D01*
X0199018Y0209984D01*
X0199018Y0210468D02*
X0198534Y0210952D01*
X0198050Y0210952D01*
X0197566Y0210468D01*
X0197566Y0209501D01*
X0198050Y0209017D01*
X0199985Y0211963D02*
X0199985Y0212447D01*
X0200469Y0212447D01*
X0200469Y0211963D01*
X0199985Y0211963D01*
X0199985Y0213437D02*
X0200469Y0213920D01*
X0200469Y0214888D01*
X0199985Y0215372D01*
X0199501Y0215372D01*
X0199018Y0214888D01*
X0199018Y0214404D01*
X0199018Y0214888D02*
X0198534Y0215372D01*
X0198050Y0215372D01*
X0197566Y0214888D01*
X0197566Y0213920D01*
X0198050Y0213437D01*
X0197566Y0216383D02*
X0199501Y0216383D01*
X0200469Y0217351D01*
X0199501Y0218318D01*
X0197566Y0218318D01*
X0198444Y0220395D02*
X0197960Y0220879D01*
X0197960Y0221846D01*
X0198444Y0222330D01*
X0199411Y0222330D02*
X0199411Y0221362D01*
X0199411Y0222330D02*
X0200379Y0222330D01*
X0200863Y0221846D01*
X0200863Y0220879D01*
X0200379Y0220395D01*
X0198444Y0220395D01*
X0197960Y0223341D02*
X0200863Y0225276D01*
X0197960Y0225276D01*
X0197960Y0226288D02*
X0197960Y0227739D01*
X0198444Y0228223D01*
X0200379Y0228223D01*
X0200863Y0227739D01*
X0200863Y0226288D01*
X0197960Y0226288D01*
X0197960Y0223341D02*
X0200863Y0223341D01*
X0195863Y0216289D02*
X0193928Y0216289D01*
X0194895Y0216289D02*
X0193928Y0217256D01*
X0193928Y0217740D01*
X0194091Y0226793D02*
X0191188Y0226793D01*
X0191188Y0228727D01*
X0191188Y0229739D02*
X0194091Y0229739D01*
X0194091Y0231674D01*
X0194091Y0228727D02*
X0194091Y0226793D01*
X0192640Y0226793D02*
X0192640Y0227760D01*
X0197842Y0230257D02*
X0200744Y0230257D01*
X0200744Y0232192D01*
X0200744Y0233204D02*
X0200744Y0235139D01*
X0200744Y0236150D02*
X0199777Y0237118D01*
X0200744Y0238085D01*
X0197842Y0238085D01*
X0198810Y0239097D02*
X0198810Y0239580D01*
X0200744Y0239580D01*
X0200744Y0239097D02*
X0200744Y0240064D01*
X0200744Y0241061D02*
X0198810Y0241061D01*
X0199777Y0241061D02*
X0198810Y0242028D01*
X0198810Y0242512D01*
X0199293Y0243516D02*
X0198810Y0244000D01*
X0198810Y0244968D01*
X0199293Y0245451D01*
X0199777Y0245451D01*
X0199777Y0243516D01*
X0200261Y0243516D02*
X0199293Y0243516D01*
X0200261Y0243516D02*
X0200744Y0244000D01*
X0200744Y0244968D01*
X0200744Y0245119D02*
X0200744Y0247054D01*
X0200744Y0246087D02*
X0197842Y0246087D01*
X0198810Y0245119D01*
X0198326Y0248066D02*
X0197842Y0248550D01*
X0197842Y0249517D01*
X0198326Y0250001D01*
X0198810Y0250001D01*
X0200744Y0248066D01*
X0200744Y0250001D01*
X0199777Y0251012D02*
X0200744Y0251980D01*
X0199777Y0252947D01*
X0197842Y0252947D01*
X0197842Y0251012D02*
X0199777Y0251012D01*
X0194091Y0244450D02*
X0194091Y0243482D01*
X0193607Y0242998D01*
X0192640Y0242998D01*
X0192156Y0243482D01*
X0192156Y0244450D01*
X0192640Y0244933D01*
X0193123Y0244933D01*
X0193123Y0242998D01*
X0192156Y0241994D02*
X0192156Y0241510D01*
X0193123Y0240543D01*
X0192156Y0240543D02*
X0194091Y0240543D01*
X0194091Y0239546D02*
X0194091Y0238579D01*
X0194091Y0239062D02*
X0192156Y0239062D01*
X0192156Y0238579D01*
X0191188Y0239062D02*
X0190705Y0239062D01*
X0191188Y0237567D02*
X0194091Y0237567D01*
X0193123Y0236600D01*
X0194091Y0235632D01*
X0191188Y0235632D01*
X0197842Y0236150D02*
X0200744Y0236150D01*
X0200744Y0233204D02*
X0197842Y0233204D01*
X0197842Y0232192D02*
X0197842Y0230257D01*
X0199293Y0230257D02*
X0199293Y0231225D01*
X0197842Y0239580D02*
X0197358Y0239580D01*
X0188160Y0207933D02*
X0188160Y0207449D01*
X0189128Y0206438D02*
X0191063Y0206438D01*
X0191063Y0204987D01*
X0190579Y0204503D01*
X0189128Y0204503D01*
X0189611Y0203491D02*
X0190095Y0203008D01*
X0190095Y0201556D01*
X0191063Y0201556D02*
X0188160Y0201556D01*
X0188160Y0203008D01*
X0188644Y0203491D01*
X0189611Y0203491D01*
X0197566Y0202447D02*
X0198050Y0201963D01*
X0199985Y0201963D01*
X0200469Y0202447D01*
X0200469Y0203415D01*
X0199985Y0203898D01*
X0199985Y0200952D02*
X0200469Y0200468D01*
X0200469Y0199501D01*
X0199985Y0199017D01*
X0199018Y0199501D02*
X0199018Y0200468D01*
X0199501Y0200952D01*
X0199985Y0200952D01*
X0199018Y0199501D02*
X0198534Y0199017D01*
X0198050Y0199017D01*
X0197566Y0199501D01*
X0197566Y0200468D01*
X0198050Y0200952D01*
X0198534Y0196845D02*
X0197566Y0195877D01*
X0198534Y0194910D01*
X0200469Y0194910D01*
X0199985Y0193898D02*
X0198050Y0193898D01*
X0197566Y0193415D01*
X0197566Y0191963D01*
X0200469Y0191963D01*
X0200469Y0193415D01*
X0199985Y0193898D01*
X0199018Y0194910D02*
X0199018Y0196845D01*
X0198534Y0196845D02*
X0200469Y0196845D01*
X0199985Y0190952D02*
X0200469Y0190468D01*
X0200469Y0189501D01*
X0199985Y0189017D01*
X0199018Y0189501D02*
X0199018Y0190468D01*
X0199501Y0190952D01*
X0199985Y0190952D01*
X0199018Y0189501D02*
X0198534Y0189017D01*
X0198050Y0189017D01*
X0197566Y0189501D01*
X0197566Y0190468D01*
X0198050Y0190952D01*
X0198050Y0186845D02*
X0197566Y0186361D01*
X0197566Y0184910D01*
X0200469Y0184910D01*
X0200469Y0186361D01*
X0199985Y0186845D01*
X0198050Y0186845D01*
X0197566Y0183898D02*
X0200469Y0183898D01*
X0197566Y0181963D01*
X0200469Y0181963D01*
X0199985Y0180952D02*
X0199018Y0180952D01*
X0199018Y0179984D01*
X0199985Y0179017D02*
X0200469Y0179501D01*
X0200469Y0180468D01*
X0199985Y0180952D01*
X0198050Y0180952D02*
X0197566Y0180468D01*
X0197566Y0179501D01*
X0198050Y0179017D01*
X0199985Y0179017D01*
X0199501Y0173318D02*
X0197566Y0173318D01*
X0197566Y0171383D02*
X0199501Y0171383D01*
X0200469Y0172351D01*
X0199501Y0173318D01*
X0199501Y0170372D02*
X0199985Y0170372D01*
X0200469Y0169888D01*
X0200469Y0168920D01*
X0199985Y0168437D01*
X0199985Y0167447D02*
X0200469Y0167447D01*
X0200469Y0166963D01*
X0199985Y0166963D01*
X0199985Y0167447D01*
X0199985Y0165952D02*
X0200469Y0165468D01*
X0200469Y0164501D01*
X0199985Y0164017D01*
X0199018Y0164984D02*
X0199018Y0165468D01*
X0199501Y0165952D01*
X0199985Y0165952D01*
X0199018Y0165468D02*
X0198534Y0165952D01*
X0198050Y0165952D01*
X0197566Y0165468D01*
X0197566Y0164501D01*
X0198050Y0164017D01*
X0195469Y0163505D02*
X0194985Y0163988D01*
X0194501Y0163505D01*
X0194501Y0162537D01*
X0194018Y0162053D01*
X0193534Y0162537D01*
X0193534Y0163988D01*
X0194018Y0165000D02*
X0194985Y0165000D01*
X0195469Y0165484D01*
X0195469Y0166451D01*
X0194985Y0166935D01*
X0194018Y0166935D01*
X0193534Y0166451D01*
X0193534Y0165484D01*
X0194018Y0165000D01*
X0195469Y0163505D02*
X0195469Y0162053D01*
X0195469Y0161042D02*
X0194018Y0161042D01*
X0193534Y0160558D01*
X0193534Y0159107D01*
X0195469Y0159107D01*
X0194501Y0158095D02*
X0194501Y0156160D01*
X0194018Y0156160D02*
X0193534Y0156644D01*
X0193534Y0157612D01*
X0194018Y0158095D01*
X0194501Y0158095D01*
X0195469Y0157612D02*
X0195469Y0156644D01*
X0194985Y0156160D01*
X0194018Y0156160D01*
X0194501Y0155149D02*
X0194985Y0155149D01*
X0195469Y0154665D01*
X0195469Y0153698D01*
X0194985Y0153214D01*
X0194018Y0153698D02*
X0194018Y0154665D01*
X0194501Y0155149D01*
X0193050Y0155149D02*
X0192566Y0154665D01*
X0192566Y0153698D01*
X0193050Y0153214D01*
X0193534Y0153214D01*
X0194018Y0153698D01*
X0197566Y0154501D02*
X0197566Y0155468D01*
X0198050Y0155952D01*
X0198050Y0156963D02*
X0199985Y0156963D01*
X0200469Y0157447D01*
X0200469Y0158415D01*
X0199985Y0158898D01*
X0200469Y0159910D02*
X0200469Y0161845D01*
X0200469Y0159910D02*
X0197566Y0159910D01*
X0198050Y0158898D02*
X0197566Y0158415D01*
X0197566Y0157447D01*
X0198050Y0156963D01*
X0199501Y0155952D02*
X0199985Y0155952D01*
X0200469Y0155468D01*
X0200469Y0154501D01*
X0199985Y0154017D01*
X0199018Y0154501D02*
X0199018Y0155468D01*
X0199501Y0155952D01*
X0199018Y0154501D02*
X0198534Y0154017D01*
X0198050Y0154017D01*
X0197566Y0154501D01*
X0198534Y0151845D02*
X0197566Y0150877D01*
X0198534Y0149910D01*
X0200469Y0149910D01*
X0199985Y0148898D02*
X0198050Y0148898D01*
X0197566Y0148415D01*
X0197566Y0146963D01*
X0200469Y0146963D01*
X0200469Y0148415D01*
X0199985Y0148898D01*
X0199018Y0149910D02*
X0199018Y0151845D01*
X0198534Y0151845D02*
X0200469Y0151845D01*
X0195469Y0148772D02*
X0195469Y0147805D01*
X0194985Y0147321D01*
X0194018Y0147321D01*
X0193534Y0147805D01*
X0193534Y0148772D01*
X0194018Y0149256D01*
X0194501Y0149256D01*
X0194501Y0147321D01*
X0194985Y0146309D02*
X0194501Y0145826D01*
X0194501Y0144858D01*
X0194018Y0144374D01*
X0193534Y0144858D01*
X0193534Y0146309D01*
X0194985Y0146309D02*
X0195469Y0145826D01*
X0195469Y0144374D01*
X0195469Y0143377D02*
X0195469Y0142410D01*
X0195469Y0142894D02*
X0192566Y0142894D01*
X0192566Y0142410D01*
X0193534Y0141398D02*
X0195469Y0141398D01*
X0195469Y0139947D01*
X0194985Y0139463D01*
X0193534Y0139463D01*
X0194018Y0138452D02*
X0194501Y0137968D01*
X0194501Y0136517D01*
X0195469Y0136517D02*
X0192566Y0136517D01*
X0192566Y0137968D01*
X0193050Y0138452D01*
X0194018Y0138452D01*
X0197566Y0138898D02*
X0200469Y0138898D01*
X0197566Y0136963D01*
X0200469Y0136963D01*
X0199985Y0135952D02*
X0199018Y0135952D01*
X0199018Y0134984D01*
X0199985Y0134017D02*
X0200469Y0134501D01*
X0200469Y0135468D01*
X0199985Y0135952D01*
X0198050Y0135952D02*
X0197566Y0135468D01*
X0197566Y0134501D01*
X0198050Y0134017D01*
X0199985Y0134017D01*
X0200469Y0139910D02*
X0197566Y0139910D01*
X0197566Y0141361D01*
X0198050Y0141845D01*
X0199985Y0141845D01*
X0200469Y0141361D01*
X0200469Y0139910D01*
X0199985Y0144017D02*
X0200469Y0144501D01*
X0200469Y0145468D01*
X0199985Y0145952D01*
X0199501Y0145952D01*
X0199018Y0145468D01*
X0199018Y0144501D01*
X0198534Y0144017D01*
X0198050Y0144017D01*
X0197566Y0144501D01*
X0197566Y0145468D01*
X0198050Y0145952D01*
X0182167Y0140919D02*
X0182167Y0138017D01*
X0182650Y0139468D02*
X0180715Y0139468D01*
X0182167Y0140919D01*
X0179704Y0140436D02*
X0179220Y0140919D01*
X0178253Y0140919D01*
X0177769Y0140436D01*
X0177769Y0138501D01*
X0178253Y0138017D01*
X0179220Y0138017D01*
X0179704Y0138501D01*
X0197566Y0123898D02*
X0199501Y0123898D01*
X0200469Y0122931D01*
X0199501Y0121963D01*
X0197566Y0121963D01*
X0197566Y0120952D02*
X0197566Y0119017D01*
X0199018Y0119017D01*
X0198534Y0119984D01*
X0198534Y0120468D01*
X0199018Y0120952D01*
X0199985Y0120952D01*
X0200469Y0120468D01*
X0200469Y0119501D01*
X0199985Y0119017D01*
X0199501Y0118809D02*
X0199501Y0117358D01*
X0199985Y0116874D01*
X0200469Y0117358D01*
X0200469Y0118809D01*
X0199018Y0118809D01*
X0198534Y0118326D01*
X0198534Y0117358D01*
X0198534Y0115877D02*
X0198534Y0114910D01*
X0198050Y0115394D02*
X0199985Y0115394D01*
X0200469Y0115877D01*
X0200469Y0113898D02*
X0200469Y0112447D01*
X0199985Y0111963D01*
X0199501Y0112447D01*
X0199501Y0113898D01*
X0199018Y0113898D02*
X0200469Y0113898D01*
X0199018Y0113898D02*
X0198534Y0113415D01*
X0198534Y0112447D01*
X0198050Y0110952D02*
X0199985Y0110952D01*
X0200469Y0110468D01*
X0200469Y0109017D01*
X0197566Y0109017D01*
X0197566Y0110468D01*
X0198050Y0110952D01*
X0195469Y0110431D02*
X0194985Y0109947D01*
X0193050Y0109947D01*
X0193534Y0109463D02*
X0193534Y0110431D01*
X0194018Y0111428D02*
X0193534Y0111912D01*
X0193534Y0112879D01*
X0194018Y0113363D01*
X0194501Y0113363D01*
X0194501Y0111428D01*
X0194018Y0111428D02*
X0194985Y0111428D01*
X0195469Y0111912D01*
X0195469Y0112879D01*
X0195469Y0114374D02*
X0193534Y0114374D01*
X0193534Y0114858D01*
X0194018Y0115342D01*
X0193534Y0115826D01*
X0194018Y0116309D01*
X0195469Y0116309D01*
X0195469Y0115342D02*
X0194018Y0115342D01*
X0194501Y0108452D02*
X0194985Y0108452D01*
X0195469Y0107968D01*
X0195469Y0107001D01*
X0194985Y0106517D01*
X0194018Y0107001D02*
X0194018Y0107968D01*
X0194501Y0108452D01*
X0193050Y0108452D02*
X0192566Y0107968D01*
X0192566Y0107001D01*
X0193050Y0106517D01*
X0193534Y0106517D01*
X0194018Y0107001D01*
X0197566Y0106361D02*
X0197566Y0104910D01*
X0200469Y0104910D01*
X0200469Y0106361D01*
X0199985Y0106845D01*
X0198050Y0106845D01*
X0197566Y0106361D01*
X0197566Y0103898D02*
X0200469Y0103898D01*
X0197566Y0101963D01*
X0200469Y0101963D01*
X0199985Y0100952D02*
X0199018Y0100952D01*
X0199018Y0099984D01*
X0199985Y0099017D02*
X0200469Y0099501D01*
X0200469Y0100468D01*
X0199985Y0100952D01*
X0198050Y0100952D02*
X0197566Y0100468D01*
X0197566Y0099501D01*
X0198050Y0099017D01*
X0199985Y0099017D01*
X0199501Y0088898D02*
X0197566Y0088898D01*
X0197566Y0086963D02*
X0199501Y0086963D01*
X0200469Y0087931D01*
X0199501Y0088898D01*
X0199018Y0085952D02*
X0199985Y0085952D01*
X0200469Y0085468D01*
X0200469Y0084501D01*
X0199985Y0084017D01*
X0199501Y0083809D02*
X0199501Y0082358D01*
X0199985Y0081874D01*
X0200469Y0082358D01*
X0200469Y0083809D01*
X0199018Y0083809D01*
X0198534Y0083326D01*
X0198534Y0082358D01*
X0198534Y0080877D02*
X0198534Y0079910D01*
X0198050Y0080394D02*
X0199985Y0080394D01*
X0200469Y0080877D01*
X0200469Y0078898D02*
X0200469Y0077447D01*
X0199985Y0076963D01*
X0199501Y0077447D01*
X0199501Y0078898D01*
X0199018Y0078898D02*
X0200469Y0078898D01*
X0199018Y0078898D02*
X0198534Y0078415D01*
X0198534Y0077447D01*
X0198050Y0075952D02*
X0199985Y0075952D01*
X0200469Y0075468D01*
X0200469Y0074017D01*
X0197566Y0074017D01*
X0197566Y0075468D01*
X0198050Y0075952D01*
X0195469Y0075431D02*
X0194985Y0074947D01*
X0193050Y0074947D01*
X0193534Y0074463D02*
X0193534Y0075431D01*
X0194018Y0076428D02*
X0193534Y0076912D01*
X0193534Y0077879D01*
X0194018Y0078363D01*
X0194501Y0078363D01*
X0194501Y0076428D01*
X0194018Y0076428D02*
X0194985Y0076428D01*
X0195469Y0076912D01*
X0195469Y0077879D01*
X0195469Y0079374D02*
X0193534Y0079374D01*
X0193534Y0079858D01*
X0194018Y0080342D01*
X0193534Y0080826D01*
X0194018Y0081309D01*
X0195469Y0081309D01*
X0195469Y0080342D02*
X0194018Y0080342D01*
X0197566Y0084017D02*
X0199018Y0084017D01*
X0198534Y0084984D01*
X0198534Y0085468D01*
X0199018Y0085952D01*
X0197566Y0085952D02*
X0197566Y0084017D01*
X0194985Y0073452D02*
X0195469Y0072968D01*
X0195469Y0072001D01*
X0194985Y0071517D01*
X0194018Y0072001D02*
X0193534Y0071517D01*
X0193050Y0071517D01*
X0192566Y0072001D01*
X0192566Y0072968D01*
X0193050Y0073452D01*
X0194018Y0072968D02*
X0194501Y0073452D01*
X0194985Y0073452D01*
X0194018Y0072968D02*
X0194018Y0072001D01*
X0197566Y0071361D02*
X0197566Y0069910D01*
X0200469Y0069910D01*
X0200469Y0071361D01*
X0199985Y0071845D01*
X0198050Y0071845D01*
X0197566Y0071361D01*
X0197566Y0068898D02*
X0200469Y0068898D01*
X0197566Y0066963D01*
X0200469Y0066963D01*
X0199985Y0065952D02*
X0199018Y0065952D01*
X0199018Y0064984D01*
X0199985Y0064017D02*
X0200469Y0064501D01*
X0200469Y0065468D01*
X0199985Y0065952D01*
X0198050Y0065952D02*
X0197566Y0065468D01*
X0197566Y0064501D01*
X0198050Y0064017D01*
X0199985Y0064017D01*
X0189043Y0061517D02*
X0187108Y0061517D01*
X0188076Y0061517D02*
X0188076Y0064419D01*
X0187108Y0063452D01*
X0186097Y0061033D02*
X0184162Y0061033D01*
X0183150Y0061517D02*
X0181215Y0061517D01*
X0182183Y0061517D02*
X0182183Y0064419D01*
X0181215Y0063452D01*
X0180204Y0064419D02*
X0179236Y0064419D01*
X0179720Y0064419D02*
X0179720Y0062001D01*
X0179236Y0061517D01*
X0178753Y0061517D01*
X0178269Y0062001D01*
X0152883Y0043936D02*
X0152883Y0042968D01*
X0152399Y0042484D01*
X0150948Y0042484D01*
X0150948Y0041517D02*
X0150948Y0044419D01*
X0152399Y0044419D01*
X0152883Y0043936D01*
X0149936Y0042968D02*
X0148001Y0042968D01*
X0146990Y0042484D02*
X0146990Y0042001D01*
X0146506Y0041517D01*
X0145539Y0041517D01*
X0145055Y0042001D01*
X0145055Y0042484D01*
X0145539Y0042968D01*
X0146506Y0042968D01*
X0146990Y0042484D01*
X0146506Y0042968D02*
X0146990Y0043452D01*
X0146990Y0043936D01*
X0146506Y0044419D01*
X0145539Y0044419D01*
X0145055Y0043936D01*
X0145055Y0043452D01*
X0145539Y0042968D01*
X0144043Y0042968D02*
X0142108Y0042968D01*
X0142108Y0043452D02*
X0143076Y0044419D01*
X0144043Y0043452D01*
X0144043Y0041517D01*
X0142108Y0041517D02*
X0142108Y0043452D01*
X0141097Y0043936D02*
X0140613Y0044419D01*
X0139646Y0044419D01*
X0139162Y0043936D01*
X0139162Y0042001D01*
X0139646Y0041517D01*
X0140613Y0041517D01*
X0141097Y0042001D01*
X0141097Y0042968D01*
X0140129Y0042968D01*
X0138150Y0041517D02*
X0136215Y0041517D01*
X0136215Y0044419D01*
X0138150Y0044419D01*
X0137183Y0042968D02*
X0136215Y0042968D01*
X0135204Y0044419D02*
X0135204Y0041517D01*
X0133269Y0041517D02*
X0133269Y0044419D01*
X0134236Y0043452D01*
X0135204Y0044419D01*
X0180753Y0103017D02*
X0181720Y0103017D01*
X0182204Y0103501D01*
X0183215Y0103501D02*
X0183699Y0103017D01*
X0184667Y0103017D01*
X0185150Y0103501D01*
X0185150Y0104468D01*
X0184667Y0104952D01*
X0184183Y0104952D01*
X0183215Y0104468D01*
X0183215Y0105919D01*
X0185150Y0105919D01*
X0182204Y0105436D02*
X0181720Y0105919D01*
X0180753Y0105919D01*
X0180269Y0105436D01*
X0180269Y0103501D01*
X0180753Y0103017D01*
X0193534Y0167946D02*
X0195469Y0167946D01*
X0194501Y0167946D02*
X0193534Y0168914D01*
X0193534Y0169398D01*
X0197566Y0168920D02*
X0197566Y0169888D01*
X0198050Y0170372D01*
X0198534Y0170372D01*
X0199018Y0169888D01*
X0199501Y0170372D01*
X0199018Y0169888D02*
X0199018Y0169404D01*
X0198050Y0168437D02*
X0197566Y0168920D01*
D12*
X0151619Y0194367D02*
X0151619Y0048367D01*
X0129619Y0048367D01*
X0129619Y0194367D01*
X0138119Y0194367D01*
X0138121Y0194269D01*
X0138127Y0194171D01*
X0138136Y0194073D01*
X0138150Y0193976D01*
X0138167Y0193879D01*
X0138188Y0193783D01*
X0138213Y0193688D01*
X0138241Y0193594D01*
X0138274Y0193502D01*
X0138309Y0193410D01*
X0138349Y0193320D01*
X0138391Y0193232D01*
X0138438Y0193145D01*
X0138487Y0193061D01*
X0138540Y0192978D01*
X0138596Y0192898D01*
X0138656Y0192819D01*
X0138718Y0192743D01*
X0138783Y0192670D01*
X0138851Y0192599D01*
X0138922Y0192531D01*
X0138995Y0192466D01*
X0139071Y0192404D01*
X0139150Y0192344D01*
X0139230Y0192288D01*
X0139313Y0192235D01*
X0139397Y0192186D01*
X0139484Y0192139D01*
X0139572Y0192097D01*
X0139662Y0192057D01*
X0139754Y0192022D01*
X0139846Y0191989D01*
X0139940Y0191961D01*
X0140035Y0191936D01*
X0140131Y0191915D01*
X0140228Y0191898D01*
X0140325Y0191884D01*
X0140423Y0191875D01*
X0140521Y0191869D01*
X0140619Y0191867D01*
X0140717Y0191869D01*
X0140815Y0191875D01*
X0140913Y0191884D01*
X0141010Y0191898D01*
X0141107Y0191915D01*
X0141203Y0191936D01*
X0141298Y0191961D01*
X0141392Y0191989D01*
X0141484Y0192022D01*
X0141576Y0192057D01*
X0141666Y0192097D01*
X0141754Y0192139D01*
X0141841Y0192186D01*
X0141925Y0192235D01*
X0142008Y0192288D01*
X0142088Y0192344D01*
X0142167Y0192404D01*
X0142243Y0192466D01*
X0142316Y0192531D01*
X0142387Y0192599D01*
X0142455Y0192670D01*
X0142520Y0192743D01*
X0142582Y0192819D01*
X0142642Y0192898D01*
X0142698Y0192978D01*
X0142751Y0193061D01*
X0142800Y0193145D01*
X0142847Y0193232D01*
X0142889Y0193320D01*
X0142929Y0193410D01*
X0142964Y0193502D01*
X0142997Y0193594D01*
X0143025Y0193688D01*
X0143050Y0193783D01*
X0143071Y0193879D01*
X0143088Y0193976D01*
X0143102Y0194073D01*
X0143111Y0194171D01*
X0143117Y0194269D01*
X0143119Y0194367D01*
X0151619Y0194367D01*
D13*
X0031446Y0058257D02*
X0031446Y0030698D01*
X0034595Y0030698D01*
X0034595Y0058257D01*
X0059005Y0058257D01*
X0059005Y0030698D01*
X0034595Y0030698D01*
X0034595Y0058257D02*
X0031446Y0058257D01*
X0031446Y0065698D02*
X0031446Y0093257D01*
X0034595Y0093257D01*
X0034595Y0065698D01*
X0031446Y0065698D01*
X0034595Y0065698D02*
X0059005Y0065698D01*
X0059005Y0093257D01*
X0034595Y0093257D01*
X0034595Y0100698D02*
X0031446Y0100698D01*
X0031446Y0128257D01*
X0034595Y0128257D01*
X0034595Y0100698D01*
X0059005Y0100698D01*
X0059005Y0128257D01*
X0034595Y0128257D01*
X0034595Y0135698D02*
X0031446Y0135698D01*
X0031446Y0163257D01*
X0034595Y0163257D01*
X0034595Y0135698D01*
X0059005Y0135698D01*
X0059005Y0163257D01*
X0034595Y0163257D01*
X0077119Y0192367D02*
X0104119Y0192367D01*
X0104338Y0192370D01*
X0104557Y0192378D01*
X0104776Y0192391D01*
X0104994Y0192410D01*
X0105212Y0192434D01*
X0105429Y0192463D01*
X0105646Y0192497D01*
X0105861Y0192537D01*
X0106076Y0192582D01*
X0106289Y0192633D01*
X0106501Y0192688D01*
X0106712Y0192749D01*
X0106921Y0192814D01*
X0107128Y0192885D01*
X0107334Y0192961D01*
X0107538Y0193042D01*
X0107740Y0193127D01*
X0107939Y0193218D01*
X0108136Y0193313D01*
X0108331Y0193414D01*
X0108524Y0193519D01*
X0108714Y0193628D01*
X0108901Y0193742D01*
X0109085Y0193861D01*
X0109266Y0193984D01*
X0109444Y0194112D01*
X0109620Y0194244D01*
X0109791Y0194380D01*
X0109960Y0194520D01*
X0110125Y0194664D01*
X0110286Y0194812D01*
X0110444Y0194964D01*
X0110598Y0195120D01*
X0110748Y0195280D01*
X0110895Y0195443D01*
X0111037Y0195610D01*
X0111175Y0195780D01*
X0111309Y0195954D01*
X0111439Y0196130D01*
X0111564Y0196310D01*
X0111685Y0196493D01*
X0111801Y0196679D01*
X0111913Y0196867D01*
X0112020Y0197058D01*
X0112123Y0197252D01*
X0112221Y0197448D01*
X0112314Y0197646D01*
X0112402Y0197847D01*
X0112485Y0198050D01*
X0112564Y0198255D01*
X0112637Y0198461D01*
X0112705Y0198669D01*
X0112768Y0198879D01*
X0112826Y0199091D01*
X0112879Y0199303D01*
X0112927Y0199517D01*
X0112969Y0199732D01*
X0113006Y0199948D01*
X0113038Y0200165D01*
X0113065Y0200383D01*
X0113086Y0200601D01*
X0113102Y0200819D01*
X0113113Y0201038D01*
X0113118Y0201257D01*
X0113118Y0201477D01*
X0113113Y0201696D01*
X0113102Y0201915D01*
X0113086Y0202133D01*
X0113065Y0202351D01*
X0113038Y0202569D01*
X0113006Y0202786D01*
X0112969Y0203002D01*
X0112927Y0203217D01*
X0112879Y0203431D01*
X0112826Y0203643D01*
X0112768Y0203855D01*
X0112705Y0204065D01*
X0112637Y0204273D01*
X0112564Y0204479D01*
X0112485Y0204684D01*
X0112402Y0204887D01*
X0112314Y0205088D01*
X0112221Y0205286D01*
X0112123Y0205482D01*
X0112020Y0205676D01*
X0111913Y0205867D01*
X0111801Y0206055D01*
X0111685Y0206241D01*
X0111564Y0206424D01*
X0111439Y0206604D01*
X0111309Y0206780D01*
X0111175Y0206954D01*
X0111037Y0207124D01*
X0110895Y0207291D01*
X0110748Y0207454D01*
X0110598Y0207614D01*
X0110444Y0207770D01*
X0110286Y0207922D01*
X0110125Y0208070D01*
X0109960Y0208214D01*
X0109791Y0208354D01*
X0109620Y0208490D01*
X0109444Y0208622D01*
X0109266Y0208750D01*
X0109085Y0208873D01*
X0108901Y0208992D01*
X0108714Y0209106D01*
X0108524Y0209215D01*
X0108331Y0209320D01*
X0108136Y0209421D01*
X0107939Y0209516D01*
X0107740Y0209607D01*
X0107538Y0209692D01*
X0107334Y0209773D01*
X0107128Y0209849D01*
X0106921Y0209920D01*
X0106712Y0209985D01*
X0106501Y0210046D01*
X0106289Y0210101D01*
X0106076Y0210152D01*
X0105861Y0210197D01*
X0105646Y0210237D01*
X0105429Y0210271D01*
X0105212Y0210300D01*
X0104994Y0210324D01*
X0104776Y0210343D01*
X0104557Y0210356D01*
X0104338Y0210364D01*
X0104119Y0210367D01*
X0077119Y0210367D01*
X0076900Y0210364D01*
X0076681Y0210356D01*
X0076462Y0210343D01*
X0076244Y0210324D01*
X0076026Y0210300D01*
X0075809Y0210271D01*
X0075592Y0210237D01*
X0075377Y0210197D01*
X0075162Y0210152D01*
X0074949Y0210101D01*
X0074737Y0210046D01*
X0074526Y0209985D01*
X0074317Y0209920D01*
X0074110Y0209849D01*
X0073904Y0209773D01*
X0073700Y0209692D01*
X0073498Y0209607D01*
X0073299Y0209516D01*
X0073102Y0209421D01*
X0072907Y0209320D01*
X0072714Y0209215D01*
X0072524Y0209106D01*
X0072337Y0208992D01*
X0072153Y0208873D01*
X0071972Y0208750D01*
X0071794Y0208622D01*
X0071618Y0208490D01*
X0071447Y0208354D01*
X0071278Y0208214D01*
X0071113Y0208070D01*
X0070952Y0207922D01*
X0070794Y0207770D01*
X0070640Y0207614D01*
X0070490Y0207454D01*
X0070343Y0207291D01*
X0070201Y0207124D01*
X0070063Y0206954D01*
X0069929Y0206780D01*
X0069799Y0206604D01*
X0069674Y0206424D01*
X0069553Y0206241D01*
X0069437Y0206055D01*
X0069325Y0205867D01*
X0069218Y0205676D01*
X0069115Y0205482D01*
X0069017Y0205286D01*
X0068924Y0205088D01*
X0068836Y0204887D01*
X0068753Y0204684D01*
X0068674Y0204479D01*
X0068601Y0204273D01*
X0068533Y0204065D01*
X0068470Y0203855D01*
X0068412Y0203643D01*
X0068359Y0203431D01*
X0068311Y0203217D01*
X0068269Y0203002D01*
X0068232Y0202786D01*
X0068200Y0202569D01*
X0068173Y0202351D01*
X0068152Y0202133D01*
X0068136Y0201915D01*
X0068125Y0201696D01*
X0068120Y0201477D01*
X0068120Y0201257D01*
X0068125Y0201038D01*
X0068136Y0200819D01*
X0068152Y0200601D01*
X0068173Y0200383D01*
X0068200Y0200165D01*
X0068232Y0199948D01*
X0068269Y0199732D01*
X0068311Y0199517D01*
X0068359Y0199303D01*
X0068412Y0199091D01*
X0068470Y0198879D01*
X0068533Y0198669D01*
X0068601Y0198461D01*
X0068674Y0198255D01*
X0068753Y0198050D01*
X0068836Y0197847D01*
X0068924Y0197646D01*
X0069017Y0197448D01*
X0069115Y0197252D01*
X0069218Y0197058D01*
X0069325Y0196867D01*
X0069437Y0196679D01*
X0069553Y0196493D01*
X0069674Y0196310D01*
X0069799Y0196130D01*
X0069929Y0195954D01*
X0070063Y0195780D01*
X0070201Y0195610D01*
X0070343Y0195443D01*
X0070490Y0195280D01*
X0070640Y0195120D01*
X0070794Y0194964D01*
X0070952Y0194812D01*
X0071113Y0194664D01*
X0071278Y0194520D01*
X0071447Y0194380D01*
X0071618Y0194244D01*
X0071794Y0194112D01*
X0071972Y0193984D01*
X0072153Y0193861D01*
X0072337Y0193742D01*
X0072524Y0193628D01*
X0072714Y0193519D01*
X0072907Y0193414D01*
X0073102Y0193313D01*
X0073299Y0193218D01*
X0073498Y0193127D01*
X0073700Y0193042D01*
X0073904Y0192961D01*
X0074110Y0192885D01*
X0074317Y0192814D01*
X0074526Y0192749D01*
X0074737Y0192688D01*
X0074949Y0192633D01*
X0075162Y0192582D01*
X0075377Y0192537D01*
X0075592Y0192497D01*
X0075809Y0192463D01*
X0076026Y0192434D01*
X0076244Y0192410D01*
X0076462Y0192391D01*
X0076681Y0192378D01*
X0076900Y0192370D01*
X0077119Y0192367D01*
X0090619Y0178867D02*
X0090619Y0173867D01*
X0090619Y0158867D02*
X0090619Y0153867D01*
X0088119Y0136367D02*
X0083119Y0136367D01*
X0077824Y0131367D02*
X0077828Y0131681D01*
X0077839Y0131995D01*
X0077859Y0132308D01*
X0077886Y0132621D01*
X0077920Y0132933D01*
X0077962Y0133244D01*
X0078012Y0133554D01*
X0078070Y0133863D01*
X0078135Y0134170D01*
X0078207Y0134476D01*
X0078287Y0134780D01*
X0078375Y0135081D01*
X0078470Y0135381D01*
X0078572Y0135678D01*
X0078681Y0135972D01*
X0078798Y0136263D01*
X0078922Y0136552D01*
X0079052Y0136838D01*
X0079190Y0137120D01*
X0079335Y0137399D01*
X0079486Y0137674D01*
X0079644Y0137945D01*
X0079809Y0138212D01*
X0079980Y0138476D01*
X0080158Y0138734D01*
X0080342Y0138989D01*
X0080532Y0139239D01*
X0080728Y0139484D01*
X0080931Y0139724D01*
X0081139Y0139960D01*
X0081352Y0140190D01*
X0081572Y0140414D01*
X0081796Y0140634D01*
X0082026Y0140847D01*
X0082262Y0141055D01*
X0082502Y0141258D01*
X0082747Y0141454D01*
X0082997Y0141644D01*
X0083252Y0141828D01*
X0083510Y0142006D01*
X0083774Y0142177D01*
X0084041Y0142342D01*
X0084312Y0142500D01*
X0084587Y0142651D01*
X0084866Y0142796D01*
X0085148Y0142934D01*
X0085434Y0143064D01*
X0085723Y0143188D01*
X0086014Y0143305D01*
X0086308Y0143414D01*
X0086605Y0143516D01*
X0086905Y0143611D01*
X0087206Y0143699D01*
X0087510Y0143779D01*
X0087816Y0143851D01*
X0088123Y0143916D01*
X0088432Y0143974D01*
X0088742Y0144024D01*
X0089053Y0144066D01*
X0089365Y0144100D01*
X0089678Y0144127D01*
X0089991Y0144147D01*
X0090305Y0144158D01*
X0090619Y0144162D01*
X0090933Y0144158D01*
X0091247Y0144147D01*
X0091560Y0144127D01*
X0091873Y0144100D01*
X0092185Y0144066D01*
X0092496Y0144024D01*
X0092806Y0143974D01*
X0093115Y0143916D01*
X0093422Y0143851D01*
X0093728Y0143779D01*
X0094032Y0143699D01*
X0094333Y0143611D01*
X0094633Y0143516D01*
X0094930Y0143414D01*
X0095224Y0143305D01*
X0095515Y0143188D01*
X0095804Y0143064D01*
X0096090Y0142934D01*
X0096372Y0142796D01*
X0096651Y0142651D01*
X0096926Y0142500D01*
X0097197Y0142342D01*
X0097464Y0142177D01*
X0097728Y0142006D01*
X0097986Y0141828D01*
X0098241Y0141644D01*
X0098491Y0141454D01*
X0098736Y0141258D01*
X0098976Y0141055D01*
X0099212Y0140847D01*
X0099442Y0140634D01*
X0099666Y0140414D01*
X0099886Y0140190D01*
X0100099Y0139960D01*
X0100307Y0139724D01*
X0100510Y0139484D01*
X0100706Y0139239D01*
X0100896Y0138989D01*
X0101080Y0138734D01*
X0101258Y0138476D01*
X0101429Y0138212D01*
X0101594Y0137945D01*
X0101752Y0137674D01*
X0101903Y0137399D01*
X0102048Y0137120D01*
X0102186Y0136838D01*
X0102316Y0136552D01*
X0102440Y0136263D01*
X0102557Y0135972D01*
X0102666Y0135678D01*
X0102768Y0135381D01*
X0102863Y0135081D01*
X0102951Y0134780D01*
X0103031Y0134476D01*
X0103103Y0134170D01*
X0103168Y0133863D01*
X0103226Y0133554D01*
X0103276Y0133244D01*
X0103318Y0132933D01*
X0103352Y0132621D01*
X0103379Y0132308D01*
X0103399Y0131995D01*
X0103410Y0131681D01*
X0103414Y0131367D01*
X0103410Y0131053D01*
X0103399Y0130739D01*
X0103379Y0130426D01*
X0103352Y0130113D01*
X0103318Y0129801D01*
X0103276Y0129490D01*
X0103226Y0129180D01*
X0103168Y0128871D01*
X0103103Y0128564D01*
X0103031Y0128258D01*
X0102951Y0127954D01*
X0102863Y0127653D01*
X0102768Y0127353D01*
X0102666Y0127056D01*
X0102557Y0126762D01*
X0102440Y0126471D01*
X0102316Y0126182D01*
X0102186Y0125896D01*
X0102048Y0125614D01*
X0101903Y0125335D01*
X0101752Y0125060D01*
X0101594Y0124789D01*
X0101429Y0124522D01*
X0101258Y0124258D01*
X0101080Y0124000D01*
X0100896Y0123745D01*
X0100706Y0123495D01*
X0100510Y0123250D01*
X0100307Y0123010D01*
X0100099Y0122774D01*
X0099886Y0122544D01*
X0099666Y0122320D01*
X0099442Y0122100D01*
X0099212Y0121887D01*
X0098976Y0121679D01*
X0098736Y0121476D01*
X0098491Y0121280D01*
X0098241Y0121090D01*
X0097986Y0120906D01*
X0097728Y0120728D01*
X0097464Y0120557D01*
X0097197Y0120392D01*
X0096926Y0120234D01*
X0096651Y0120083D01*
X0096372Y0119938D01*
X0096090Y0119800D01*
X0095804Y0119670D01*
X0095515Y0119546D01*
X0095224Y0119429D01*
X0094930Y0119320D01*
X0094633Y0119218D01*
X0094333Y0119123D01*
X0094032Y0119035D01*
X0093728Y0118955D01*
X0093422Y0118883D01*
X0093115Y0118818D01*
X0092806Y0118760D01*
X0092496Y0118710D01*
X0092185Y0118668D01*
X0091873Y0118634D01*
X0091560Y0118607D01*
X0091247Y0118587D01*
X0090933Y0118576D01*
X0090619Y0118572D01*
X0090305Y0118576D01*
X0089991Y0118587D01*
X0089678Y0118607D01*
X0089365Y0118634D01*
X0089053Y0118668D01*
X0088742Y0118710D01*
X0088432Y0118760D01*
X0088123Y0118818D01*
X0087816Y0118883D01*
X0087510Y0118955D01*
X0087206Y0119035D01*
X0086905Y0119123D01*
X0086605Y0119218D01*
X0086308Y0119320D01*
X0086014Y0119429D01*
X0085723Y0119546D01*
X0085434Y0119670D01*
X0085148Y0119800D01*
X0084866Y0119938D01*
X0084587Y0120083D01*
X0084312Y0120234D01*
X0084041Y0120392D01*
X0083774Y0120557D01*
X0083510Y0120728D01*
X0083252Y0120906D01*
X0082997Y0121090D01*
X0082747Y0121280D01*
X0082502Y0121476D01*
X0082262Y0121679D01*
X0082026Y0121887D01*
X0081796Y0122100D01*
X0081572Y0122320D01*
X0081352Y0122544D01*
X0081139Y0122774D01*
X0080931Y0123010D01*
X0080728Y0123250D01*
X0080532Y0123495D01*
X0080342Y0123745D01*
X0080158Y0124000D01*
X0079980Y0124258D01*
X0079809Y0124522D01*
X0079644Y0124789D01*
X0079486Y0125060D01*
X0079335Y0125335D01*
X0079190Y0125614D01*
X0079052Y0125896D01*
X0078922Y0126182D01*
X0078798Y0126471D01*
X0078681Y0126762D01*
X0078572Y0127056D01*
X0078470Y0127353D01*
X0078375Y0127653D01*
X0078287Y0127954D01*
X0078207Y0128258D01*
X0078135Y0128564D01*
X0078070Y0128871D01*
X0078012Y0129180D01*
X0077962Y0129490D01*
X0077920Y0129801D01*
X0077886Y0130113D01*
X0077859Y0130426D01*
X0077839Y0130739D01*
X0077828Y0131053D01*
X0077824Y0131367D01*
X0083619Y0106867D02*
X0087619Y0106867D01*
X0080776Y0101367D02*
X0080779Y0101609D01*
X0080788Y0101850D01*
X0080803Y0102091D01*
X0080823Y0102332D01*
X0080850Y0102572D01*
X0080883Y0102811D01*
X0080921Y0103050D01*
X0080965Y0103287D01*
X0081015Y0103524D01*
X0081071Y0103759D01*
X0081133Y0103992D01*
X0081200Y0104224D01*
X0081273Y0104455D01*
X0081351Y0104683D01*
X0081436Y0104909D01*
X0081525Y0105134D01*
X0081620Y0105356D01*
X0081721Y0105575D01*
X0081827Y0105793D01*
X0081938Y0106007D01*
X0082055Y0106219D01*
X0082176Y0106427D01*
X0082303Y0106633D01*
X0082435Y0106835D01*
X0082572Y0107035D01*
X0082713Y0107230D01*
X0082859Y0107423D01*
X0083010Y0107611D01*
X0083166Y0107796D01*
X0083326Y0107977D01*
X0083490Y0108154D01*
X0083659Y0108327D01*
X0083832Y0108496D01*
X0084009Y0108660D01*
X0084190Y0108820D01*
X0084375Y0108976D01*
X0084563Y0109127D01*
X0084756Y0109273D01*
X0084951Y0109414D01*
X0085151Y0109551D01*
X0085353Y0109683D01*
X0085559Y0109810D01*
X0085767Y0109931D01*
X0085979Y0110048D01*
X0086193Y0110159D01*
X0086411Y0110265D01*
X0086630Y0110366D01*
X0086852Y0110461D01*
X0087077Y0110550D01*
X0087303Y0110635D01*
X0087531Y0110713D01*
X0087762Y0110786D01*
X0087994Y0110853D01*
X0088227Y0110915D01*
X0088462Y0110971D01*
X0088699Y0111021D01*
X0088936Y0111065D01*
X0089175Y0111103D01*
X0089414Y0111136D01*
X0089654Y0111163D01*
X0089895Y0111183D01*
X0090136Y0111198D01*
X0090377Y0111207D01*
X0090619Y0111210D01*
X0090861Y0111207D01*
X0091102Y0111198D01*
X0091343Y0111183D01*
X0091584Y0111163D01*
X0091824Y0111136D01*
X0092063Y0111103D01*
X0092302Y0111065D01*
X0092539Y0111021D01*
X0092776Y0110971D01*
X0093011Y0110915D01*
X0093244Y0110853D01*
X0093476Y0110786D01*
X0093707Y0110713D01*
X0093935Y0110635D01*
X0094161Y0110550D01*
X0094386Y0110461D01*
X0094608Y0110366D01*
X0094827Y0110265D01*
X0095045Y0110159D01*
X0095259Y0110048D01*
X0095471Y0109931D01*
X0095679Y0109810D01*
X0095885Y0109683D01*
X0096087Y0109551D01*
X0096287Y0109414D01*
X0096482Y0109273D01*
X0096675Y0109127D01*
X0096863Y0108976D01*
X0097048Y0108820D01*
X0097229Y0108660D01*
X0097406Y0108496D01*
X0097579Y0108327D01*
X0097748Y0108154D01*
X0097912Y0107977D01*
X0098072Y0107796D01*
X0098228Y0107611D01*
X0098379Y0107423D01*
X0098525Y0107230D01*
X0098666Y0107035D01*
X0098803Y0106835D01*
X0098935Y0106633D01*
X0099062Y0106427D01*
X0099183Y0106219D01*
X0099300Y0106007D01*
X0099411Y0105793D01*
X0099517Y0105575D01*
X0099618Y0105356D01*
X0099713Y0105134D01*
X0099802Y0104909D01*
X0099887Y0104683D01*
X0099965Y0104455D01*
X0100038Y0104224D01*
X0100105Y0103992D01*
X0100167Y0103759D01*
X0100223Y0103524D01*
X0100273Y0103287D01*
X0100317Y0103050D01*
X0100355Y0102811D01*
X0100388Y0102572D01*
X0100415Y0102332D01*
X0100435Y0102091D01*
X0100450Y0101850D01*
X0100459Y0101609D01*
X0100462Y0101367D01*
X0100459Y0101125D01*
X0100450Y0100884D01*
X0100435Y0100643D01*
X0100415Y0100402D01*
X0100388Y0100162D01*
X0100355Y0099923D01*
X0100317Y0099684D01*
X0100273Y0099447D01*
X0100223Y0099210D01*
X0100167Y0098975D01*
X0100105Y0098742D01*
X0100038Y0098510D01*
X0099965Y0098279D01*
X0099887Y0098051D01*
X0099802Y0097825D01*
X0099713Y0097600D01*
X0099618Y0097378D01*
X0099517Y0097159D01*
X0099411Y0096941D01*
X0099300Y0096727D01*
X0099183Y0096515D01*
X0099062Y0096307D01*
X0098935Y0096101D01*
X0098803Y0095899D01*
X0098666Y0095699D01*
X0098525Y0095504D01*
X0098379Y0095311D01*
X0098228Y0095123D01*
X0098072Y0094938D01*
X0097912Y0094757D01*
X0097748Y0094580D01*
X0097579Y0094407D01*
X0097406Y0094238D01*
X0097229Y0094074D01*
X0097048Y0093914D01*
X0096863Y0093758D01*
X0096675Y0093607D01*
X0096482Y0093461D01*
X0096287Y0093320D01*
X0096087Y0093183D01*
X0095885Y0093051D01*
X0095679Y0092924D01*
X0095471Y0092803D01*
X0095259Y0092686D01*
X0095045Y0092575D01*
X0094827Y0092469D01*
X0094608Y0092368D01*
X0094386Y0092273D01*
X0094161Y0092184D01*
X0093935Y0092099D01*
X0093707Y0092021D01*
X0093476Y0091948D01*
X0093244Y0091881D01*
X0093011Y0091819D01*
X0092776Y0091763D01*
X0092539Y0091713D01*
X0092302Y0091669D01*
X0092063Y0091631D01*
X0091824Y0091598D01*
X0091584Y0091571D01*
X0091343Y0091551D01*
X0091102Y0091536D01*
X0090861Y0091527D01*
X0090619Y0091524D01*
X0090377Y0091527D01*
X0090136Y0091536D01*
X0089895Y0091551D01*
X0089654Y0091571D01*
X0089414Y0091598D01*
X0089175Y0091631D01*
X0088936Y0091669D01*
X0088699Y0091713D01*
X0088462Y0091763D01*
X0088227Y0091819D01*
X0087994Y0091881D01*
X0087762Y0091948D01*
X0087531Y0092021D01*
X0087303Y0092099D01*
X0087077Y0092184D01*
X0086852Y0092273D01*
X0086630Y0092368D01*
X0086411Y0092469D01*
X0086193Y0092575D01*
X0085979Y0092686D01*
X0085767Y0092803D01*
X0085559Y0092924D01*
X0085353Y0093051D01*
X0085151Y0093183D01*
X0084951Y0093320D01*
X0084756Y0093461D01*
X0084563Y0093607D01*
X0084375Y0093758D01*
X0084190Y0093914D01*
X0084009Y0094074D01*
X0083832Y0094238D01*
X0083659Y0094407D01*
X0083490Y0094580D01*
X0083326Y0094757D01*
X0083166Y0094938D01*
X0083010Y0095123D01*
X0082859Y0095311D01*
X0082713Y0095504D01*
X0082572Y0095699D01*
X0082435Y0095899D01*
X0082303Y0096101D01*
X0082176Y0096307D01*
X0082055Y0096515D01*
X0081938Y0096727D01*
X0081827Y0096941D01*
X0081721Y0097159D01*
X0081620Y0097378D01*
X0081525Y0097600D01*
X0081436Y0097825D01*
X0081351Y0098051D01*
X0081273Y0098279D01*
X0081200Y0098510D01*
X0081133Y0098742D01*
X0081071Y0098975D01*
X0081015Y0099210D01*
X0080965Y0099447D01*
X0080921Y0099684D01*
X0080883Y0099923D01*
X0080850Y0100162D01*
X0080823Y0100402D01*
X0080803Y0100643D01*
X0080788Y0100884D01*
X0080779Y0101125D01*
X0080776Y0101367D01*
X0078217Y0081091D02*
X0103020Y0081091D01*
X0103020Y0071643D01*
X0078217Y0071643D01*
X0078217Y0081091D01*
X0078217Y0061091D02*
X0103020Y0061091D01*
X0103020Y0051643D01*
X0078217Y0051643D01*
X0078217Y0061091D01*
X0078217Y0041091D02*
X0103020Y0041091D01*
X0103020Y0031643D01*
X0078217Y0031643D01*
X0078217Y0041091D01*
X0170619Y0038867D02*
X0170619Y0053867D01*
X0173119Y0056367D01*
X0178119Y0056367D01*
X0180619Y0053867D01*
X0180619Y0038867D01*
X0183119Y0036367D01*
X0188119Y0036367D01*
X0190619Y0038867D01*
X0190619Y0053867D01*
X0193119Y0056367D01*
X0198119Y0056367D01*
X0200619Y0053867D01*
X0200619Y0038867D01*
X0198119Y0036367D01*
X0193119Y0036367D01*
X0190619Y0038867D01*
X0180619Y0038867D02*
X0178119Y0036367D01*
X0173119Y0036367D01*
X0170619Y0038867D01*
X0173119Y0035048D02*
X0178119Y0035048D01*
X0180619Y0053867D02*
X0183119Y0056367D01*
X0188119Y0056367D01*
X0190619Y0053867D01*
X0167824Y0121367D02*
X0167828Y0121681D01*
X0167839Y0121995D01*
X0167859Y0122308D01*
X0167886Y0122621D01*
X0167920Y0122933D01*
X0167962Y0123244D01*
X0168012Y0123554D01*
X0168070Y0123863D01*
X0168135Y0124170D01*
X0168207Y0124476D01*
X0168287Y0124780D01*
X0168375Y0125081D01*
X0168470Y0125381D01*
X0168572Y0125678D01*
X0168681Y0125972D01*
X0168798Y0126263D01*
X0168922Y0126552D01*
X0169052Y0126838D01*
X0169190Y0127120D01*
X0169335Y0127399D01*
X0169486Y0127674D01*
X0169644Y0127945D01*
X0169809Y0128212D01*
X0169980Y0128476D01*
X0170158Y0128734D01*
X0170342Y0128989D01*
X0170532Y0129239D01*
X0170728Y0129484D01*
X0170931Y0129724D01*
X0171139Y0129960D01*
X0171352Y0130190D01*
X0171572Y0130414D01*
X0171796Y0130634D01*
X0172026Y0130847D01*
X0172262Y0131055D01*
X0172502Y0131258D01*
X0172747Y0131454D01*
X0172997Y0131644D01*
X0173252Y0131828D01*
X0173510Y0132006D01*
X0173774Y0132177D01*
X0174041Y0132342D01*
X0174312Y0132500D01*
X0174587Y0132651D01*
X0174866Y0132796D01*
X0175148Y0132934D01*
X0175434Y0133064D01*
X0175723Y0133188D01*
X0176014Y0133305D01*
X0176308Y0133414D01*
X0176605Y0133516D01*
X0176905Y0133611D01*
X0177206Y0133699D01*
X0177510Y0133779D01*
X0177816Y0133851D01*
X0178123Y0133916D01*
X0178432Y0133974D01*
X0178742Y0134024D01*
X0179053Y0134066D01*
X0179365Y0134100D01*
X0179678Y0134127D01*
X0179991Y0134147D01*
X0180305Y0134158D01*
X0180619Y0134162D01*
X0180933Y0134158D01*
X0181247Y0134147D01*
X0181560Y0134127D01*
X0181873Y0134100D01*
X0182185Y0134066D01*
X0182496Y0134024D01*
X0182806Y0133974D01*
X0183115Y0133916D01*
X0183422Y0133851D01*
X0183728Y0133779D01*
X0184032Y0133699D01*
X0184333Y0133611D01*
X0184633Y0133516D01*
X0184930Y0133414D01*
X0185224Y0133305D01*
X0185515Y0133188D01*
X0185804Y0133064D01*
X0186090Y0132934D01*
X0186372Y0132796D01*
X0186651Y0132651D01*
X0186926Y0132500D01*
X0187197Y0132342D01*
X0187464Y0132177D01*
X0187728Y0132006D01*
X0187986Y0131828D01*
X0188241Y0131644D01*
X0188491Y0131454D01*
X0188736Y0131258D01*
X0188976Y0131055D01*
X0189212Y0130847D01*
X0189442Y0130634D01*
X0189666Y0130414D01*
X0189886Y0130190D01*
X0190099Y0129960D01*
X0190307Y0129724D01*
X0190510Y0129484D01*
X0190706Y0129239D01*
X0190896Y0128989D01*
X0191080Y0128734D01*
X0191258Y0128476D01*
X0191429Y0128212D01*
X0191594Y0127945D01*
X0191752Y0127674D01*
X0191903Y0127399D01*
X0192048Y0127120D01*
X0192186Y0126838D01*
X0192316Y0126552D01*
X0192440Y0126263D01*
X0192557Y0125972D01*
X0192666Y0125678D01*
X0192768Y0125381D01*
X0192863Y0125081D01*
X0192951Y0124780D01*
X0193031Y0124476D01*
X0193103Y0124170D01*
X0193168Y0123863D01*
X0193226Y0123554D01*
X0193276Y0123244D01*
X0193318Y0122933D01*
X0193352Y0122621D01*
X0193379Y0122308D01*
X0193399Y0121995D01*
X0193410Y0121681D01*
X0193414Y0121367D01*
X0193410Y0121053D01*
X0193399Y0120739D01*
X0193379Y0120426D01*
X0193352Y0120113D01*
X0193318Y0119801D01*
X0193276Y0119490D01*
X0193226Y0119180D01*
X0193168Y0118871D01*
X0193103Y0118564D01*
X0193031Y0118258D01*
X0192951Y0117954D01*
X0192863Y0117653D01*
X0192768Y0117353D01*
X0192666Y0117056D01*
X0192557Y0116762D01*
X0192440Y0116471D01*
X0192316Y0116182D01*
X0192186Y0115896D01*
X0192048Y0115614D01*
X0191903Y0115335D01*
X0191752Y0115060D01*
X0191594Y0114789D01*
X0191429Y0114522D01*
X0191258Y0114258D01*
X0191080Y0114000D01*
X0190896Y0113745D01*
X0190706Y0113495D01*
X0190510Y0113250D01*
X0190307Y0113010D01*
X0190099Y0112774D01*
X0189886Y0112544D01*
X0189666Y0112320D01*
X0189442Y0112100D01*
X0189212Y0111887D01*
X0188976Y0111679D01*
X0188736Y0111476D01*
X0188491Y0111280D01*
X0188241Y0111090D01*
X0187986Y0110906D01*
X0187728Y0110728D01*
X0187464Y0110557D01*
X0187197Y0110392D01*
X0186926Y0110234D01*
X0186651Y0110083D01*
X0186372Y0109938D01*
X0186090Y0109800D01*
X0185804Y0109670D01*
X0185515Y0109546D01*
X0185224Y0109429D01*
X0184930Y0109320D01*
X0184633Y0109218D01*
X0184333Y0109123D01*
X0184032Y0109035D01*
X0183728Y0108955D01*
X0183422Y0108883D01*
X0183115Y0108818D01*
X0182806Y0108760D01*
X0182496Y0108710D01*
X0182185Y0108668D01*
X0181873Y0108634D01*
X0181560Y0108607D01*
X0181247Y0108587D01*
X0180933Y0108576D01*
X0180619Y0108572D01*
X0180305Y0108576D01*
X0179991Y0108587D01*
X0179678Y0108607D01*
X0179365Y0108634D01*
X0179053Y0108668D01*
X0178742Y0108710D01*
X0178432Y0108760D01*
X0178123Y0108818D01*
X0177816Y0108883D01*
X0177510Y0108955D01*
X0177206Y0109035D01*
X0176905Y0109123D01*
X0176605Y0109218D01*
X0176308Y0109320D01*
X0176014Y0109429D01*
X0175723Y0109546D01*
X0175434Y0109670D01*
X0175148Y0109800D01*
X0174866Y0109938D01*
X0174587Y0110083D01*
X0174312Y0110234D01*
X0174041Y0110392D01*
X0173774Y0110557D01*
X0173510Y0110728D01*
X0173252Y0110906D01*
X0172997Y0111090D01*
X0172747Y0111280D01*
X0172502Y0111476D01*
X0172262Y0111679D01*
X0172026Y0111887D01*
X0171796Y0112100D01*
X0171572Y0112320D01*
X0171352Y0112544D01*
X0171139Y0112774D01*
X0170931Y0113010D01*
X0170728Y0113250D01*
X0170532Y0113495D01*
X0170342Y0113745D01*
X0170158Y0114000D01*
X0169980Y0114258D01*
X0169809Y0114522D01*
X0169644Y0114789D01*
X0169486Y0115060D01*
X0169335Y0115335D01*
X0169190Y0115614D01*
X0169052Y0115896D01*
X0168922Y0116182D01*
X0168798Y0116471D01*
X0168681Y0116762D01*
X0168572Y0117056D01*
X0168470Y0117353D01*
X0168375Y0117653D01*
X0168287Y0117954D01*
X0168207Y0118258D01*
X0168135Y0118564D01*
X0168070Y0118871D01*
X0168012Y0119180D01*
X0167962Y0119490D01*
X0167920Y0119801D01*
X0167886Y0120113D01*
X0167859Y0120426D01*
X0167839Y0120739D01*
X0167828Y0121053D01*
X0167824Y0121367D01*
X0173119Y0126367D02*
X0178119Y0126367D01*
X0167824Y0156367D02*
X0167828Y0156681D01*
X0167839Y0156995D01*
X0167859Y0157308D01*
X0167886Y0157621D01*
X0167920Y0157933D01*
X0167962Y0158244D01*
X0168012Y0158554D01*
X0168070Y0158863D01*
X0168135Y0159170D01*
X0168207Y0159476D01*
X0168287Y0159780D01*
X0168375Y0160081D01*
X0168470Y0160381D01*
X0168572Y0160678D01*
X0168681Y0160972D01*
X0168798Y0161263D01*
X0168922Y0161552D01*
X0169052Y0161838D01*
X0169190Y0162120D01*
X0169335Y0162399D01*
X0169486Y0162674D01*
X0169644Y0162945D01*
X0169809Y0163212D01*
X0169980Y0163476D01*
X0170158Y0163734D01*
X0170342Y0163989D01*
X0170532Y0164239D01*
X0170728Y0164484D01*
X0170931Y0164724D01*
X0171139Y0164960D01*
X0171352Y0165190D01*
X0171572Y0165414D01*
X0171796Y0165634D01*
X0172026Y0165847D01*
X0172262Y0166055D01*
X0172502Y0166258D01*
X0172747Y0166454D01*
X0172997Y0166644D01*
X0173252Y0166828D01*
X0173510Y0167006D01*
X0173774Y0167177D01*
X0174041Y0167342D01*
X0174312Y0167500D01*
X0174587Y0167651D01*
X0174866Y0167796D01*
X0175148Y0167934D01*
X0175434Y0168064D01*
X0175723Y0168188D01*
X0176014Y0168305D01*
X0176308Y0168414D01*
X0176605Y0168516D01*
X0176905Y0168611D01*
X0177206Y0168699D01*
X0177510Y0168779D01*
X0177816Y0168851D01*
X0178123Y0168916D01*
X0178432Y0168974D01*
X0178742Y0169024D01*
X0179053Y0169066D01*
X0179365Y0169100D01*
X0179678Y0169127D01*
X0179991Y0169147D01*
X0180305Y0169158D01*
X0180619Y0169162D01*
X0180933Y0169158D01*
X0181247Y0169147D01*
X0181560Y0169127D01*
X0181873Y0169100D01*
X0182185Y0169066D01*
X0182496Y0169024D01*
X0182806Y0168974D01*
X0183115Y0168916D01*
X0183422Y0168851D01*
X0183728Y0168779D01*
X0184032Y0168699D01*
X0184333Y0168611D01*
X0184633Y0168516D01*
X0184930Y0168414D01*
X0185224Y0168305D01*
X0185515Y0168188D01*
X0185804Y0168064D01*
X0186090Y0167934D01*
X0186372Y0167796D01*
X0186651Y0167651D01*
X0186926Y0167500D01*
X0187197Y0167342D01*
X0187464Y0167177D01*
X0187728Y0167006D01*
X0187986Y0166828D01*
X0188241Y0166644D01*
X0188491Y0166454D01*
X0188736Y0166258D01*
X0188976Y0166055D01*
X0189212Y0165847D01*
X0189442Y0165634D01*
X0189666Y0165414D01*
X0189886Y0165190D01*
X0190099Y0164960D01*
X0190307Y0164724D01*
X0190510Y0164484D01*
X0190706Y0164239D01*
X0190896Y0163989D01*
X0191080Y0163734D01*
X0191258Y0163476D01*
X0191429Y0163212D01*
X0191594Y0162945D01*
X0191752Y0162674D01*
X0191903Y0162399D01*
X0192048Y0162120D01*
X0192186Y0161838D01*
X0192316Y0161552D01*
X0192440Y0161263D01*
X0192557Y0160972D01*
X0192666Y0160678D01*
X0192768Y0160381D01*
X0192863Y0160081D01*
X0192951Y0159780D01*
X0193031Y0159476D01*
X0193103Y0159170D01*
X0193168Y0158863D01*
X0193226Y0158554D01*
X0193276Y0158244D01*
X0193318Y0157933D01*
X0193352Y0157621D01*
X0193379Y0157308D01*
X0193399Y0156995D01*
X0193410Y0156681D01*
X0193414Y0156367D01*
X0193410Y0156053D01*
X0193399Y0155739D01*
X0193379Y0155426D01*
X0193352Y0155113D01*
X0193318Y0154801D01*
X0193276Y0154490D01*
X0193226Y0154180D01*
X0193168Y0153871D01*
X0193103Y0153564D01*
X0193031Y0153258D01*
X0192951Y0152954D01*
X0192863Y0152653D01*
X0192768Y0152353D01*
X0192666Y0152056D01*
X0192557Y0151762D01*
X0192440Y0151471D01*
X0192316Y0151182D01*
X0192186Y0150896D01*
X0192048Y0150614D01*
X0191903Y0150335D01*
X0191752Y0150060D01*
X0191594Y0149789D01*
X0191429Y0149522D01*
X0191258Y0149258D01*
X0191080Y0149000D01*
X0190896Y0148745D01*
X0190706Y0148495D01*
X0190510Y0148250D01*
X0190307Y0148010D01*
X0190099Y0147774D01*
X0189886Y0147544D01*
X0189666Y0147320D01*
X0189442Y0147100D01*
X0189212Y0146887D01*
X0188976Y0146679D01*
X0188736Y0146476D01*
X0188491Y0146280D01*
X0188241Y0146090D01*
X0187986Y0145906D01*
X0187728Y0145728D01*
X0187464Y0145557D01*
X0187197Y0145392D01*
X0186926Y0145234D01*
X0186651Y0145083D01*
X0186372Y0144938D01*
X0186090Y0144800D01*
X0185804Y0144670D01*
X0185515Y0144546D01*
X0185224Y0144429D01*
X0184930Y0144320D01*
X0184633Y0144218D01*
X0184333Y0144123D01*
X0184032Y0144035D01*
X0183728Y0143955D01*
X0183422Y0143883D01*
X0183115Y0143818D01*
X0182806Y0143760D01*
X0182496Y0143710D01*
X0182185Y0143668D01*
X0181873Y0143634D01*
X0181560Y0143607D01*
X0181247Y0143587D01*
X0180933Y0143576D01*
X0180619Y0143572D01*
X0180305Y0143576D01*
X0179991Y0143587D01*
X0179678Y0143607D01*
X0179365Y0143634D01*
X0179053Y0143668D01*
X0178742Y0143710D01*
X0178432Y0143760D01*
X0178123Y0143818D01*
X0177816Y0143883D01*
X0177510Y0143955D01*
X0177206Y0144035D01*
X0176905Y0144123D01*
X0176605Y0144218D01*
X0176308Y0144320D01*
X0176014Y0144429D01*
X0175723Y0144546D01*
X0175434Y0144670D01*
X0175148Y0144800D01*
X0174866Y0144938D01*
X0174587Y0145083D01*
X0174312Y0145234D01*
X0174041Y0145392D01*
X0173774Y0145557D01*
X0173510Y0145728D01*
X0173252Y0145906D01*
X0172997Y0146090D01*
X0172747Y0146280D01*
X0172502Y0146476D01*
X0172262Y0146679D01*
X0172026Y0146887D01*
X0171796Y0147100D01*
X0171572Y0147320D01*
X0171352Y0147544D01*
X0171139Y0147774D01*
X0170931Y0148010D01*
X0170728Y0148250D01*
X0170532Y0148495D01*
X0170342Y0148745D01*
X0170158Y0149000D01*
X0169980Y0149258D01*
X0169809Y0149522D01*
X0169644Y0149789D01*
X0169486Y0150060D01*
X0169335Y0150335D01*
X0169190Y0150614D01*
X0169052Y0150896D01*
X0168922Y0151182D01*
X0168798Y0151471D01*
X0168681Y0151762D01*
X0168572Y0152056D01*
X0168470Y0152353D01*
X0168375Y0152653D01*
X0168287Y0152954D01*
X0168207Y0153258D01*
X0168135Y0153564D01*
X0168070Y0153871D01*
X0168012Y0154180D01*
X0167962Y0154490D01*
X0167920Y0154801D01*
X0167886Y0155113D01*
X0167859Y0155426D01*
X0167839Y0155739D01*
X0167828Y0156053D01*
X0167824Y0156367D01*
X0173119Y0161367D02*
X0178119Y0161367D01*
X0167719Y0184867D02*
X0167719Y0197867D01*
X0193519Y0197867D01*
X0193519Y0184867D01*
X0167719Y0184867D01*
X0130619Y0218867D02*
X0130619Y0223867D01*
X0128119Y0226367D01*
X0123119Y0226367D01*
X0120619Y0223867D01*
X0120619Y0218867D01*
X0123119Y0216367D01*
X0128119Y0216367D01*
X0130619Y0218867D01*
X0102351Y0231367D02*
X0102351Y0248296D01*
X0102351Y0255737D02*
X0102351Y0269162D01*
X0068887Y0269162D01*
X0069083Y0269162D01*
X0068887Y0269162D02*
X0068887Y0227430D01*
X0086603Y0227430D01*
D14*
X0056919Y0160945D02*
X0056668Y0160945D01*
X0056418Y0160694D01*
X0056418Y0159944D01*
X0056919Y0159944D01*
X0057169Y0160194D01*
X0057169Y0160694D01*
X0056919Y0160945D01*
X0055918Y0160444D02*
X0056418Y0159944D01*
X0056418Y0159471D02*
X0056668Y0159221D01*
X0056668Y0158470D01*
X0057169Y0158470D02*
X0055668Y0158470D01*
X0055668Y0159221D01*
X0055918Y0159471D01*
X0056418Y0159471D01*
X0055918Y0160444D02*
X0055668Y0160945D01*
X0055668Y0157998D02*
X0055668Y0157498D01*
X0055668Y0157748D02*
X0056919Y0157748D01*
X0057169Y0157498D01*
X0057169Y0157247D01*
X0056919Y0156997D01*
X0052169Y0157261D02*
X0051418Y0157261D01*
X0051168Y0157011D01*
X0051168Y0156260D01*
X0052169Y0156260D01*
X0051668Y0155788D02*
X0051668Y0154787D01*
X0051418Y0154787D02*
X0051168Y0155037D01*
X0051168Y0155538D01*
X0051418Y0155788D01*
X0051668Y0155788D01*
X0052169Y0155538D02*
X0052169Y0155037D01*
X0051919Y0154787D01*
X0051418Y0154787D01*
X0050918Y0154315D02*
X0050668Y0154065D01*
X0050668Y0153564D01*
X0050918Y0153314D01*
X0051919Y0153314D01*
X0052169Y0153564D01*
X0052169Y0154065D01*
X0051919Y0154315D01*
X0052169Y0151359D02*
X0052169Y0150859D01*
X0052169Y0151109D02*
X0050668Y0151109D01*
X0050668Y0150859D01*
X0051168Y0150136D02*
X0051418Y0150386D01*
X0052169Y0150386D01*
X0052169Y0149636D01*
X0051919Y0149385D01*
X0051668Y0149636D01*
X0051668Y0150386D01*
X0051168Y0150136D02*
X0051168Y0149636D01*
X0051168Y0148904D02*
X0051168Y0148403D01*
X0050918Y0148653D02*
X0051919Y0148653D01*
X0052169Y0148904D01*
X0051668Y0147931D02*
X0051668Y0146930D01*
X0051418Y0146930D02*
X0051168Y0147180D01*
X0051168Y0147681D01*
X0051418Y0147931D01*
X0051668Y0147931D01*
X0052169Y0147681D02*
X0052169Y0147180D01*
X0051919Y0146930D01*
X0051418Y0146930D01*
X0051418Y0146457D02*
X0051668Y0146207D01*
X0051668Y0145457D01*
X0052169Y0145457D02*
X0050668Y0145457D01*
X0050668Y0146207D01*
X0050918Y0146457D01*
X0051418Y0146457D01*
X0051168Y0157734D02*
X0051168Y0158234D01*
X0050918Y0157984D02*
X0051919Y0157984D01*
X0052169Y0158234D01*
X0051919Y0158716D02*
X0051418Y0158716D01*
X0051168Y0158966D01*
X0051168Y0159467D01*
X0051418Y0159717D01*
X0051668Y0159717D01*
X0051668Y0158716D01*
X0051919Y0158716D02*
X0052169Y0158966D01*
X0052169Y0159467D01*
X0052169Y0160189D02*
X0051168Y0160189D01*
X0051668Y0160189D02*
X0051168Y0160690D01*
X0051168Y0160940D01*
X0051168Y0125940D02*
X0051168Y0125690D01*
X0051668Y0125189D01*
X0051168Y0125189D02*
X0052169Y0125189D01*
X0051919Y0124717D02*
X0052169Y0124467D01*
X0052169Y0123966D01*
X0051919Y0123716D01*
X0051418Y0123716D01*
X0051168Y0123966D01*
X0051168Y0124467D01*
X0051418Y0124717D01*
X0051919Y0124717D01*
X0052169Y0123234D02*
X0052169Y0122734D01*
X0052169Y0122984D02*
X0050668Y0122984D01*
X0050668Y0122734D01*
X0051168Y0122011D02*
X0051168Y0121511D01*
X0051418Y0121260D01*
X0051919Y0121260D01*
X0052169Y0121511D01*
X0052169Y0122011D01*
X0051919Y0122261D01*
X0051418Y0122261D01*
X0051168Y0122011D01*
X0050918Y0120788D02*
X0050668Y0120538D01*
X0050668Y0120037D01*
X0050918Y0119787D01*
X0051919Y0119787D01*
X0052169Y0120037D01*
X0052169Y0120538D01*
X0051919Y0120788D01*
X0052169Y0117832D02*
X0052169Y0117332D01*
X0052169Y0117582D02*
X0050668Y0117582D01*
X0050668Y0117332D01*
X0051168Y0116609D02*
X0051418Y0116859D01*
X0052169Y0116859D01*
X0052169Y0116109D01*
X0051919Y0115859D01*
X0051668Y0116109D01*
X0051668Y0116859D01*
X0051168Y0116609D02*
X0051168Y0116109D01*
X0051168Y0115377D02*
X0051168Y0114876D01*
X0050918Y0115127D02*
X0051919Y0115127D01*
X0052169Y0115377D01*
X0051668Y0114404D02*
X0051668Y0113403D01*
X0051418Y0113403D02*
X0051168Y0113653D01*
X0051168Y0114154D01*
X0051418Y0114404D01*
X0051668Y0114404D01*
X0052169Y0114154D02*
X0052169Y0113653D01*
X0051919Y0113403D01*
X0051418Y0113403D01*
X0051418Y0112931D02*
X0051668Y0112681D01*
X0051668Y0111930D01*
X0052169Y0111930D02*
X0050668Y0111930D01*
X0050668Y0112681D01*
X0050918Y0112931D01*
X0051418Y0112931D01*
X0055668Y0122498D02*
X0055668Y0122998D01*
X0055668Y0122748D02*
X0056919Y0122748D01*
X0057169Y0122498D01*
X0057169Y0122247D01*
X0056919Y0121997D01*
X0057169Y0123470D02*
X0055668Y0123470D01*
X0055668Y0124221D01*
X0055918Y0124471D01*
X0056418Y0124471D01*
X0056668Y0124221D01*
X0056668Y0123470D01*
X0056668Y0124944D02*
X0056418Y0125194D01*
X0056418Y0125694D01*
X0056668Y0125945D01*
X0056919Y0125945D01*
X0057169Y0125694D01*
X0057169Y0125194D01*
X0056919Y0124944D01*
X0056668Y0124944D01*
X0056418Y0125194D02*
X0056168Y0124944D01*
X0055918Y0124944D01*
X0055668Y0125194D01*
X0055668Y0125694D01*
X0055918Y0125945D01*
X0056168Y0125945D01*
X0056418Y0125694D01*
X0056168Y0055945D02*
X0055918Y0055945D01*
X0055668Y0055694D01*
X0055668Y0055194D01*
X0055918Y0054944D01*
X0055668Y0053971D02*
X0057169Y0053971D01*
X0057169Y0054471D02*
X0057169Y0053470D01*
X0056668Y0052748D02*
X0056668Y0051997D01*
X0057169Y0051997D02*
X0055668Y0051997D01*
X0055668Y0052748D01*
X0055918Y0052998D01*
X0056418Y0052998D01*
X0056668Y0052748D01*
X0056168Y0053470D02*
X0055668Y0053971D01*
X0057169Y0054944D02*
X0056168Y0055945D01*
X0057169Y0055945D02*
X0057169Y0054944D01*
X0056919Y0051275D02*
X0055668Y0051275D01*
X0055668Y0051525D02*
X0055668Y0051024D01*
X0056919Y0051275D02*
X0057169Y0051024D01*
X0057169Y0050774D01*
X0056919Y0050524D01*
X0052169Y0050297D02*
X0052169Y0049546D01*
X0051919Y0049296D01*
X0051418Y0049296D01*
X0051168Y0049546D01*
X0051168Y0050297D01*
X0050668Y0050769D02*
X0052169Y0050769D01*
X0051668Y0050769D02*
X0051168Y0051520D01*
X0051668Y0050769D02*
X0052169Y0051520D01*
X0051919Y0053470D02*
X0052169Y0053721D01*
X0052169Y0054221D01*
X0051919Y0054471D01*
X0051418Y0054471D01*
X0051168Y0054221D01*
X0051168Y0053971D01*
X0051418Y0053470D01*
X0050668Y0053470D01*
X0050668Y0054471D01*
X0050668Y0054944D02*
X0051668Y0054944D01*
X0052169Y0055444D01*
X0051668Y0055944D01*
X0050668Y0055944D01*
X0051168Y0048824D02*
X0052169Y0048824D01*
X0052169Y0048073D01*
X0051919Y0047823D01*
X0051168Y0047823D01*
X0051168Y0047351D02*
X0051418Y0047100D01*
X0051418Y0046350D01*
X0051418Y0047100D02*
X0051668Y0047351D01*
X0051919Y0047351D01*
X0052169Y0047100D01*
X0052169Y0046350D01*
X0050668Y0046350D01*
X0050668Y0047100D01*
X0050918Y0047351D01*
X0051168Y0047351D01*
M02*
