G75*
%MOIN*%
%OFA0B0*%
%FSLAX25Y25*%
%IPPOS*%
%LPD*%
%AMOC8*
5,1,8,0,0,1.08239X$1,22.5*
%
%ADD10C,0.05200*%
%ADD11C,0.07874*%
%ADD12R,0.08000X0.08000*%
%ADD13C,0.08000*%
%ADD14C,0.07400*%
%ADD15R,0.07400X0.07400*%
%ADD16C,0.06500*%
%ADD17R,0.06500X0.06500*%
%ADD18OC8,0.07400*%
%ADD19C,0.01600*%
%ADD20C,0.01000*%
%ADD21C,0.04000*%
%ADD22C,0.02400*%
D10*
X0123019Y0056367D02*
X0128219Y0056367D01*
X0128219Y0066367D02*
X0123019Y0066367D01*
X0123019Y0076367D02*
X0128219Y0076367D01*
X0128219Y0086367D02*
X0123019Y0086367D01*
X0123019Y0096367D02*
X0128219Y0096367D01*
X0128219Y0106367D02*
X0123019Y0106367D01*
X0123019Y0116367D02*
X0128219Y0116367D01*
X0128219Y0126367D02*
X0123019Y0126367D01*
X0123019Y0136367D02*
X0128219Y0136367D01*
X0128219Y0146367D02*
X0123019Y0146367D01*
X0123019Y0156367D02*
X0128219Y0156367D01*
X0128219Y0166367D02*
X0123019Y0166367D01*
X0123019Y0176367D02*
X0128219Y0176367D01*
X0128219Y0186367D02*
X0123019Y0186367D01*
X0153019Y0186367D02*
X0158219Y0186367D01*
X0158219Y0176367D02*
X0153019Y0176367D01*
X0153019Y0166367D02*
X0158219Y0166367D01*
X0158219Y0156367D02*
X0153019Y0156367D01*
X0153019Y0146367D02*
X0158219Y0146367D01*
X0158219Y0136367D02*
X0153019Y0136367D01*
X0153019Y0126367D02*
X0158219Y0126367D01*
X0158219Y0116367D02*
X0153019Y0116367D01*
X0153019Y0106367D02*
X0158219Y0106367D01*
X0158219Y0096367D02*
X0153019Y0096367D01*
X0153019Y0086367D02*
X0158219Y0086367D01*
X0158219Y0076367D02*
X0153019Y0076367D01*
X0153019Y0066367D02*
X0158219Y0066367D01*
X0158219Y0056367D02*
X0153019Y0056367D01*
D11*
X0099398Y0227036D02*
X0091524Y0227036D01*
X0075776Y0234910D02*
X0075776Y0242784D01*
X0091524Y0251839D02*
X0099398Y0251839D01*
D12*
X0045619Y0157067D03*
X0045619Y0122067D03*
X0045619Y0087067D03*
X0045619Y0052067D03*
D13*
X0045619Y0036887D03*
X0045619Y0071887D03*
X0045619Y0106887D03*
X0045619Y0141887D03*
D14*
X0045119Y0171367D03*
X0046119Y0181367D03*
X0045119Y0191367D03*
X0045619Y0216367D03*
X0045619Y0226367D03*
X0045619Y0236367D03*
X0125619Y0221367D03*
X0215119Y0201367D03*
X0216119Y0211367D03*
X0216119Y0191367D03*
X0216119Y0166367D03*
X0215119Y0156367D03*
X0216119Y0146367D03*
X0215119Y0121367D03*
X0216119Y0111367D03*
X0215119Y0086367D03*
X0216119Y0076367D03*
X0110619Y0076367D03*
X0110619Y0056367D03*
X0110619Y0036367D03*
X0070619Y0036367D03*
X0070619Y0056367D03*
X0070619Y0076367D03*
X0215119Y0246367D03*
X0216119Y0236367D03*
D15*
X0215119Y0226367D03*
X0215119Y0181367D03*
X0215119Y0136367D03*
X0215119Y0101367D03*
X0215119Y0066367D03*
X0046119Y0201367D03*
X0045619Y0246367D03*
D16*
X0080619Y0201367D03*
X0100619Y0201367D03*
X0100461Y0176367D03*
X0100461Y0156367D03*
X0080776Y0156367D03*
X0080776Y0176367D03*
X0085619Y0131367D03*
X0085619Y0101367D03*
X0175619Y0121367D03*
X0175619Y0156367D03*
D17*
X0185619Y0156367D03*
X0185619Y0121367D03*
X0095619Y0131367D03*
X0095619Y0101367D03*
D18*
X0175619Y0051367D03*
X0185619Y0051367D03*
X0195619Y0051367D03*
X0195619Y0041367D03*
X0185619Y0041367D03*
X0175619Y0041367D03*
D19*
X0035419Y0031167D02*
X0035419Y0266528D01*
X0040367Y0266528D01*
X0037878Y0264039D01*
X0036488Y0260683D01*
X0036488Y0257051D01*
X0037878Y0253695D01*
X0040447Y0251126D01*
X0040451Y0251125D01*
X0040242Y0250762D01*
X0040119Y0250304D01*
X0040119Y0246567D01*
X0045419Y0246567D01*
X0045419Y0246167D01*
X0040119Y0246167D01*
X0040119Y0242430D01*
X0040242Y0241972D01*
X0040479Y0241562D01*
X0040814Y0241227D01*
X0041224Y0240990D01*
X0041682Y0240867D01*
X0042633Y0240867D01*
X0042617Y0240860D01*
X0041126Y0239369D01*
X0040319Y0237421D01*
X0040319Y0235313D01*
X0041126Y0233365D01*
X0042617Y0231874D01*
X0043840Y0231367D01*
X0042617Y0230860D01*
X0041126Y0229369D01*
X0040319Y0227421D01*
X0040319Y0225313D01*
X0041126Y0223365D01*
X0042617Y0221874D01*
X0043840Y0221367D01*
X0042617Y0220860D01*
X0041126Y0219369D01*
X0040319Y0217421D01*
X0040319Y0215313D01*
X0041126Y0213365D01*
X0042617Y0211874D01*
X0044565Y0211067D01*
X0046673Y0211067D01*
X0048621Y0211874D01*
X0050112Y0213365D01*
X0050919Y0215313D01*
X0050919Y0217421D01*
X0050112Y0219369D01*
X0048621Y0220860D01*
X0047397Y0221367D01*
X0048621Y0221874D01*
X0050112Y0223365D01*
X0050919Y0225313D01*
X0050919Y0227421D01*
X0050112Y0229369D01*
X0048621Y0230860D01*
X0047397Y0231367D01*
X0048621Y0231874D01*
X0050112Y0233365D01*
X0050919Y0235313D01*
X0050919Y0237421D01*
X0050112Y0239369D01*
X0048621Y0240860D01*
X0048604Y0240867D01*
X0049556Y0240867D01*
X0050014Y0240990D01*
X0050424Y0241227D01*
X0050759Y0241562D01*
X0050996Y0241972D01*
X0051119Y0242430D01*
X0051119Y0246167D01*
X0045819Y0246167D01*
X0045819Y0246567D01*
X0051119Y0246567D01*
X0051119Y0250304D01*
X0050996Y0250762D01*
X0050787Y0251125D01*
X0050791Y0251126D01*
X0053360Y0253695D01*
X0054750Y0257051D01*
X0054750Y0260683D01*
X0053360Y0264039D01*
X0050871Y0266528D01*
X0205367Y0266528D01*
X0202878Y0264039D01*
X0201488Y0260683D01*
X0201488Y0257051D01*
X0202878Y0253695D01*
X0205447Y0251126D01*
X0208803Y0249736D01*
X0210993Y0249736D01*
X0210626Y0249369D01*
X0209819Y0247421D01*
X0209819Y0245313D01*
X0210626Y0243365D01*
X0212117Y0241874D01*
X0213840Y0241160D01*
X0213117Y0240860D01*
X0211626Y0239369D01*
X0211252Y0238467D01*
X0192249Y0238467D01*
X0143519Y0189737D01*
X0143519Y0186058D01*
X0142658Y0186919D01*
X0141335Y0187467D01*
X0139903Y0187467D01*
X0138580Y0186919D01*
X0137719Y0186058D01*
X0137719Y0187237D01*
X0136489Y0188467D01*
X0131895Y0188467D01*
X0131779Y0188746D01*
X0130598Y0189928D01*
X0129054Y0190567D01*
X0122183Y0190567D01*
X0120640Y0189928D01*
X0119458Y0188746D01*
X0118819Y0187202D01*
X0118819Y0185531D01*
X0119458Y0183988D01*
X0120640Y0182806D01*
X0122183Y0182167D01*
X0129054Y0182167D01*
X0130598Y0182806D01*
X0131779Y0183988D01*
X0131895Y0184267D01*
X0133519Y0184267D01*
X0133519Y0054737D01*
X0117249Y0038467D01*
X0115486Y0038467D01*
X0115112Y0039369D01*
X0113621Y0040860D01*
X0111673Y0041667D01*
X0109565Y0041667D01*
X0107617Y0040860D01*
X0106126Y0039369D01*
X0105319Y0037421D01*
X0105319Y0035313D01*
X0106126Y0033365D01*
X0107617Y0031874D01*
X0109323Y0031167D01*
X0071914Y0031167D01*
X0073621Y0031874D01*
X0075112Y0033365D01*
X0075486Y0034267D01*
X0096489Y0034267D01*
X0097719Y0035497D01*
X0097719Y0096517D01*
X0099532Y0096517D01*
X0100469Y0097454D01*
X0100469Y0105280D01*
X0099532Y0106217D01*
X0097719Y0106217D01*
X0097719Y0126517D01*
X0099532Y0126517D01*
X0100469Y0127454D01*
X0100469Y0135280D01*
X0099532Y0136217D01*
X0091706Y0136217D01*
X0090769Y0135280D01*
X0090769Y0127454D01*
X0091706Y0126517D01*
X0093519Y0126517D01*
X0093519Y0106217D01*
X0091706Y0106217D01*
X0090769Y0105280D01*
X0090769Y0097454D01*
X0091706Y0096517D01*
X0093519Y0096517D01*
X0093519Y0038467D01*
X0075486Y0038467D01*
X0075112Y0039369D01*
X0073621Y0040860D01*
X0071673Y0041667D01*
X0069565Y0041667D01*
X0067617Y0040860D01*
X0066126Y0039369D01*
X0065319Y0037421D01*
X0065319Y0035313D01*
X0066126Y0033365D01*
X0067617Y0031874D01*
X0069323Y0031167D01*
X0035419Y0031167D01*
X0035419Y0031906D02*
X0043012Y0031906D01*
X0042447Y0032140D02*
X0044505Y0031287D01*
X0046733Y0031287D01*
X0048791Y0032140D01*
X0050366Y0033715D01*
X0051219Y0035773D01*
X0051219Y0038001D01*
X0050366Y0040060D01*
X0048791Y0041635D01*
X0046733Y0042487D01*
X0044505Y0042487D01*
X0042447Y0041635D01*
X0040871Y0040060D01*
X0040019Y0038001D01*
X0040019Y0035773D01*
X0040871Y0033715D01*
X0042447Y0032140D01*
X0041082Y0033504D02*
X0035419Y0033504D01*
X0035419Y0035103D02*
X0040297Y0035103D01*
X0040019Y0036701D02*
X0035419Y0036701D01*
X0035419Y0038300D02*
X0040143Y0038300D01*
X0040805Y0039898D02*
X0035419Y0039898D01*
X0035419Y0041497D02*
X0042309Y0041497D01*
X0041382Y0046267D02*
X0045238Y0046267D01*
X0045238Y0051686D01*
X0046000Y0051686D01*
X0046000Y0052448D01*
X0051419Y0052448D01*
X0051419Y0056304D01*
X0051296Y0056762D01*
X0051059Y0057172D01*
X0050724Y0057507D01*
X0050314Y0057744D01*
X0049856Y0057867D01*
X0046000Y0057867D01*
X0046000Y0052448D01*
X0045238Y0052448D01*
X0045238Y0057867D01*
X0041382Y0057867D01*
X0040924Y0057744D01*
X0040514Y0057507D01*
X0040179Y0057172D01*
X0039942Y0056762D01*
X0039819Y0056304D01*
X0039819Y0052448D01*
X0045238Y0052448D01*
X0045238Y0051686D01*
X0039819Y0051686D01*
X0039819Y0047830D01*
X0039942Y0047372D01*
X0040179Y0046962D01*
X0040514Y0046627D01*
X0040924Y0046390D01*
X0041382Y0046267D01*
X0041286Y0046292D02*
X0035419Y0046292D01*
X0035419Y0044694D02*
X0093519Y0044694D01*
X0093519Y0046292D02*
X0049951Y0046292D01*
X0049856Y0046267D02*
X0050314Y0046390D01*
X0050724Y0046627D01*
X0051059Y0046962D01*
X0051296Y0047372D01*
X0051419Y0047830D01*
X0051419Y0051686D01*
X0046000Y0051686D01*
X0046000Y0046267D01*
X0049856Y0046267D01*
X0051419Y0047891D02*
X0093519Y0047891D01*
X0093519Y0049490D02*
X0051419Y0049490D01*
X0051419Y0051088D02*
X0069514Y0051088D01*
X0069565Y0051067D02*
X0071673Y0051067D01*
X0073621Y0051874D01*
X0075112Y0053365D01*
X0075919Y0055313D01*
X0075919Y0057421D01*
X0075112Y0059369D01*
X0073621Y0060860D01*
X0071673Y0061667D01*
X0069565Y0061667D01*
X0067617Y0060860D01*
X0066126Y0059369D01*
X0065319Y0057421D01*
X0065319Y0055313D01*
X0066126Y0053365D01*
X0067617Y0051874D01*
X0069565Y0051067D01*
X0071724Y0051088D02*
X0093519Y0051088D01*
X0093519Y0052687D02*
X0074434Y0052687D01*
X0075493Y0054285D02*
X0093519Y0054285D01*
X0093519Y0055884D02*
X0075919Y0055884D01*
X0075894Y0057482D02*
X0093519Y0057482D01*
X0093519Y0059081D02*
X0075232Y0059081D01*
X0073802Y0060679D02*
X0093519Y0060679D01*
X0093519Y0062278D02*
X0035419Y0062278D01*
X0035419Y0063876D02*
X0093519Y0063876D01*
X0093519Y0065475D02*
X0035419Y0065475D01*
X0035419Y0067073D02*
X0042608Y0067073D01*
X0042447Y0067140D02*
X0044505Y0066287D01*
X0046733Y0066287D01*
X0048791Y0067140D01*
X0050366Y0068715D01*
X0051219Y0070773D01*
X0051219Y0073001D01*
X0051065Y0073373D01*
X0062993Y0085301D01*
X0063419Y0086330D01*
X0063419Y0091924D01*
X0062993Y0092953D01*
X0062205Y0093741D01*
X0050912Y0105033D01*
X0051219Y0105773D01*
X0051219Y0108001D01*
X0051065Y0108373D01*
X0062993Y0120301D01*
X0063419Y0121330D01*
X0063419Y0126924D01*
X0062993Y0127953D01*
X0062205Y0128741D01*
X0050912Y0140033D01*
X0051219Y0140773D01*
X0051219Y0143001D01*
X0051065Y0143373D01*
X0067993Y0160301D01*
X0068419Y0161330D01*
X0068419Y0213567D01*
X0081176Y0213567D01*
X0082205Y0213993D01*
X0082993Y0214781D01*
X0089920Y0221708D01*
X0090423Y0221499D01*
X0100500Y0221499D01*
X0102535Y0222342D01*
X0104092Y0223900D01*
X0104935Y0225935D01*
X0104935Y0228138D01*
X0104092Y0230173D01*
X0102535Y0231730D01*
X0100500Y0232573D01*
X0090423Y0232573D01*
X0088388Y0231730D01*
X0086830Y0230173D01*
X0085987Y0228138D01*
X0085987Y0225935D01*
X0086058Y0225765D01*
X0079459Y0219167D01*
X0065062Y0219167D01*
X0064033Y0218741D01*
X0063245Y0217953D01*
X0062819Y0216924D01*
X0062819Y0163047D01*
X0047105Y0147333D01*
X0046733Y0147487D01*
X0044505Y0147487D01*
X0042447Y0146635D01*
X0040871Y0145060D01*
X0040019Y0143001D01*
X0040019Y0140773D01*
X0040871Y0138715D01*
X0042447Y0137140D01*
X0044505Y0136287D01*
X0046733Y0136287D01*
X0046737Y0136289D01*
X0057819Y0125207D01*
X0057819Y0123047D01*
X0047105Y0112333D01*
X0046733Y0112487D01*
X0044505Y0112487D01*
X0042447Y0111635D01*
X0040871Y0110060D01*
X0040019Y0108001D01*
X0040019Y0105773D01*
X0040871Y0103715D01*
X0042447Y0102140D01*
X0044505Y0101287D01*
X0046733Y0101287D01*
X0046737Y0101289D01*
X0057819Y0090207D01*
X0057819Y0088047D01*
X0047105Y0077333D01*
X0046733Y0077487D01*
X0044505Y0077487D01*
X0042447Y0076635D01*
X0040871Y0075060D01*
X0040019Y0073001D01*
X0040019Y0070773D01*
X0040871Y0068715D01*
X0042447Y0067140D01*
X0040915Y0068672D02*
X0035419Y0068672D01*
X0035419Y0070270D02*
X0040227Y0070270D01*
X0040019Y0071869D02*
X0035419Y0071869D01*
X0035419Y0073467D02*
X0040212Y0073467D01*
X0040878Y0075066D02*
X0035419Y0075066D01*
X0035419Y0076664D02*
X0042518Y0076664D01*
X0041382Y0081267D02*
X0045238Y0081267D01*
X0045238Y0086686D01*
X0046000Y0086686D01*
X0046000Y0087448D01*
X0051419Y0087448D01*
X0051419Y0091304D01*
X0051296Y0091762D01*
X0051059Y0092172D01*
X0050724Y0092507D01*
X0050314Y0092744D01*
X0049856Y0092867D01*
X0046000Y0092867D01*
X0046000Y0087448D01*
X0045238Y0087448D01*
X0045238Y0092867D01*
X0041382Y0092867D01*
X0040924Y0092744D01*
X0040514Y0092507D01*
X0040179Y0092172D01*
X0039942Y0091762D01*
X0039819Y0091304D01*
X0039819Y0087448D01*
X0045238Y0087448D01*
X0045238Y0086686D01*
X0039819Y0086686D01*
X0039819Y0082830D01*
X0039942Y0082372D01*
X0040179Y0081962D01*
X0040514Y0081627D01*
X0040924Y0081390D01*
X0041382Y0081267D01*
X0040803Y0081460D02*
X0035419Y0081460D01*
X0035419Y0083058D02*
X0039819Y0083058D01*
X0039819Y0084657D02*
X0035419Y0084657D01*
X0035419Y0086255D02*
X0039819Y0086255D01*
X0039819Y0087854D02*
X0035419Y0087854D01*
X0035419Y0089452D02*
X0039819Y0089452D01*
X0039819Y0091051D02*
X0035419Y0091051D01*
X0035419Y0092649D02*
X0040760Y0092649D01*
X0045238Y0092649D02*
X0046000Y0092649D01*
X0046000Y0091051D02*
X0045238Y0091051D01*
X0045238Y0089452D02*
X0046000Y0089452D01*
X0046000Y0087854D02*
X0045238Y0087854D01*
X0046000Y0086686D02*
X0051419Y0086686D01*
X0051419Y0082830D01*
X0051296Y0082372D01*
X0051059Y0081962D01*
X0050724Y0081627D01*
X0050314Y0081390D01*
X0049856Y0081267D01*
X0046000Y0081267D01*
X0046000Y0086686D01*
X0046000Y0086255D02*
X0045238Y0086255D01*
X0045238Y0084657D02*
X0046000Y0084657D01*
X0046000Y0083058D02*
X0045238Y0083058D01*
X0045238Y0081460D02*
X0046000Y0081460D01*
X0048034Y0078263D02*
X0035419Y0078263D01*
X0035419Y0079861D02*
X0049633Y0079861D01*
X0050435Y0081460D02*
X0051231Y0081460D01*
X0051419Y0083058D02*
X0052830Y0083058D01*
X0051419Y0084657D02*
X0054428Y0084657D01*
X0056027Y0086255D02*
X0051419Y0086255D01*
X0051419Y0087854D02*
X0057626Y0087854D01*
X0057819Y0089452D02*
X0051419Y0089452D01*
X0051419Y0091051D02*
X0056975Y0091051D01*
X0055377Y0092649D02*
X0050478Y0092649D01*
X0053778Y0094248D02*
X0035419Y0094248D01*
X0035419Y0095846D02*
X0052180Y0095846D01*
X0050581Y0097445D02*
X0035419Y0097445D01*
X0035419Y0099043D02*
X0048983Y0099043D01*
X0047384Y0100642D02*
X0035419Y0100642D01*
X0035419Y0102240D02*
X0042346Y0102240D01*
X0040820Y0103839D02*
X0035419Y0103839D01*
X0035419Y0105437D02*
X0040158Y0105437D01*
X0040019Y0107036D02*
X0035419Y0107036D01*
X0035419Y0108634D02*
X0040281Y0108634D01*
X0041045Y0110233D02*
X0035419Y0110233D01*
X0035419Y0111831D02*
X0042921Y0111831D01*
X0041382Y0116267D02*
X0045238Y0116267D01*
X0045238Y0121686D01*
X0046000Y0121686D01*
X0046000Y0122448D01*
X0051419Y0122448D01*
X0051419Y0126304D01*
X0051296Y0126762D01*
X0051059Y0127172D01*
X0050724Y0127507D01*
X0050314Y0127744D01*
X0049856Y0127867D01*
X0046000Y0127867D01*
X0046000Y0122448D01*
X0045238Y0122448D01*
X0045238Y0127867D01*
X0041382Y0127867D01*
X0040924Y0127744D01*
X0040514Y0127507D01*
X0040179Y0127172D01*
X0039942Y0126762D01*
X0039819Y0126304D01*
X0039819Y0122448D01*
X0045238Y0122448D01*
X0045238Y0121686D01*
X0039819Y0121686D01*
X0039819Y0117830D01*
X0039942Y0117372D01*
X0040179Y0116962D01*
X0040514Y0116627D01*
X0040924Y0116390D01*
X0041382Y0116267D01*
X0040513Y0116627D02*
X0035419Y0116627D01*
X0035419Y0118226D02*
X0039819Y0118226D01*
X0039819Y0119824D02*
X0035419Y0119824D01*
X0035419Y0121423D02*
X0039819Y0121423D01*
X0039819Y0123021D02*
X0035419Y0123021D01*
X0035419Y0124620D02*
X0039819Y0124620D01*
X0039819Y0126218D02*
X0035419Y0126218D01*
X0035419Y0127817D02*
X0041194Y0127817D01*
X0045238Y0127817D02*
X0046000Y0127817D01*
X0046000Y0126218D02*
X0045238Y0126218D01*
X0045238Y0124620D02*
X0046000Y0124620D01*
X0046000Y0123021D02*
X0045238Y0123021D01*
X0046000Y0121686D02*
X0051419Y0121686D01*
X0051419Y0117830D01*
X0051296Y0117372D01*
X0051059Y0116962D01*
X0050724Y0116627D01*
X0050314Y0116390D01*
X0049856Y0116267D01*
X0046000Y0116267D01*
X0046000Y0121686D01*
X0046000Y0121423D02*
X0045238Y0121423D01*
X0045238Y0119824D02*
X0046000Y0119824D01*
X0046000Y0118226D02*
X0045238Y0118226D01*
X0045238Y0116627D02*
X0046000Y0116627D01*
X0048202Y0113430D02*
X0035419Y0113430D01*
X0035419Y0115028D02*
X0049800Y0115028D01*
X0050725Y0116627D02*
X0051399Y0116627D01*
X0051419Y0118226D02*
X0052997Y0118226D01*
X0051419Y0119824D02*
X0054596Y0119824D01*
X0056194Y0121423D02*
X0051419Y0121423D01*
X0051419Y0123021D02*
X0057793Y0123021D01*
X0057819Y0124620D02*
X0051419Y0124620D01*
X0051419Y0126218D02*
X0056808Y0126218D01*
X0055209Y0127817D02*
X0050044Y0127817D01*
X0052012Y0131014D02*
X0035419Y0131014D01*
X0035419Y0132612D02*
X0050414Y0132612D01*
X0048815Y0134211D02*
X0035419Y0134211D01*
X0035419Y0135809D02*
X0047217Y0135809D01*
X0051939Y0139006D02*
X0101019Y0139006D01*
X0101019Y0137408D02*
X0053538Y0137408D01*
X0055136Y0135809D02*
X0083214Y0135809D01*
X0082972Y0135686D02*
X0082329Y0135219D01*
X0081767Y0134657D01*
X0081300Y0134014D01*
X0080939Y0133305D01*
X0080693Y0132549D01*
X0080569Y0131764D01*
X0080569Y0131367D01*
X0085619Y0131367D01*
X0090669Y0131367D01*
X0090669Y0131764D01*
X0090545Y0132549D01*
X0090299Y0133305D01*
X0089938Y0134014D01*
X0089471Y0134657D01*
X0088909Y0135219D01*
X0088266Y0135686D01*
X0087557Y0136047D01*
X0086801Y0136293D01*
X0086016Y0136417D01*
X0085619Y0136417D01*
X0085619Y0131367D01*
X0085619Y0131367D01*
X0085619Y0131367D01*
X0090669Y0131367D01*
X0090669Y0130969D01*
X0090545Y0130184D01*
X0090299Y0129428D01*
X0089938Y0128720D01*
X0089471Y0128077D01*
X0088909Y0127515D01*
X0088266Y0127048D01*
X0087557Y0126687D01*
X0086801Y0126441D01*
X0086016Y0126317D01*
X0085619Y0126317D01*
X0085619Y0131367D01*
X0085619Y0136417D01*
X0085221Y0136417D01*
X0084436Y0136293D01*
X0083680Y0136047D01*
X0082972Y0135686D01*
X0081443Y0134211D02*
X0056735Y0134211D01*
X0058334Y0132612D02*
X0080714Y0132612D01*
X0080569Y0131367D02*
X0080569Y0130969D01*
X0080693Y0130184D01*
X0080939Y0129428D01*
X0081300Y0128720D01*
X0081767Y0128077D01*
X0082329Y0127515D01*
X0082972Y0127048D01*
X0083680Y0126687D01*
X0084436Y0126441D01*
X0085221Y0126317D01*
X0085619Y0126317D01*
X0085619Y0131367D01*
X0085619Y0131367D01*
X0085619Y0131367D01*
X0080569Y0131367D01*
X0080569Y0131014D02*
X0059932Y0131014D01*
X0061531Y0129415D02*
X0080946Y0129415D01*
X0082027Y0127817D02*
X0063049Y0127817D01*
X0063419Y0126218D02*
X0093519Y0126218D01*
X0093519Y0124620D02*
X0063419Y0124620D01*
X0063419Y0123021D02*
X0093519Y0123021D01*
X0093519Y0121423D02*
X0063419Y0121423D01*
X0062515Y0119824D02*
X0093519Y0119824D01*
X0093519Y0118226D02*
X0060917Y0118226D01*
X0059318Y0116627D02*
X0093519Y0116627D01*
X0093519Y0115028D02*
X0057720Y0115028D01*
X0056121Y0113430D02*
X0093519Y0113430D01*
X0093519Y0111831D02*
X0054523Y0111831D01*
X0052924Y0110233D02*
X0093519Y0110233D01*
X0093519Y0108634D02*
X0051326Y0108634D01*
X0051219Y0107036D02*
X0093519Y0107036D01*
X0090927Y0105437D02*
X0088608Y0105437D01*
X0088909Y0105219D02*
X0088266Y0105686D01*
X0087557Y0106047D01*
X0086801Y0106293D01*
X0086016Y0106417D01*
X0085619Y0106417D01*
X0085619Y0101367D01*
X0090669Y0101367D01*
X0090669Y0101764D01*
X0090545Y0102549D01*
X0090299Y0103305D01*
X0089938Y0104014D01*
X0089471Y0104657D01*
X0088909Y0105219D01*
X0090027Y0103839D02*
X0090769Y0103839D01*
X0090769Y0102240D02*
X0090593Y0102240D01*
X0090669Y0101367D02*
X0085619Y0101367D01*
X0085619Y0101367D01*
X0085619Y0101367D01*
X0085619Y0106417D01*
X0085221Y0106417D01*
X0084436Y0106293D01*
X0083680Y0106047D01*
X0082972Y0105686D01*
X0082329Y0105219D01*
X0081767Y0104657D01*
X0081300Y0104014D01*
X0080939Y0103305D01*
X0080693Y0102549D01*
X0080569Y0101764D01*
X0080569Y0101367D01*
X0085619Y0101367D01*
X0085619Y0096317D01*
X0086016Y0096317D01*
X0086801Y0096441D01*
X0087557Y0096687D01*
X0088266Y0097048D01*
X0088909Y0097515D01*
X0089471Y0098077D01*
X0089938Y0098720D01*
X0090299Y0099428D01*
X0090545Y0100184D01*
X0090669Y0100969D01*
X0090669Y0101367D01*
X0090617Y0100642D02*
X0090769Y0100642D01*
X0090769Y0099043D02*
X0090103Y0099043D01*
X0090778Y0097445D02*
X0088812Y0097445D01*
X0085619Y0097445D02*
X0085619Y0097445D01*
X0085619Y0096317D02*
X0085619Y0101367D01*
X0085619Y0101367D01*
X0085619Y0101367D01*
X0080569Y0101367D01*
X0080569Y0100969D01*
X0080693Y0100184D01*
X0080939Y0099428D01*
X0081300Y0098720D01*
X0081767Y0098077D01*
X0082329Y0097515D01*
X0082972Y0097048D01*
X0083680Y0096687D01*
X0084436Y0096441D01*
X0085221Y0096317D01*
X0085619Y0096317D01*
X0085619Y0099043D02*
X0085619Y0099043D01*
X0085619Y0100642D02*
X0085619Y0100642D01*
X0085619Y0102240D02*
X0085619Y0102240D01*
X0085619Y0103839D02*
X0085619Y0103839D01*
X0085619Y0105437D02*
X0085619Y0105437D01*
X0082630Y0105437D02*
X0051080Y0105437D01*
X0052107Y0103839D02*
X0081211Y0103839D01*
X0080644Y0102240D02*
X0053705Y0102240D01*
X0055304Y0100642D02*
X0080621Y0100642D01*
X0081135Y0099043D02*
X0056902Y0099043D01*
X0058501Y0097445D02*
X0082426Y0097445D01*
X0093519Y0095846D02*
X0060099Y0095846D01*
X0061698Y0094248D02*
X0093519Y0094248D01*
X0093519Y0092649D02*
X0063118Y0092649D01*
X0063419Y0091051D02*
X0093519Y0091051D01*
X0093519Y0089452D02*
X0063419Y0089452D01*
X0063419Y0087854D02*
X0093519Y0087854D01*
X0093519Y0086255D02*
X0063388Y0086255D01*
X0062348Y0084657D02*
X0093519Y0084657D01*
X0093519Y0083058D02*
X0060750Y0083058D01*
X0059151Y0081460D02*
X0069065Y0081460D01*
X0069565Y0081667D02*
X0067617Y0080860D01*
X0066126Y0079369D01*
X0065319Y0077421D01*
X0065319Y0075313D01*
X0066126Y0073365D01*
X0067617Y0071874D01*
X0069565Y0071067D01*
X0071673Y0071067D01*
X0073621Y0071874D01*
X0075112Y0073365D01*
X0075919Y0075313D01*
X0075919Y0077421D01*
X0075112Y0079369D01*
X0073621Y0080860D01*
X0071673Y0081667D01*
X0069565Y0081667D01*
X0072173Y0081460D02*
X0093519Y0081460D01*
X0093519Y0079861D02*
X0074620Y0079861D01*
X0075570Y0078263D02*
X0093519Y0078263D01*
X0093519Y0076664D02*
X0075919Y0076664D01*
X0075817Y0075066D02*
X0093519Y0075066D01*
X0093519Y0073467D02*
X0075154Y0073467D01*
X0073609Y0071869D02*
X0093519Y0071869D01*
X0093519Y0070270D02*
X0051010Y0070270D01*
X0051219Y0071869D02*
X0067629Y0071869D01*
X0066083Y0073467D02*
X0051158Y0073467D01*
X0052757Y0075066D02*
X0065421Y0075066D01*
X0065319Y0076664D02*
X0054355Y0076664D01*
X0055954Y0078263D02*
X0065667Y0078263D01*
X0066618Y0079861D02*
X0057553Y0079861D01*
X0050323Y0068672D02*
X0093519Y0068672D01*
X0093519Y0067073D02*
X0048630Y0067073D01*
X0050749Y0057482D02*
X0065344Y0057482D01*
X0065319Y0055884D02*
X0051419Y0055884D01*
X0051419Y0054285D02*
X0065745Y0054285D01*
X0066804Y0052687D02*
X0051419Y0052687D01*
X0046000Y0052687D02*
X0045238Y0052687D01*
X0045238Y0054285D02*
X0046000Y0054285D01*
X0046000Y0055884D02*
X0045238Y0055884D01*
X0045238Y0057482D02*
X0046000Y0057482D01*
X0040488Y0057482D02*
X0035419Y0057482D01*
X0035419Y0055884D02*
X0039819Y0055884D01*
X0039819Y0054285D02*
X0035419Y0054285D01*
X0035419Y0052687D02*
X0039819Y0052687D01*
X0039819Y0051088D02*
X0035419Y0051088D01*
X0035419Y0049490D02*
X0039819Y0049490D01*
X0039819Y0047891D02*
X0035419Y0047891D01*
X0035419Y0043095D02*
X0093519Y0043095D01*
X0093519Y0041497D02*
X0072083Y0041497D01*
X0074583Y0039898D02*
X0093519Y0039898D01*
X0097719Y0039898D02*
X0106655Y0039898D01*
X0105683Y0038300D02*
X0097719Y0038300D01*
X0097719Y0036701D02*
X0105319Y0036701D01*
X0105406Y0035103D02*
X0097325Y0035103D01*
X0097719Y0041497D02*
X0109154Y0041497D01*
X0112083Y0041497D02*
X0120279Y0041497D01*
X0118681Y0039898D02*
X0114583Y0039898D01*
X0115486Y0034267D02*
X0116019Y0034267D01*
X0116019Y0032997D01*
X0117249Y0031767D01*
X0188989Y0031767D01*
X0190219Y0032997D01*
X0193356Y0036134D01*
X0193424Y0036067D01*
X0197814Y0036067D01*
X0200919Y0039172D01*
X0200919Y0043562D01*
X0198256Y0046226D01*
X0201119Y0049089D01*
X0201119Y0051167D01*
X0195819Y0051167D01*
X0195819Y0051567D01*
X0201119Y0051567D01*
X0201119Y0053645D01*
X0197897Y0056867D01*
X0195819Y0056867D01*
X0195819Y0051567D01*
X0195419Y0051567D01*
X0195419Y0056867D01*
X0193341Y0056867D01*
X0190477Y0054004D01*
X0187814Y0056667D01*
X0187719Y0056667D01*
X0187719Y0067237D01*
X0186489Y0068467D01*
X0179219Y0075737D01*
X0179219Y0077083D01*
X0178671Y0078406D01*
X0177658Y0079419D01*
X0176335Y0079967D01*
X0174903Y0079967D01*
X0173580Y0079419D01*
X0172719Y0078558D01*
X0172719Y0084267D01*
X0210252Y0084267D01*
X0210626Y0083365D01*
X0212117Y0081874D01*
X0213840Y0081160D01*
X0213117Y0080860D01*
X0211626Y0079369D01*
X0210819Y0077421D01*
X0210819Y0075313D01*
X0211626Y0073365D01*
X0213117Y0071874D01*
X0213133Y0071867D01*
X0211182Y0071867D01*
X0210724Y0071744D01*
X0210314Y0071507D01*
X0209979Y0071172D01*
X0209742Y0070762D01*
X0209619Y0070304D01*
X0209619Y0066567D01*
X0214919Y0066567D01*
X0214919Y0066167D01*
X0215319Y0066167D01*
X0215319Y0060867D01*
X0219056Y0060867D01*
X0219514Y0060990D01*
X0219520Y0060993D01*
X0219520Y0043738D01*
X0218360Y0046539D01*
X0215791Y0049108D01*
X0212435Y0050498D01*
X0208803Y0050498D01*
X0205447Y0049108D01*
X0202878Y0046539D01*
X0201488Y0043183D01*
X0201488Y0039551D01*
X0202878Y0036195D01*
X0205447Y0033626D01*
X0208803Y0032236D01*
X0212435Y0032236D01*
X0215791Y0033626D01*
X0218360Y0036195D01*
X0219520Y0038996D01*
X0219520Y0031167D01*
X0111914Y0031167D01*
X0113621Y0031874D01*
X0115112Y0033365D01*
X0115486Y0034267D01*
X0115170Y0033504D02*
X0116019Y0033504D01*
X0117110Y0031906D02*
X0113653Y0031906D01*
X0107585Y0031906D02*
X0073653Y0031906D01*
X0075170Y0033504D02*
X0106068Y0033504D01*
X0097719Y0043095D02*
X0121878Y0043095D01*
X0123476Y0044694D02*
X0097719Y0044694D01*
X0097719Y0046292D02*
X0125075Y0046292D01*
X0126673Y0047891D02*
X0097719Y0047891D01*
X0097719Y0049490D02*
X0128272Y0049490D01*
X0129870Y0051088D02*
X0111724Y0051088D01*
X0111673Y0051067D02*
X0113621Y0051874D01*
X0115112Y0053365D01*
X0115919Y0055313D01*
X0115919Y0057421D01*
X0115112Y0059369D01*
X0113621Y0060860D01*
X0111673Y0061667D01*
X0109565Y0061667D01*
X0107617Y0060860D01*
X0106126Y0059369D01*
X0105319Y0057421D01*
X0105319Y0055313D01*
X0106126Y0053365D01*
X0107617Y0051874D01*
X0109565Y0051067D01*
X0111673Y0051067D01*
X0109514Y0051088D02*
X0097719Y0051088D01*
X0097719Y0052687D02*
X0106804Y0052687D01*
X0105745Y0054285D02*
X0097719Y0054285D01*
X0097719Y0055884D02*
X0105319Y0055884D01*
X0105344Y0057482D02*
X0097719Y0057482D01*
X0097719Y0059081D02*
X0106006Y0059081D01*
X0107436Y0060679D02*
X0097719Y0060679D01*
X0097719Y0062278D02*
X0121916Y0062278D01*
X0122183Y0062167D02*
X0129054Y0062167D01*
X0130598Y0062806D01*
X0131779Y0063988D01*
X0132419Y0065531D01*
X0132419Y0067202D01*
X0131779Y0068746D01*
X0130598Y0069928D01*
X0129054Y0070567D01*
X0122183Y0070567D01*
X0120640Y0069928D01*
X0119458Y0068746D01*
X0118819Y0067202D01*
X0118819Y0065531D01*
X0119458Y0063988D01*
X0120640Y0062806D01*
X0122183Y0062167D01*
X0122183Y0060567D02*
X0120640Y0059928D01*
X0119458Y0058746D01*
X0118819Y0057202D01*
X0118819Y0055531D01*
X0119458Y0053988D01*
X0120640Y0052806D01*
X0122183Y0052167D01*
X0129054Y0052167D01*
X0130598Y0052806D01*
X0131779Y0053988D01*
X0132419Y0055531D01*
X0132419Y0057202D01*
X0131779Y0058746D01*
X0130598Y0059928D01*
X0129054Y0060567D01*
X0122183Y0060567D01*
X0119793Y0059081D02*
X0115232Y0059081D01*
X0115894Y0057482D02*
X0118935Y0057482D01*
X0118819Y0055884D02*
X0115919Y0055884D01*
X0115493Y0054285D02*
X0119335Y0054285D01*
X0120929Y0052687D02*
X0114434Y0052687D01*
X0113802Y0060679D02*
X0133519Y0060679D01*
X0133519Y0059081D02*
X0131445Y0059081D01*
X0132303Y0057482D02*
X0133519Y0057482D01*
X0133519Y0055884D02*
X0132419Y0055884D01*
X0131903Y0054285D02*
X0133067Y0054285D01*
X0131469Y0052687D02*
X0130309Y0052687D01*
X0132613Y0047891D02*
X0163519Y0047891D01*
X0163519Y0046292D02*
X0131014Y0046292D01*
X0129416Y0044694D02*
X0164322Y0044694D01*
X0163519Y0045497D02*
X0168519Y0040497D01*
X0169749Y0039267D01*
X0170319Y0039267D01*
X0170319Y0039172D01*
X0173424Y0036067D01*
X0177814Y0036067D01*
X0180619Y0038872D01*
X0183424Y0036067D01*
X0187349Y0036067D01*
X0187249Y0035967D01*
X0120689Y0035967D01*
X0137719Y0052997D01*
X0137719Y0181676D01*
X0138519Y0180876D01*
X0138519Y0055497D01*
X0139749Y0054267D01*
X0149343Y0054267D01*
X0149458Y0053988D01*
X0150640Y0052806D01*
X0152183Y0052167D01*
X0159054Y0052167D01*
X0160598Y0052806D01*
X0161779Y0053988D01*
X0162419Y0055531D01*
X0162419Y0057202D01*
X0161779Y0058746D01*
X0160598Y0059928D01*
X0159054Y0060567D01*
X0152183Y0060567D01*
X0150640Y0059928D01*
X0149458Y0058746D01*
X0149343Y0058467D01*
X0142719Y0058467D01*
X0142719Y0180876D01*
X0143519Y0181676D01*
X0143519Y0065497D01*
X0144749Y0064267D01*
X0149343Y0064267D01*
X0149458Y0063988D01*
X0150640Y0062806D01*
X0152183Y0062167D01*
X0159054Y0062167D01*
X0160598Y0062806D01*
X0161779Y0063988D01*
X0162419Y0065531D01*
X0162419Y0067202D01*
X0161779Y0068746D01*
X0160598Y0069928D01*
X0159054Y0070567D01*
X0152183Y0070567D01*
X0150640Y0069928D01*
X0149458Y0068746D01*
X0149343Y0068467D01*
X0147719Y0068467D01*
X0147719Y0187997D01*
X0193989Y0234267D01*
X0211252Y0234267D01*
X0211626Y0233365D01*
X0213117Y0231874D01*
X0213133Y0231867D01*
X0211182Y0231867D01*
X0210724Y0231744D01*
X0210314Y0231507D01*
X0209979Y0231172D01*
X0209742Y0230762D01*
X0209619Y0230304D01*
X0209619Y0226567D01*
X0214919Y0226567D01*
X0214919Y0226167D01*
X0215319Y0226167D01*
X0215319Y0220867D01*
X0219056Y0220867D01*
X0219514Y0220990D01*
X0219520Y0220993D01*
X0219520Y0215461D01*
X0219121Y0215860D01*
X0217173Y0216667D01*
X0215065Y0216667D01*
X0213117Y0215860D01*
X0211626Y0214369D01*
X0210819Y0212421D01*
X0210819Y0210313D01*
X0211046Y0209764D01*
X0211019Y0209737D01*
X0192249Y0190967D01*
X0191019Y0189737D01*
X0191019Y0189737D01*
X0166019Y0164737D01*
X0166019Y0150497D01*
X0167249Y0149267D01*
X0181019Y0135497D01*
X0181019Y0125530D01*
X0180769Y0125280D01*
X0180769Y0117454D01*
X0181706Y0116517D01*
X0189532Y0116517D01*
X0190469Y0117454D01*
X0190469Y0125280D01*
X0189532Y0126217D01*
X0185219Y0126217D01*
X0185219Y0137237D01*
X0170219Y0152237D01*
X0170219Y0162997D01*
X0193119Y0185897D01*
X0211046Y0167970D01*
X0210819Y0167421D01*
X0210819Y0165313D01*
X0211626Y0163365D01*
X0213117Y0161874D01*
X0213840Y0161574D01*
X0212117Y0160860D01*
X0210626Y0159369D01*
X0209819Y0157421D01*
X0209819Y0155313D01*
X0210626Y0153365D01*
X0212117Y0151874D01*
X0213840Y0151160D01*
X0213117Y0150860D01*
X0211626Y0149369D01*
X0210819Y0147421D01*
X0210819Y0145313D01*
X0211626Y0143365D01*
X0213117Y0141874D01*
X0213133Y0141867D01*
X0211182Y0141867D01*
X0210724Y0141744D01*
X0210314Y0141507D01*
X0209979Y0141172D01*
X0209742Y0140762D01*
X0209619Y0140304D01*
X0209619Y0136567D01*
X0214919Y0136567D01*
X0214919Y0136167D01*
X0215319Y0136167D01*
X0215319Y0130867D01*
X0219056Y0130867D01*
X0219514Y0130990D01*
X0219520Y0130993D01*
X0219520Y0124461D01*
X0218121Y0125860D01*
X0216173Y0126667D01*
X0214065Y0126667D01*
X0212117Y0125860D01*
X0210626Y0124369D01*
X0209819Y0122421D01*
X0209819Y0121037D01*
X0207719Y0118937D01*
X0207719Y0152237D01*
X0191939Y0168017D01*
X0192658Y0168315D01*
X0193671Y0169328D01*
X0194219Y0170651D01*
X0194219Y0172083D01*
X0193671Y0173406D01*
X0192658Y0174419D01*
X0191335Y0174967D01*
X0189903Y0174967D01*
X0188580Y0174419D01*
X0187567Y0173406D01*
X0187019Y0172083D01*
X0187019Y0170737D01*
X0186019Y0169737D01*
X0186019Y0169737D01*
X0184749Y0168467D01*
X0183519Y0167237D01*
X0183519Y0161217D01*
X0181706Y0161217D01*
X0180769Y0160280D01*
X0180769Y0152454D01*
X0181706Y0151517D01*
X0189532Y0151517D01*
X0190469Y0152454D01*
X0190469Y0160280D01*
X0189532Y0161217D01*
X0187719Y0161217D01*
X0187719Y0165497D01*
X0188119Y0165897D01*
X0203519Y0150497D01*
X0203519Y0088467D01*
X0172719Y0088467D01*
X0172719Y0094737D01*
X0162274Y0105182D01*
X0162419Y0105531D01*
X0162419Y0107202D01*
X0161779Y0108746D01*
X0160598Y0109928D01*
X0159054Y0110567D01*
X0152183Y0110567D01*
X0150640Y0109928D01*
X0149458Y0108746D01*
X0148819Y0107202D01*
X0148819Y0105531D01*
X0149458Y0103988D01*
X0150640Y0102806D01*
X0152183Y0102167D01*
X0159054Y0102167D01*
X0159263Y0102253D01*
X0168519Y0092997D01*
X0168519Y0088937D01*
X0162719Y0094737D01*
X0162719Y0097237D01*
X0162182Y0097773D01*
X0161779Y0098746D01*
X0160598Y0099928D01*
X0159054Y0100567D01*
X0152183Y0100567D01*
X0150640Y0099928D01*
X0149458Y0098746D01*
X0148819Y0097202D01*
X0148819Y0095531D01*
X0149458Y0093988D01*
X0150640Y0092806D01*
X0152183Y0092167D01*
X0159054Y0092167D01*
X0159263Y0092253D01*
X0166019Y0085497D01*
X0166019Y0081437D01*
X0162719Y0084737D01*
X0162719Y0087237D01*
X0162182Y0087773D01*
X0161779Y0088746D01*
X0160598Y0089928D01*
X0159054Y0090567D01*
X0152183Y0090567D01*
X0150640Y0089928D01*
X0149458Y0088746D01*
X0148819Y0087202D01*
X0148819Y0085531D01*
X0149458Y0083988D01*
X0150640Y0082806D01*
X0152183Y0082167D01*
X0159054Y0082167D01*
X0159263Y0082253D01*
X0163519Y0077997D01*
X0163519Y0045497D01*
X0165920Y0043095D02*
X0127817Y0043095D01*
X0126219Y0041497D02*
X0167519Y0041497D01*
X0169118Y0039898D02*
X0124620Y0039898D01*
X0123022Y0038300D02*
X0171191Y0038300D01*
X0172789Y0036701D02*
X0121423Y0036701D01*
X0134211Y0049490D02*
X0163519Y0049490D01*
X0163519Y0051088D02*
X0135810Y0051088D01*
X0137408Y0052687D02*
X0150929Y0052687D01*
X0149793Y0059081D02*
X0142719Y0059081D01*
X0142719Y0060679D02*
X0163519Y0060679D01*
X0163519Y0059081D02*
X0161445Y0059081D01*
X0162303Y0057482D02*
X0163519Y0057482D01*
X0163519Y0055884D02*
X0162419Y0055884D01*
X0161903Y0054285D02*
X0163519Y0054285D01*
X0163519Y0052687D02*
X0160309Y0052687D01*
X0159322Y0062278D02*
X0163519Y0062278D01*
X0163519Y0063876D02*
X0161668Y0063876D01*
X0162395Y0065475D02*
X0163519Y0065475D01*
X0163519Y0067073D02*
X0162419Y0067073D01*
X0161810Y0068672D02*
X0163519Y0068672D01*
X0163519Y0070270D02*
X0159771Y0070270D01*
X0159054Y0072167D02*
X0160598Y0072806D01*
X0161779Y0073988D01*
X0162419Y0075531D01*
X0162419Y0077202D01*
X0161779Y0078746D01*
X0160598Y0079928D01*
X0159054Y0080567D01*
X0152183Y0080567D01*
X0150640Y0079928D01*
X0149458Y0078746D01*
X0148819Y0077202D01*
X0148819Y0075531D01*
X0149458Y0073988D01*
X0150640Y0072806D01*
X0152183Y0072167D01*
X0159054Y0072167D01*
X0161259Y0073467D02*
X0163519Y0073467D01*
X0163519Y0071869D02*
X0147719Y0071869D01*
X0147719Y0073467D02*
X0149979Y0073467D01*
X0149012Y0075066D02*
X0147719Y0075066D01*
X0147719Y0076664D02*
X0148819Y0076664D01*
X0149258Y0078263D02*
X0147719Y0078263D01*
X0147719Y0079861D02*
X0150574Y0079861D01*
X0150388Y0083058D02*
X0147719Y0083058D01*
X0147719Y0081460D02*
X0160056Y0081460D01*
X0160664Y0079861D02*
X0161655Y0079861D01*
X0161980Y0078263D02*
X0163253Y0078263D01*
X0163519Y0076664D02*
X0162419Y0076664D01*
X0162226Y0075066D02*
X0163519Y0075066D01*
X0165996Y0081460D02*
X0166019Y0081460D01*
X0166019Y0083058D02*
X0164397Y0083058D01*
X0162799Y0084657D02*
X0166019Y0084657D01*
X0165261Y0086255D02*
X0162719Y0086255D01*
X0162149Y0087854D02*
X0163662Y0087854D01*
X0162064Y0089452D02*
X0161073Y0089452D01*
X0160465Y0091051D02*
X0147719Y0091051D01*
X0147719Y0092649D02*
X0151019Y0092649D01*
X0149351Y0094248D02*
X0147719Y0094248D01*
X0147719Y0095846D02*
X0148819Y0095846D01*
X0148919Y0097445D02*
X0147719Y0097445D01*
X0147719Y0099043D02*
X0149756Y0099043D01*
X0147719Y0100642D02*
X0160874Y0100642D01*
X0161482Y0099043D02*
X0162473Y0099043D01*
X0162511Y0097445D02*
X0164071Y0097445D01*
X0162719Y0095846D02*
X0165670Y0095846D01*
X0167268Y0094248D02*
X0163208Y0094248D01*
X0164806Y0092649D02*
X0168519Y0092649D01*
X0168519Y0091051D02*
X0166405Y0091051D01*
X0168003Y0089452D02*
X0168519Y0089452D01*
X0172719Y0089452D02*
X0203519Y0089452D01*
X0203519Y0091051D02*
X0172719Y0091051D01*
X0172719Y0092649D02*
X0203519Y0092649D01*
X0203519Y0094248D02*
X0172719Y0094248D01*
X0171609Y0095846D02*
X0203519Y0095846D01*
X0203519Y0097445D02*
X0170011Y0097445D01*
X0168412Y0099043D02*
X0203519Y0099043D01*
X0203519Y0100642D02*
X0166814Y0100642D01*
X0165215Y0102240D02*
X0203519Y0102240D01*
X0203519Y0103839D02*
X0163617Y0103839D01*
X0162380Y0105437D02*
X0203519Y0105437D01*
X0203519Y0107036D02*
X0162419Y0107036D01*
X0161826Y0108634D02*
X0203519Y0108634D01*
X0203519Y0110233D02*
X0159861Y0110233D01*
X0159054Y0112167D02*
X0160598Y0112806D01*
X0161779Y0113988D01*
X0162419Y0115531D01*
X0162419Y0117202D01*
X0161779Y0118746D01*
X0160598Y0119928D01*
X0159054Y0120567D01*
X0152183Y0120567D01*
X0150640Y0119928D01*
X0149458Y0118746D01*
X0148819Y0117202D01*
X0148819Y0115531D01*
X0149458Y0113988D01*
X0150640Y0112806D01*
X0152183Y0112167D01*
X0159054Y0112167D01*
X0161222Y0113430D02*
X0203519Y0113430D01*
X0203519Y0115028D02*
X0162211Y0115028D01*
X0162419Y0116627D02*
X0173865Y0116627D01*
X0173680Y0116687D02*
X0174436Y0116441D01*
X0175221Y0116317D01*
X0175619Y0116317D01*
X0176016Y0116317D01*
X0176801Y0116441D01*
X0177557Y0116687D01*
X0178266Y0117048D01*
X0178909Y0117515D01*
X0179471Y0118077D01*
X0179938Y0118720D01*
X0180299Y0119428D01*
X0180545Y0120184D01*
X0180669Y0120969D01*
X0180669Y0121367D01*
X0180669Y0121764D01*
X0180545Y0122549D01*
X0180299Y0123305D01*
X0179938Y0124014D01*
X0179471Y0124657D01*
X0178909Y0125219D01*
X0178266Y0125686D01*
X0177557Y0126047D01*
X0176801Y0126293D01*
X0176016Y0126417D01*
X0175619Y0126417D01*
X0175619Y0121367D01*
X0180669Y0121367D01*
X0175619Y0121367D01*
X0175619Y0121367D01*
X0175619Y0121367D01*
X0175619Y0126417D01*
X0175221Y0126417D01*
X0174436Y0126293D01*
X0173680Y0126047D01*
X0172972Y0125686D01*
X0172329Y0125219D01*
X0171767Y0124657D01*
X0171300Y0124014D01*
X0170939Y0123305D01*
X0170693Y0122549D01*
X0170569Y0121764D01*
X0170569Y0121367D01*
X0175619Y0121367D01*
X0175619Y0116317D01*
X0175619Y0121367D01*
X0175619Y0121367D01*
X0175619Y0121367D01*
X0170569Y0121367D01*
X0170569Y0120969D01*
X0170693Y0120184D01*
X0170939Y0119428D01*
X0171300Y0118720D01*
X0171767Y0118077D01*
X0172329Y0117515D01*
X0172972Y0117048D01*
X0173680Y0116687D01*
X0175619Y0116627D02*
X0175619Y0116627D01*
X0175619Y0118226D02*
X0175619Y0118226D01*
X0175619Y0119824D02*
X0175619Y0119824D01*
X0175619Y0121423D02*
X0175619Y0121423D01*
X0175619Y0123021D02*
X0175619Y0123021D01*
X0175619Y0124620D02*
X0175619Y0124620D01*
X0175619Y0126218D02*
X0175619Y0126218D01*
X0177031Y0126218D02*
X0181019Y0126218D01*
X0181019Y0127817D02*
X0162374Y0127817D01*
X0162297Y0128056D02*
X0161982Y0128673D01*
X0161575Y0129233D01*
X0161085Y0129723D01*
X0160525Y0130130D01*
X0159908Y0130445D01*
X0159249Y0130659D01*
X0158565Y0130767D01*
X0155619Y0130767D01*
X0155619Y0126367D01*
X0162619Y0126367D01*
X0162619Y0126713D01*
X0162511Y0127397D01*
X0162297Y0128056D01*
X0161393Y0129415D02*
X0181019Y0129415D01*
X0181019Y0131014D02*
X0147719Y0131014D01*
X0147719Y0132612D02*
X0151109Y0132612D01*
X0150640Y0132806D02*
X0152183Y0132167D01*
X0159054Y0132167D01*
X0160598Y0132806D01*
X0161779Y0133988D01*
X0162419Y0135531D01*
X0162419Y0137202D01*
X0161779Y0138746D01*
X0160598Y0139928D01*
X0159054Y0140567D01*
X0152183Y0140567D01*
X0150640Y0139928D01*
X0149458Y0138746D01*
X0148819Y0137202D01*
X0148819Y0135531D01*
X0149458Y0133988D01*
X0150640Y0132806D01*
X0149366Y0134211D02*
X0147719Y0134211D01*
X0147719Y0135809D02*
X0148819Y0135809D01*
X0148904Y0137408D02*
X0147719Y0137408D01*
X0147719Y0139006D02*
X0149718Y0139006D01*
X0147719Y0140605D02*
X0175911Y0140605D01*
X0174313Y0142203D02*
X0159142Y0142203D01*
X0159054Y0142167D02*
X0160598Y0142806D01*
X0161779Y0143988D01*
X0162419Y0145531D01*
X0162419Y0147202D01*
X0161779Y0148746D01*
X0160598Y0149928D01*
X0159054Y0150567D01*
X0152183Y0150567D01*
X0150640Y0149928D01*
X0149458Y0148746D01*
X0148819Y0147202D01*
X0148819Y0145531D01*
X0149458Y0143988D01*
X0150640Y0142806D01*
X0152183Y0142167D01*
X0159054Y0142167D01*
X0161593Y0143802D02*
X0172714Y0143802D01*
X0171116Y0145400D02*
X0162364Y0145400D01*
X0162419Y0146999D02*
X0169517Y0146999D01*
X0167919Y0148597D02*
X0161841Y0148597D01*
X0159950Y0150196D02*
X0166320Y0150196D01*
X0166019Y0151794D02*
X0147719Y0151794D01*
X0147719Y0150196D02*
X0151287Y0150196D01*
X0152183Y0152167D02*
X0159054Y0152167D01*
X0160598Y0152806D01*
X0161779Y0153988D01*
X0162419Y0155531D01*
X0162419Y0157202D01*
X0161779Y0158746D01*
X0160598Y0159928D01*
X0159054Y0160567D01*
X0152183Y0160567D01*
X0150640Y0159928D01*
X0149458Y0158746D01*
X0148819Y0157202D01*
X0148819Y0155531D01*
X0149458Y0153988D01*
X0150640Y0152806D01*
X0152183Y0152167D01*
X0150053Y0153393D02*
X0147719Y0153393D01*
X0147719Y0154991D02*
X0149043Y0154991D01*
X0148819Y0156590D02*
X0147719Y0156590D01*
X0147719Y0158188D02*
X0149227Y0158188D01*
X0150499Y0159787D02*
X0147719Y0159787D01*
X0147719Y0161385D02*
X0166019Y0161385D01*
X0166019Y0159787D02*
X0160739Y0159787D01*
X0162011Y0158188D02*
X0166019Y0158188D01*
X0166019Y0156590D02*
X0162419Y0156590D01*
X0162195Y0154991D02*
X0166019Y0154991D01*
X0166019Y0153393D02*
X0161184Y0153393D01*
X0159054Y0162167D02*
X0160598Y0162806D01*
X0161779Y0163988D01*
X0162419Y0165531D01*
X0162419Y0167202D01*
X0161779Y0168746D01*
X0160598Y0169928D01*
X0159054Y0170567D01*
X0152183Y0170567D01*
X0150640Y0169928D01*
X0149458Y0168746D01*
X0148819Y0167202D01*
X0148819Y0165531D01*
X0149458Y0163988D01*
X0150640Y0162806D01*
X0152183Y0162167D01*
X0159054Y0162167D01*
X0160775Y0162984D02*
X0166019Y0162984D01*
X0166019Y0164582D02*
X0162026Y0164582D01*
X0162419Y0166181D02*
X0167463Y0166181D01*
X0169061Y0167779D02*
X0162180Y0167779D01*
X0161148Y0169378D02*
X0170660Y0169378D01*
X0172259Y0170976D02*
X0147719Y0170976D01*
X0147719Y0169378D02*
X0150090Y0169378D01*
X0149058Y0167779D02*
X0147719Y0167779D01*
X0147719Y0166181D02*
X0148819Y0166181D01*
X0149212Y0164582D02*
X0147719Y0164582D01*
X0147719Y0162984D02*
X0150462Y0162984D01*
X0143519Y0162984D02*
X0142719Y0162984D01*
X0142719Y0164582D02*
X0143519Y0164582D01*
X0143519Y0166181D02*
X0142719Y0166181D01*
X0142719Y0167779D02*
X0143519Y0167779D01*
X0143519Y0169378D02*
X0142719Y0169378D01*
X0142719Y0170976D02*
X0143519Y0170976D01*
X0143519Y0172575D02*
X0142719Y0172575D01*
X0142719Y0174173D02*
X0143519Y0174173D01*
X0143519Y0175772D02*
X0142719Y0175772D01*
X0142719Y0177370D02*
X0143519Y0177370D01*
X0143519Y0178969D02*
X0142719Y0178969D01*
X0142719Y0180567D02*
X0143519Y0180567D01*
X0147719Y0180567D02*
X0181850Y0180567D01*
X0180251Y0178969D02*
X0161557Y0178969D01*
X0161779Y0178746D02*
X0160598Y0179928D01*
X0159054Y0180567D01*
X0152183Y0180567D01*
X0150640Y0179928D01*
X0149458Y0178746D01*
X0148819Y0177202D01*
X0148819Y0175531D01*
X0149458Y0173988D01*
X0150640Y0172806D01*
X0152183Y0172167D01*
X0159054Y0172167D01*
X0160598Y0172806D01*
X0161779Y0173988D01*
X0162419Y0175531D01*
X0162419Y0177202D01*
X0161779Y0178746D01*
X0162349Y0177370D02*
X0178653Y0177370D01*
X0177054Y0175772D02*
X0162419Y0175772D01*
X0161856Y0174173D02*
X0175456Y0174173D01*
X0173857Y0172575D02*
X0160039Y0172575D01*
X0151199Y0172575D02*
X0147719Y0172575D01*
X0147719Y0174173D02*
X0149381Y0174173D01*
X0148819Y0175772D02*
X0147719Y0175772D01*
X0147719Y0177370D02*
X0148889Y0177370D01*
X0149681Y0178969D02*
X0147719Y0178969D01*
X0147719Y0182166D02*
X0183448Y0182166D01*
X0185047Y0183764D02*
X0161556Y0183764D01*
X0161779Y0183988D02*
X0162419Y0185531D01*
X0162419Y0187202D01*
X0161779Y0188746D01*
X0160598Y0189928D01*
X0159054Y0190567D01*
X0152183Y0190567D01*
X0150640Y0189928D01*
X0149458Y0188746D01*
X0148819Y0187202D01*
X0148819Y0185531D01*
X0149458Y0183988D01*
X0150640Y0182806D01*
X0152183Y0182167D01*
X0159054Y0182167D01*
X0160598Y0182806D01*
X0161779Y0183988D01*
X0162349Y0185363D02*
X0186645Y0185363D01*
X0188244Y0186961D02*
X0162419Y0186961D01*
X0161857Y0188560D02*
X0189842Y0188560D01*
X0191441Y0190159D02*
X0160040Y0190159D01*
X0154676Y0194954D02*
X0196236Y0194954D01*
X0194638Y0193356D02*
X0153077Y0193356D01*
X0151479Y0191757D02*
X0193039Y0191757D01*
X0192249Y0190967D02*
X0192249Y0190967D01*
X0192585Y0185363D02*
X0193653Y0185363D01*
X0195252Y0183764D02*
X0190986Y0183764D01*
X0189388Y0182166D02*
X0196850Y0182166D01*
X0198449Y0180567D02*
X0187789Y0180567D01*
X0186191Y0178969D02*
X0200047Y0178969D01*
X0201646Y0177370D02*
X0184592Y0177370D01*
X0182994Y0175772D02*
X0203244Y0175772D01*
X0204843Y0174173D02*
X0192904Y0174173D01*
X0194015Y0172575D02*
X0206441Y0172575D01*
X0208040Y0170976D02*
X0194219Y0170976D01*
X0193692Y0169378D02*
X0209638Y0169378D01*
X0210967Y0167779D02*
X0192176Y0167779D01*
X0193775Y0166181D02*
X0210819Y0166181D01*
X0211121Y0164582D02*
X0195373Y0164582D01*
X0196972Y0162984D02*
X0212007Y0162984D01*
X0213385Y0161385D02*
X0198570Y0161385D01*
X0200169Y0159787D02*
X0211043Y0159787D01*
X0210137Y0158188D02*
X0201767Y0158188D01*
X0203366Y0156590D02*
X0209819Y0156590D01*
X0209952Y0154991D02*
X0204964Y0154991D01*
X0206563Y0153393D02*
X0210614Y0153393D01*
X0212309Y0151794D02*
X0207719Y0151794D01*
X0207719Y0150196D02*
X0212452Y0150196D01*
X0211306Y0148597D02*
X0207719Y0148597D01*
X0207719Y0146999D02*
X0210819Y0146999D01*
X0210819Y0145400D02*
X0207719Y0145400D01*
X0207719Y0143802D02*
X0211445Y0143802D01*
X0212787Y0142203D02*
X0207719Y0142203D01*
X0207719Y0140605D02*
X0209699Y0140605D01*
X0209619Y0139006D02*
X0207719Y0139006D01*
X0207719Y0137408D02*
X0209619Y0137408D01*
X0209619Y0136167D02*
X0209619Y0132430D01*
X0209742Y0131972D01*
X0209979Y0131562D01*
X0210314Y0131227D01*
X0210724Y0130990D01*
X0211182Y0130867D01*
X0214919Y0130867D01*
X0214919Y0136167D01*
X0209619Y0136167D01*
X0209619Y0135809D02*
X0207719Y0135809D01*
X0207719Y0134211D02*
X0209619Y0134211D01*
X0209619Y0132612D02*
X0207719Y0132612D01*
X0207719Y0131014D02*
X0210683Y0131014D01*
X0214919Y0131014D02*
X0215319Y0131014D01*
X0215319Y0132612D02*
X0214919Y0132612D01*
X0214919Y0134211D02*
X0215319Y0134211D01*
X0215319Y0135809D02*
X0214919Y0135809D01*
X0219520Y0129415D02*
X0207719Y0129415D01*
X0207719Y0127817D02*
X0219520Y0127817D01*
X0219520Y0126218D02*
X0217257Y0126218D01*
X0219362Y0124620D02*
X0219520Y0124620D01*
X0212981Y0126218D02*
X0207719Y0126218D01*
X0207719Y0124620D02*
X0210876Y0124620D01*
X0210067Y0123021D02*
X0207719Y0123021D01*
X0207719Y0121423D02*
X0209819Y0121423D01*
X0208606Y0119824D02*
X0207719Y0119824D01*
X0203519Y0119824D02*
X0190469Y0119824D01*
X0190469Y0118226D02*
X0203519Y0118226D01*
X0203519Y0116627D02*
X0189642Y0116627D01*
X0190469Y0121423D02*
X0203519Y0121423D01*
X0203519Y0123021D02*
X0190469Y0123021D01*
X0190469Y0124620D02*
X0203519Y0124620D01*
X0203519Y0126218D02*
X0185219Y0126218D01*
X0185219Y0127817D02*
X0203519Y0127817D01*
X0203519Y0129415D02*
X0185219Y0129415D01*
X0185219Y0131014D02*
X0203519Y0131014D01*
X0203519Y0132612D02*
X0185219Y0132612D01*
X0185219Y0134211D02*
X0203519Y0134211D01*
X0203519Y0135809D02*
X0185219Y0135809D01*
X0185048Y0137408D02*
X0203519Y0137408D01*
X0203519Y0139006D02*
X0183450Y0139006D01*
X0181851Y0140605D02*
X0203519Y0140605D01*
X0203519Y0142203D02*
X0180252Y0142203D01*
X0178654Y0143802D02*
X0203519Y0143802D01*
X0203519Y0145400D02*
X0177055Y0145400D01*
X0175457Y0146999D02*
X0203519Y0146999D01*
X0203519Y0148597D02*
X0173858Y0148597D01*
X0172260Y0150196D02*
X0203519Y0150196D01*
X0202222Y0151794D02*
X0189809Y0151794D01*
X0190469Y0153393D02*
X0200623Y0153393D01*
X0199025Y0154991D02*
X0190469Y0154991D01*
X0190469Y0156590D02*
X0197426Y0156590D01*
X0195828Y0158188D02*
X0190469Y0158188D01*
X0190469Y0159787D02*
X0194229Y0159787D01*
X0192631Y0161385D02*
X0187719Y0161385D01*
X0187719Y0162984D02*
X0191032Y0162984D01*
X0189434Y0164582D02*
X0187719Y0164582D01*
X0183519Y0164582D02*
X0171804Y0164582D01*
X0170219Y0162984D02*
X0183519Y0162984D01*
X0183519Y0161385D02*
X0176216Y0161385D01*
X0176016Y0161417D02*
X0176801Y0161293D01*
X0177557Y0161047D01*
X0178266Y0160686D01*
X0178909Y0160219D01*
X0179471Y0159657D01*
X0179938Y0159014D01*
X0180299Y0158305D01*
X0180545Y0157549D01*
X0180669Y0156764D01*
X0180669Y0156367D01*
X0175619Y0156367D01*
X0175619Y0156367D01*
X0175619Y0156367D01*
X0175619Y0161417D01*
X0176016Y0161417D01*
X0175619Y0161417D02*
X0175221Y0161417D01*
X0174436Y0161293D01*
X0173680Y0161047D01*
X0172972Y0160686D01*
X0172329Y0160219D01*
X0171767Y0159657D01*
X0171300Y0159014D01*
X0170939Y0158305D01*
X0170693Y0157549D01*
X0170569Y0156764D01*
X0170569Y0156367D01*
X0175619Y0156367D01*
X0180669Y0156367D01*
X0180669Y0155969D01*
X0180545Y0155184D01*
X0180299Y0154428D01*
X0179938Y0153720D01*
X0179471Y0153077D01*
X0178909Y0152515D01*
X0178266Y0152048D01*
X0177557Y0151687D01*
X0176801Y0151441D01*
X0176016Y0151317D01*
X0175619Y0151317D01*
X0175619Y0156367D01*
X0175619Y0161417D01*
X0175619Y0161385D02*
X0175619Y0161385D01*
X0175022Y0161385D02*
X0170219Y0161385D01*
X0170219Y0159787D02*
X0171897Y0159787D01*
X0170901Y0158188D02*
X0170219Y0158188D01*
X0170219Y0156590D02*
X0170569Y0156590D01*
X0170569Y0156367D02*
X0170569Y0155969D01*
X0170693Y0155184D01*
X0170939Y0154428D01*
X0171300Y0153720D01*
X0171767Y0153077D01*
X0172329Y0152515D01*
X0172972Y0152048D01*
X0173680Y0151687D01*
X0174436Y0151441D01*
X0175221Y0151317D01*
X0175619Y0151317D01*
X0175619Y0156367D01*
X0175619Y0156367D01*
X0175619Y0156367D01*
X0170569Y0156367D01*
X0170756Y0154991D02*
X0170219Y0154991D01*
X0170219Y0153393D02*
X0171538Y0153393D01*
X0170661Y0151794D02*
X0173470Y0151794D01*
X0175619Y0151794D02*
X0175619Y0151794D01*
X0175619Y0153393D02*
X0175619Y0153393D01*
X0175619Y0154991D02*
X0175619Y0154991D01*
X0175619Y0156590D02*
X0175619Y0156590D01*
X0175619Y0158188D02*
X0175619Y0158188D01*
X0175619Y0159787D02*
X0175619Y0159787D01*
X0179341Y0159787D02*
X0180769Y0159787D01*
X0180769Y0158188D02*
X0180337Y0158188D01*
X0180669Y0156590D02*
X0180769Y0156590D01*
X0180769Y0154991D02*
X0180482Y0154991D01*
X0180769Y0153393D02*
X0179700Y0153393D01*
X0181429Y0151794D02*
X0177768Y0151794D01*
X0177510Y0139006D02*
X0161519Y0139006D01*
X0162334Y0137408D02*
X0179108Y0137408D01*
X0180707Y0135809D02*
X0162419Y0135809D01*
X0161872Y0134211D02*
X0181019Y0134211D01*
X0181019Y0132612D02*
X0160129Y0132612D01*
X0155619Y0130767D02*
X0155619Y0126367D01*
X0155619Y0126367D01*
X0155619Y0126367D01*
X0162619Y0126367D01*
X0162619Y0126021D01*
X0162511Y0125337D01*
X0162297Y0124678D01*
X0161982Y0124061D01*
X0161575Y0123501D01*
X0161085Y0123011D01*
X0160525Y0122604D01*
X0159908Y0122289D01*
X0159249Y0122075D01*
X0158565Y0121967D01*
X0155619Y0121967D01*
X0155619Y0126367D01*
X0155619Y0126367D01*
X0155619Y0126367D01*
X0148619Y0126367D01*
X0148619Y0126713D01*
X0148727Y0127397D01*
X0148941Y0128056D01*
X0149256Y0128673D01*
X0149663Y0129233D01*
X0150152Y0129723D01*
X0150713Y0130130D01*
X0151330Y0130445D01*
X0151989Y0130659D01*
X0152673Y0130767D01*
X0155619Y0130767D01*
X0155619Y0129415D02*
X0155619Y0129415D01*
X0155619Y0127817D02*
X0155619Y0127817D01*
X0155619Y0126367D02*
X0148619Y0126367D01*
X0148619Y0126021D01*
X0148727Y0125337D01*
X0148941Y0124678D01*
X0149256Y0124061D01*
X0149663Y0123501D01*
X0150152Y0123011D01*
X0150713Y0122604D01*
X0151330Y0122289D01*
X0151989Y0122075D01*
X0152673Y0121967D01*
X0155619Y0121967D01*
X0155619Y0126367D01*
X0155619Y0126218D02*
X0155619Y0126218D01*
X0155619Y0124620D02*
X0155619Y0124620D01*
X0155619Y0123021D02*
X0155619Y0123021D01*
X0150142Y0123021D02*
X0147719Y0123021D01*
X0147719Y0121423D02*
X0170569Y0121423D01*
X0170810Y0119824D02*
X0160701Y0119824D01*
X0161995Y0118226D02*
X0171659Y0118226D01*
X0170846Y0123021D02*
X0161096Y0123021D01*
X0162267Y0124620D02*
X0171740Y0124620D01*
X0174207Y0126218D02*
X0162619Y0126218D01*
X0149845Y0129415D02*
X0147719Y0129415D01*
X0147719Y0127817D02*
X0148863Y0127817D01*
X0148619Y0126218D02*
X0147719Y0126218D01*
X0147719Y0124620D02*
X0148971Y0124620D01*
X0147719Y0119824D02*
X0150536Y0119824D01*
X0149243Y0118226D02*
X0147719Y0118226D01*
X0147719Y0116627D02*
X0148819Y0116627D01*
X0149027Y0115028D02*
X0147719Y0115028D01*
X0147719Y0113430D02*
X0150016Y0113430D01*
X0147719Y0111831D02*
X0203519Y0111831D01*
X0207719Y0111831D02*
X0210819Y0111831D01*
X0210819Y0112421D02*
X0210819Y0110313D01*
X0211626Y0108365D01*
X0213117Y0106874D01*
X0213133Y0106867D01*
X0211182Y0106867D01*
X0210724Y0106744D01*
X0210314Y0106507D01*
X0209979Y0106172D01*
X0209742Y0105762D01*
X0209619Y0105304D01*
X0209619Y0101567D01*
X0214919Y0101567D01*
X0214919Y0101167D01*
X0215319Y0101167D01*
X0215319Y0095867D01*
X0219056Y0095867D01*
X0219514Y0095990D01*
X0219520Y0095993D01*
X0219520Y0089461D01*
X0218121Y0090860D01*
X0216173Y0091667D01*
X0214065Y0091667D01*
X0212117Y0090860D01*
X0210626Y0089369D01*
X0210252Y0088467D01*
X0207719Y0088467D01*
X0207719Y0112997D01*
X0211856Y0117134D01*
X0212117Y0116874D01*
X0213840Y0116160D01*
X0213117Y0115860D01*
X0211626Y0114369D01*
X0210819Y0112421D01*
X0211237Y0113430D02*
X0208152Y0113430D01*
X0209750Y0115028D02*
X0212285Y0115028D01*
X0212713Y0116627D02*
X0211349Y0116627D01*
X0210852Y0110233D02*
X0207719Y0110233D01*
X0207719Y0108634D02*
X0211514Y0108634D01*
X0212955Y0107036D02*
X0207719Y0107036D01*
X0207719Y0105437D02*
X0209655Y0105437D01*
X0209619Y0103839D02*
X0207719Y0103839D01*
X0207719Y0102240D02*
X0209619Y0102240D01*
X0209619Y0101167D02*
X0209619Y0097430D01*
X0209742Y0096972D01*
X0209979Y0096562D01*
X0210314Y0096227D01*
X0210724Y0095990D01*
X0211182Y0095867D01*
X0214919Y0095867D01*
X0214919Y0101167D01*
X0209619Y0101167D01*
X0209619Y0100642D02*
X0207719Y0100642D01*
X0207719Y0099043D02*
X0209619Y0099043D01*
X0209619Y0097445D02*
X0207719Y0097445D01*
X0207719Y0095846D02*
X0219520Y0095846D01*
X0219520Y0094248D02*
X0207719Y0094248D01*
X0207719Y0092649D02*
X0219520Y0092649D01*
X0219520Y0091051D02*
X0217661Y0091051D01*
X0212577Y0091051D02*
X0207719Y0091051D01*
X0207719Y0089452D02*
X0210709Y0089452D01*
X0210932Y0083058D02*
X0172719Y0083058D01*
X0172719Y0081460D02*
X0213116Y0081460D01*
X0212118Y0079861D02*
X0176590Y0079861D01*
X0174648Y0079861D02*
X0172719Y0079861D01*
X0178730Y0078263D02*
X0211167Y0078263D01*
X0210819Y0076664D02*
X0179219Y0076664D01*
X0179890Y0075066D02*
X0210921Y0075066D01*
X0211583Y0073467D02*
X0181488Y0073467D01*
X0183087Y0071869D02*
X0213129Y0071869D01*
X0209619Y0070270D02*
X0184685Y0070270D01*
X0186284Y0068672D02*
X0209619Y0068672D01*
X0209619Y0067073D02*
X0187719Y0067073D01*
X0187719Y0065475D02*
X0209619Y0065475D01*
X0209619Y0066167D02*
X0209619Y0062430D01*
X0209742Y0061972D01*
X0209979Y0061562D01*
X0210314Y0061227D01*
X0210724Y0060990D01*
X0211182Y0060867D01*
X0214919Y0060867D01*
X0214919Y0066167D01*
X0209619Y0066167D01*
X0209619Y0063876D02*
X0187719Y0063876D01*
X0187719Y0062278D02*
X0209660Y0062278D01*
X0214919Y0062278D02*
X0215319Y0062278D01*
X0215319Y0063876D02*
X0214919Y0063876D01*
X0214919Y0065475D02*
X0215319Y0065475D01*
X0219520Y0060679D02*
X0187719Y0060679D01*
X0187719Y0059081D02*
X0219520Y0059081D01*
X0219520Y0057482D02*
X0187719Y0057482D01*
X0188598Y0055884D02*
X0192357Y0055884D01*
X0190759Y0054285D02*
X0190196Y0054285D01*
X0195419Y0054285D02*
X0195819Y0054285D01*
X0195819Y0052687D02*
X0195419Y0052687D01*
X0195419Y0055884D02*
X0195819Y0055884D01*
X0198880Y0055884D02*
X0219520Y0055884D01*
X0219520Y0054285D02*
X0200479Y0054285D01*
X0201119Y0052687D02*
X0219520Y0052687D01*
X0219520Y0051088D02*
X0201119Y0051088D01*
X0201119Y0049490D02*
X0206369Y0049490D01*
X0204230Y0047891D02*
X0199921Y0047891D01*
X0198323Y0046292D02*
X0202776Y0046292D01*
X0202114Y0044694D02*
X0199787Y0044694D01*
X0200919Y0043095D02*
X0201488Y0043095D01*
X0201488Y0041497D02*
X0200919Y0041497D01*
X0200919Y0039898D02*
X0201488Y0039898D01*
X0202006Y0038300D02*
X0200047Y0038300D01*
X0198449Y0036701D02*
X0202668Y0036701D01*
X0203970Y0035103D02*
X0192325Y0035103D01*
X0190726Y0033504D02*
X0205741Y0033504D01*
X0215497Y0033504D02*
X0219520Y0033504D01*
X0219520Y0031906D02*
X0189128Y0031906D01*
X0182789Y0036701D02*
X0178449Y0036701D01*
X0180047Y0038300D02*
X0181191Y0038300D01*
X0151916Y0062278D02*
X0142719Y0062278D01*
X0142719Y0063876D02*
X0149570Y0063876D01*
X0149428Y0068672D02*
X0147719Y0068672D01*
X0147719Y0070270D02*
X0151467Y0070270D01*
X0143519Y0070270D02*
X0142719Y0070270D01*
X0142719Y0068672D02*
X0143519Y0068672D01*
X0143519Y0067073D02*
X0142719Y0067073D01*
X0142719Y0065475D02*
X0143541Y0065475D01*
X0138519Y0065475D02*
X0137719Y0065475D01*
X0137719Y0067073D02*
X0138519Y0067073D01*
X0138519Y0068672D02*
X0137719Y0068672D01*
X0137719Y0070270D02*
X0138519Y0070270D01*
X0138519Y0071869D02*
X0137719Y0071869D01*
X0137719Y0073467D02*
X0138519Y0073467D01*
X0138519Y0075066D02*
X0137719Y0075066D01*
X0137719Y0076664D02*
X0138519Y0076664D01*
X0138519Y0078263D02*
X0137719Y0078263D01*
X0137719Y0079861D02*
X0138519Y0079861D01*
X0138519Y0081460D02*
X0137719Y0081460D01*
X0137719Y0083058D02*
X0138519Y0083058D01*
X0138519Y0084657D02*
X0137719Y0084657D01*
X0137719Y0086255D02*
X0138519Y0086255D01*
X0138519Y0087854D02*
X0137719Y0087854D01*
X0137719Y0089452D02*
X0138519Y0089452D01*
X0138519Y0091051D02*
X0137719Y0091051D01*
X0137719Y0092649D02*
X0138519Y0092649D01*
X0138519Y0094248D02*
X0137719Y0094248D01*
X0137719Y0095846D02*
X0138519Y0095846D01*
X0138519Y0097445D02*
X0137719Y0097445D01*
X0137719Y0099043D02*
X0138519Y0099043D01*
X0138519Y0100642D02*
X0137719Y0100642D01*
X0137719Y0102240D02*
X0138519Y0102240D01*
X0138519Y0103839D02*
X0137719Y0103839D01*
X0137719Y0105437D02*
X0138519Y0105437D01*
X0138519Y0107036D02*
X0137719Y0107036D01*
X0137719Y0108634D02*
X0138519Y0108634D01*
X0138519Y0110233D02*
X0137719Y0110233D01*
X0137719Y0111831D02*
X0138519Y0111831D01*
X0138519Y0113430D02*
X0137719Y0113430D01*
X0137719Y0115028D02*
X0138519Y0115028D01*
X0138519Y0116627D02*
X0137719Y0116627D01*
X0137719Y0118226D02*
X0138519Y0118226D01*
X0138519Y0119824D02*
X0137719Y0119824D01*
X0137719Y0121423D02*
X0138519Y0121423D01*
X0138519Y0123021D02*
X0137719Y0123021D01*
X0137719Y0124620D02*
X0138519Y0124620D01*
X0138519Y0126218D02*
X0137719Y0126218D01*
X0137719Y0127817D02*
X0138519Y0127817D01*
X0138519Y0129415D02*
X0137719Y0129415D01*
X0137719Y0131014D02*
X0138519Y0131014D01*
X0138519Y0132612D02*
X0137719Y0132612D01*
X0137719Y0134211D02*
X0138519Y0134211D01*
X0138519Y0135809D02*
X0137719Y0135809D01*
X0137719Y0137408D02*
X0138519Y0137408D01*
X0138519Y0139006D02*
X0137719Y0139006D01*
X0137719Y0140605D02*
X0138519Y0140605D01*
X0138519Y0142203D02*
X0137719Y0142203D01*
X0137719Y0143802D02*
X0138519Y0143802D01*
X0138519Y0145400D02*
X0137719Y0145400D01*
X0137719Y0146999D02*
X0138519Y0146999D01*
X0138519Y0148597D02*
X0137719Y0148597D01*
X0137719Y0150196D02*
X0138519Y0150196D01*
X0138519Y0151794D02*
X0137719Y0151794D01*
X0137719Y0153393D02*
X0138519Y0153393D01*
X0138519Y0154991D02*
X0137719Y0154991D01*
X0137719Y0156590D02*
X0138519Y0156590D01*
X0138519Y0158188D02*
X0137719Y0158188D01*
X0137719Y0159787D02*
X0138519Y0159787D01*
X0138519Y0161385D02*
X0137719Y0161385D01*
X0137719Y0162984D02*
X0138519Y0162984D01*
X0138519Y0164582D02*
X0137719Y0164582D01*
X0137719Y0166181D02*
X0138519Y0166181D01*
X0138519Y0167779D02*
X0137719Y0167779D01*
X0137719Y0169378D02*
X0138519Y0169378D01*
X0138519Y0170976D02*
X0137719Y0170976D01*
X0137719Y0172575D02*
X0138519Y0172575D01*
X0138519Y0174173D02*
X0137719Y0174173D01*
X0137719Y0175772D02*
X0138519Y0175772D01*
X0138519Y0177370D02*
X0137719Y0177370D01*
X0137719Y0178969D02*
X0138519Y0178969D01*
X0138519Y0180567D02*
X0137719Y0180567D01*
X0133519Y0180567D02*
X0117719Y0180567D01*
X0117719Y0178969D02*
X0119681Y0178969D01*
X0119458Y0178746D02*
X0118819Y0177202D01*
X0118819Y0175531D01*
X0119458Y0173988D01*
X0120640Y0172806D01*
X0122183Y0172167D01*
X0129054Y0172167D01*
X0130598Y0172806D01*
X0131779Y0173988D01*
X0132419Y0175531D01*
X0132419Y0177202D01*
X0131779Y0178746D01*
X0130598Y0179928D01*
X0129054Y0180567D01*
X0122183Y0180567D01*
X0120640Y0179928D01*
X0119458Y0178746D01*
X0118889Y0177370D02*
X0117719Y0177370D01*
X0117719Y0175772D02*
X0118819Y0175772D01*
X0119381Y0174173D02*
X0117719Y0174173D01*
X0117719Y0172575D02*
X0121199Y0172575D01*
X0122183Y0170567D02*
X0120640Y0169928D01*
X0119458Y0168746D01*
X0119343Y0168467D01*
X0117719Y0168467D01*
X0117719Y0205497D01*
X0126489Y0214267D01*
X0127719Y0215497D01*
X0127719Y0216500D01*
X0128621Y0216874D01*
X0130112Y0218365D01*
X0130919Y0220313D01*
X0130919Y0222421D01*
X0130112Y0224369D01*
X0128621Y0225860D01*
X0126673Y0226667D01*
X0124565Y0226667D01*
X0122617Y0225860D01*
X0121126Y0224369D01*
X0120319Y0222421D01*
X0120319Y0220313D01*
X0121126Y0218365D01*
X0122617Y0216874D01*
X0122998Y0216716D01*
X0113519Y0207237D01*
X0113519Y0165497D01*
X0114749Y0164267D01*
X0119343Y0164267D01*
X0119458Y0163988D01*
X0120640Y0162806D01*
X0122183Y0162167D01*
X0129054Y0162167D01*
X0130598Y0162806D01*
X0131779Y0163988D01*
X0132419Y0165531D01*
X0132419Y0167202D01*
X0131779Y0168746D01*
X0130598Y0169928D01*
X0129054Y0170567D01*
X0122183Y0170567D01*
X0120090Y0169378D02*
X0117719Y0169378D01*
X0117719Y0170976D02*
X0133519Y0170976D01*
X0133519Y0169378D02*
X0131148Y0169378D01*
X0132180Y0167779D02*
X0133519Y0167779D01*
X0133519Y0166181D02*
X0132419Y0166181D01*
X0132026Y0164582D02*
X0133519Y0164582D01*
X0133519Y0162984D02*
X0130775Y0162984D01*
X0129054Y0160567D02*
X0130598Y0159928D01*
X0131779Y0158746D01*
X0132419Y0157202D01*
X0132419Y0155531D01*
X0131779Y0153988D01*
X0130598Y0152806D01*
X0129054Y0152167D01*
X0122183Y0152167D01*
X0120640Y0152806D01*
X0119458Y0153988D01*
X0118819Y0155531D01*
X0118819Y0157202D01*
X0119458Y0158746D01*
X0120640Y0159928D01*
X0122183Y0160567D01*
X0129054Y0160567D01*
X0130739Y0159787D02*
X0133519Y0159787D01*
X0133519Y0161385D02*
X0110219Y0161385D01*
X0110219Y0159787D02*
X0120499Y0159787D01*
X0119227Y0158188D02*
X0110219Y0158188D01*
X0110219Y0156590D02*
X0118819Y0156590D01*
X0119043Y0154991D02*
X0110219Y0154991D01*
X0110219Y0153393D02*
X0120053Y0153393D01*
X0121287Y0150196D02*
X0110219Y0150196D01*
X0110219Y0151794D02*
X0133519Y0151794D01*
X0133519Y0150196D02*
X0129950Y0150196D01*
X0130598Y0149928D02*
X0129054Y0150567D01*
X0122183Y0150567D01*
X0120640Y0149928D01*
X0119458Y0148746D01*
X0118819Y0147202D01*
X0118819Y0145531D01*
X0119458Y0143988D01*
X0120640Y0142806D01*
X0122183Y0142167D01*
X0129054Y0142167D01*
X0130598Y0142806D01*
X0131779Y0143988D01*
X0132419Y0145531D01*
X0132419Y0147202D01*
X0131779Y0148746D01*
X0130598Y0149928D01*
X0131841Y0148597D02*
X0133519Y0148597D01*
X0133519Y0146999D02*
X0132419Y0146999D01*
X0132364Y0145400D02*
X0133519Y0145400D01*
X0133519Y0143802D02*
X0131593Y0143802D01*
X0133519Y0142203D02*
X0129142Y0142203D01*
X0129054Y0140567D02*
X0130598Y0139928D01*
X0131779Y0138746D01*
X0132419Y0137202D01*
X0132419Y0135531D01*
X0131779Y0133988D01*
X0130598Y0132806D01*
X0129054Y0132167D01*
X0122183Y0132167D01*
X0120640Y0132806D01*
X0119458Y0133988D01*
X0118819Y0135531D01*
X0118819Y0137202D01*
X0119458Y0138746D01*
X0120640Y0139928D01*
X0122183Y0140567D01*
X0129054Y0140567D01*
X0131519Y0139006D02*
X0133519Y0139006D01*
X0133519Y0137408D02*
X0132334Y0137408D01*
X0132419Y0135809D02*
X0133519Y0135809D01*
X0133519Y0134211D02*
X0131872Y0134211D01*
X0133519Y0132612D02*
X0130129Y0132612D01*
X0129054Y0130567D02*
X0130598Y0129928D01*
X0131779Y0128746D01*
X0132419Y0127202D01*
X0132419Y0125531D01*
X0131779Y0123988D01*
X0130598Y0122806D01*
X0129054Y0122167D01*
X0122183Y0122167D01*
X0120640Y0122806D01*
X0119458Y0123988D01*
X0118819Y0125531D01*
X0118819Y0127202D01*
X0119458Y0128746D01*
X0120640Y0129928D01*
X0122183Y0130567D01*
X0129054Y0130567D01*
X0131110Y0129415D02*
X0133519Y0129415D01*
X0133519Y0127817D02*
X0132164Y0127817D01*
X0132419Y0126218D02*
X0133519Y0126218D01*
X0133519Y0124620D02*
X0132041Y0124620D01*
X0130813Y0123021D02*
X0133519Y0123021D01*
X0133519Y0121423D02*
X0110219Y0121423D01*
X0110219Y0123021D02*
X0120425Y0123021D01*
X0119197Y0124620D02*
X0110219Y0124620D01*
X0110219Y0126218D02*
X0118819Y0126218D01*
X0119073Y0127817D02*
X0110219Y0127817D01*
X0110219Y0129415D02*
X0120127Y0129415D01*
X0121109Y0132612D02*
X0110219Y0132612D01*
X0110219Y0131014D02*
X0133519Y0131014D01*
X0129908Y0120445D02*
X0129249Y0120659D01*
X0128565Y0120767D01*
X0125619Y0120767D01*
X0125619Y0116367D01*
X0132619Y0116367D01*
X0132619Y0116713D01*
X0132511Y0117397D01*
X0132297Y0118056D01*
X0131982Y0118673D01*
X0131575Y0119233D01*
X0131085Y0119723D01*
X0130525Y0120130D01*
X0129908Y0120445D01*
X0130946Y0119824D02*
X0133519Y0119824D01*
X0133519Y0118226D02*
X0132210Y0118226D01*
X0132619Y0116627D02*
X0133519Y0116627D01*
X0132619Y0116367D02*
X0125619Y0116367D01*
X0125619Y0116367D01*
X0125619Y0116367D01*
X0125619Y0120767D01*
X0122673Y0120767D01*
X0121989Y0120659D01*
X0121330Y0120445D01*
X0120713Y0120130D01*
X0120152Y0119723D01*
X0119663Y0119233D01*
X0119256Y0118673D01*
X0118941Y0118056D01*
X0118727Y0117397D01*
X0118619Y0116713D01*
X0118619Y0116367D01*
X0125619Y0116367D01*
X0125619Y0111967D01*
X0128565Y0111967D01*
X0129249Y0112075D01*
X0129908Y0112289D01*
X0130525Y0112604D01*
X0131085Y0113011D01*
X0131575Y0113501D01*
X0131982Y0114061D01*
X0132297Y0114678D01*
X0132511Y0115337D01*
X0132619Y0116021D01*
X0132619Y0116367D01*
X0132410Y0115028D02*
X0133519Y0115028D01*
X0133519Y0113430D02*
X0131504Y0113430D01*
X0133519Y0111831D02*
X0110219Y0111831D01*
X0110219Y0110233D02*
X0121377Y0110233D01*
X0120640Y0109928D02*
X0122183Y0110567D01*
X0129054Y0110567D01*
X0130598Y0109928D01*
X0131779Y0108746D01*
X0132419Y0107202D01*
X0132419Y0105531D01*
X0131779Y0103988D01*
X0130598Y0102806D01*
X0129054Y0102167D01*
X0122183Y0102167D01*
X0120640Y0102806D01*
X0119458Y0103988D01*
X0119343Y0104267D01*
X0107249Y0104267D01*
X0106019Y0105497D01*
X0106019Y0167997D01*
X0102249Y0171767D01*
X0102030Y0171767D01*
X0101426Y0171517D01*
X0099497Y0171517D01*
X0097714Y0172255D01*
X0096350Y0173620D01*
X0095611Y0175402D01*
X0095611Y0177332D01*
X0096350Y0179114D01*
X0097714Y0180479D01*
X0099497Y0181217D01*
X0101426Y0181217D01*
X0103209Y0180479D01*
X0104573Y0179114D01*
X0105311Y0177332D01*
X0105311Y0175402D01*
X0105089Y0174866D01*
X0105219Y0174737D01*
X0106019Y0173937D01*
X0106019Y0192997D01*
X0102231Y0196785D01*
X0101584Y0196517D01*
X0099654Y0196517D01*
X0097872Y0197255D01*
X0096507Y0198620D01*
X0095769Y0200402D01*
X0095769Y0202332D01*
X0096507Y0204114D01*
X0097872Y0205479D01*
X0099654Y0206217D01*
X0101584Y0206217D01*
X0103366Y0205479D01*
X0104731Y0204114D01*
X0105469Y0202332D01*
X0105469Y0200402D01*
X0105201Y0199755D01*
X0108989Y0195967D01*
X0110219Y0194737D01*
X0110219Y0108467D01*
X0119343Y0108467D01*
X0119458Y0108746D01*
X0120640Y0109928D01*
X0119412Y0108634D02*
X0110219Y0108634D01*
X0110219Y0113430D02*
X0119733Y0113430D01*
X0119663Y0113501D02*
X0120152Y0113011D01*
X0120713Y0112604D01*
X0121330Y0112289D01*
X0121989Y0112075D01*
X0122673Y0111967D01*
X0125619Y0111967D01*
X0125619Y0116367D01*
X0125619Y0116367D01*
X0125619Y0116367D01*
X0118619Y0116367D01*
X0118619Y0116021D01*
X0118727Y0115337D01*
X0118941Y0114678D01*
X0119256Y0114061D01*
X0119663Y0113501D01*
X0118827Y0115028D02*
X0110219Y0115028D01*
X0110219Y0116627D02*
X0118619Y0116627D01*
X0119028Y0118226D02*
X0110219Y0118226D01*
X0110219Y0119824D02*
X0120291Y0119824D01*
X0125619Y0119824D02*
X0125619Y0119824D01*
X0125619Y0118226D02*
X0125619Y0118226D01*
X0125619Y0116627D02*
X0125619Y0116627D01*
X0125619Y0115028D02*
X0125619Y0115028D01*
X0125619Y0113430D02*
X0125619Y0113430D01*
X0129861Y0110233D02*
X0133519Y0110233D01*
X0133519Y0108634D02*
X0131826Y0108634D01*
X0132419Y0107036D02*
X0133519Y0107036D01*
X0133519Y0105437D02*
X0132380Y0105437D01*
X0131631Y0103839D02*
X0133519Y0103839D01*
X0133519Y0102240D02*
X0129232Y0102240D01*
X0129054Y0100567D02*
X0122183Y0100567D01*
X0120640Y0099928D01*
X0119458Y0098746D01*
X0119343Y0098467D01*
X0105219Y0098467D01*
X0105219Y0152237D01*
X0104205Y0153251D01*
X0104573Y0153620D01*
X0105311Y0155402D01*
X0105311Y0157332D01*
X0104573Y0159114D01*
X0103209Y0160479D01*
X0101426Y0161217D01*
X0099497Y0161217D01*
X0098961Y0160995D01*
X0095219Y0164737D01*
X0095219Y0189737D01*
X0093989Y0190967D01*
X0085201Y0199755D01*
X0085469Y0200402D01*
X0085469Y0202332D01*
X0084731Y0204114D01*
X0083366Y0205479D01*
X0081584Y0206217D01*
X0079654Y0206217D01*
X0077872Y0205479D01*
X0076507Y0204114D01*
X0075769Y0202332D01*
X0075769Y0200402D01*
X0076507Y0198620D01*
X0077872Y0197255D01*
X0079654Y0196517D01*
X0081584Y0196517D01*
X0082231Y0196785D01*
X0091019Y0187997D01*
X0091019Y0162997D01*
X0095926Y0158090D01*
X0095611Y0157332D01*
X0095611Y0155402D01*
X0096350Y0153620D01*
X0097714Y0152255D01*
X0099497Y0151517D01*
X0099999Y0151517D01*
X0101019Y0150497D01*
X0101019Y0095497D01*
X0102249Y0094267D01*
X0119343Y0094267D01*
X0119458Y0093988D01*
X0120640Y0092806D01*
X0122183Y0092167D01*
X0129054Y0092167D01*
X0130598Y0092806D01*
X0131779Y0093988D01*
X0132419Y0095531D01*
X0132419Y0097202D01*
X0131779Y0098746D01*
X0130598Y0099928D01*
X0129054Y0100567D01*
X0131482Y0099043D02*
X0133519Y0099043D01*
X0133519Y0097445D02*
X0132318Y0097445D01*
X0132419Y0095846D02*
X0133519Y0095846D01*
X0133519Y0094248D02*
X0131887Y0094248D01*
X0133519Y0092649D02*
X0130219Y0092649D01*
X0129054Y0090567D02*
X0130598Y0089928D01*
X0131779Y0088746D01*
X0132419Y0087202D01*
X0132419Y0085531D01*
X0131779Y0083988D01*
X0130598Y0082806D01*
X0129054Y0082167D01*
X0122183Y0082167D01*
X0120640Y0082806D01*
X0119458Y0083988D01*
X0118819Y0085531D01*
X0118819Y0087202D01*
X0119458Y0088746D01*
X0120640Y0089928D01*
X0122183Y0090567D01*
X0129054Y0090567D01*
X0131073Y0089452D02*
X0133519Y0089452D01*
X0133519Y0087854D02*
X0132149Y0087854D01*
X0132419Y0086255D02*
X0133519Y0086255D01*
X0133519Y0084657D02*
X0132057Y0084657D01*
X0130850Y0083058D02*
X0133519Y0083058D01*
X0133519Y0081460D02*
X0112173Y0081460D01*
X0111673Y0081667D02*
X0109565Y0081667D01*
X0107617Y0080860D01*
X0106126Y0079369D01*
X0105319Y0077421D01*
X0105319Y0075313D01*
X0106126Y0073365D01*
X0107617Y0071874D01*
X0109565Y0071067D01*
X0111673Y0071067D01*
X0113621Y0071874D01*
X0115112Y0073365D01*
X0115919Y0075313D01*
X0115919Y0077421D01*
X0115112Y0079369D01*
X0113621Y0080860D01*
X0111673Y0081667D01*
X0109065Y0081460D02*
X0097719Y0081460D01*
X0097719Y0083058D02*
X0120388Y0083058D01*
X0119181Y0084657D02*
X0097719Y0084657D01*
X0097719Y0086255D02*
X0118819Y0086255D01*
X0119089Y0087854D02*
X0097719Y0087854D01*
X0097719Y0089452D02*
X0120165Y0089452D01*
X0121019Y0092649D02*
X0097719Y0092649D01*
X0097719Y0091051D02*
X0133519Y0091051D01*
X0133519Y0100642D02*
X0105219Y0100642D01*
X0105219Y0102240D02*
X0122006Y0102240D01*
X0119607Y0103839D02*
X0105219Y0103839D01*
X0105219Y0105437D02*
X0106079Y0105437D01*
X0106019Y0107036D02*
X0105219Y0107036D01*
X0105219Y0108634D02*
X0106019Y0108634D01*
X0106019Y0110233D02*
X0105219Y0110233D01*
X0105219Y0111831D02*
X0106019Y0111831D01*
X0106019Y0113430D02*
X0105219Y0113430D01*
X0105219Y0115028D02*
X0106019Y0115028D01*
X0106019Y0116627D02*
X0105219Y0116627D01*
X0105219Y0118226D02*
X0106019Y0118226D01*
X0106019Y0119824D02*
X0105219Y0119824D01*
X0105219Y0121423D02*
X0106019Y0121423D01*
X0106019Y0123021D02*
X0105219Y0123021D01*
X0105219Y0124620D02*
X0106019Y0124620D01*
X0106019Y0126218D02*
X0105219Y0126218D01*
X0105219Y0127817D02*
X0106019Y0127817D01*
X0106019Y0129415D02*
X0105219Y0129415D01*
X0105219Y0131014D02*
X0106019Y0131014D01*
X0106019Y0132612D02*
X0105219Y0132612D01*
X0105219Y0134211D02*
X0106019Y0134211D01*
X0106019Y0135809D02*
X0105219Y0135809D01*
X0105219Y0137408D02*
X0106019Y0137408D01*
X0106019Y0139006D02*
X0105219Y0139006D01*
X0105219Y0140605D02*
X0106019Y0140605D01*
X0106019Y0142203D02*
X0105219Y0142203D01*
X0105219Y0143802D02*
X0106019Y0143802D01*
X0106019Y0145400D02*
X0105219Y0145400D01*
X0105219Y0146999D02*
X0106019Y0146999D01*
X0106019Y0148597D02*
X0105219Y0148597D01*
X0105219Y0150196D02*
X0106019Y0150196D01*
X0106019Y0151794D02*
X0105219Y0151794D01*
X0106019Y0153393D02*
X0104346Y0153393D01*
X0105141Y0154991D02*
X0106019Y0154991D01*
X0106019Y0156590D02*
X0105311Y0156590D01*
X0104957Y0158188D02*
X0106019Y0158188D01*
X0106019Y0159787D02*
X0103900Y0159787D01*
X0106019Y0161385D02*
X0098570Y0161385D01*
X0096972Y0162984D02*
X0106019Y0162984D01*
X0106019Y0164582D02*
X0095373Y0164582D01*
X0095219Y0166181D02*
X0106019Y0166181D01*
X0106019Y0167779D02*
X0095219Y0167779D01*
X0095219Y0169378D02*
X0104638Y0169378D01*
X0103040Y0170976D02*
X0095219Y0170976D01*
X0095219Y0172575D02*
X0097395Y0172575D01*
X0096120Y0174173D02*
X0095219Y0174173D01*
X0095219Y0175772D02*
X0095611Y0175772D01*
X0095627Y0177370D02*
X0095219Y0177370D01*
X0095219Y0178969D02*
X0096290Y0178969D01*
X0095219Y0180567D02*
X0097929Y0180567D01*
X0095219Y0182166D02*
X0106019Y0182166D01*
X0106019Y0183764D02*
X0095219Y0183764D01*
X0095219Y0185363D02*
X0106019Y0185363D01*
X0106019Y0186961D02*
X0095219Y0186961D01*
X0095219Y0188560D02*
X0106019Y0188560D01*
X0106019Y0190159D02*
X0094797Y0190159D01*
X0093199Y0191757D02*
X0106019Y0191757D01*
X0105660Y0193356D02*
X0091600Y0193356D01*
X0090002Y0194954D02*
X0104062Y0194954D01*
X0102463Y0196553D02*
X0101670Y0196553D01*
X0099568Y0196553D02*
X0088403Y0196553D01*
X0086805Y0198151D02*
X0096976Y0198151D01*
X0096039Y0199750D02*
X0085206Y0199750D01*
X0085469Y0201348D02*
X0095769Y0201348D01*
X0096024Y0202947D02*
X0085214Y0202947D01*
X0084300Y0204545D02*
X0096938Y0204545D01*
X0099477Y0206144D02*
X0081761Y0206144D01*
X0079477Y0206144D02*
X0068419Y0206144D01*
X0068419Y0207742D02*
X0114024Y0207742D01*
X0113519Y0206144D02*
X0101761Y0206144D01*
X0104300Y0204545D02*
X0113519Y0204545D01*
X0113519Y0202947D02*
X0105214Y0202947D01*
X0105469Y0201348D02*
X0113519Y0201348D01*
X0113519Y0199750D02*
X0105206Y0199750D01*
X0106805Y0198151D02*
X0113519Y0198151D01*
X0113519Y0196553D02*
X0108403Y0196553D01*
X0110002Y0194954D02*
X0113519Y0194954D01*
X0113519Y0193356D02*
X0110219Y0193356D01*
X0110219Y0191757D02*
X0113519Y0191757D01*
X0113519Y0190159D02*
X0110219Y0190159D01*
X0110219Y0188560D02*
X0113519Y0188560D01*
X0113519Y0186961D02*
X0110219Y0186961D01*
X0110219Y0185363D02*
X0113519Y0185363D01*
X0113519Y0183764D02*
X0110219Y0183764D01*
X0110219Y0182166D02*
X0113519Y0182166D01*
X0113519Y0180567D02*
X0110219Y0180567D01*
X0110219Y0178969D02*
X0113519Y0178969D01*
X0113519Y0177370D02*
X0110219Y0177370D01*
X0110219Y0175772D02*
X0113519Y0175772D01*
X0113519Y0174173D02*
X0110219Y0174173D01*
X0110219Y0172575D02*
X0113519Y0172575D01*
X0113519Y0170976D02*
X0110219Y0170976D01*
X0110219Y0169378D02*
X0113519Y0169378D01*
X0113519Y0167779D02*
X0110219Y0167779D01*
X0110219Y0166181D02*
X0113519Y0166181D01*
X0114434Y0164582D02*
X0110219Y0164582D01*
X0110219Y0162984D02*
X0120462Y0162984D01*
X0130039Y0172575D02*
X0133519Y0172575D01*
X0133519Y0174173D02*
X0131856Y0174173D01*
X0132419Y0175772D02*
X0133519Y0175772D01*
X0133519Y0177370D02*
X0132349Y0177370D01*
X0131557Y0178969D02*
X0133519Y0178969D01*
X0133519Y0182166D02*
X0117719Y0182166D01*
X0117719Y0183764D02*
X0119682Y0183764D01*
X0118889Y0185363D02*
X0117719Y0185363D01*
X0117719Y0186961D02*
X0118819Y0186961D01*
X0119381Y0188560D02*
X0117719Y0188560D01*
X0117719Y0190159D02*
X0121197Y0190159D01*
X0117719Y0191757D02*
X0145539Y0191757D01*
X0143941Y0190159D02*
X0130040Y0190159D01*
X0131857Y0188560D02*
X0143519Y0188560D01*
X0143519Y0186961D02*
X0142555Y0186961D01*
X0138683Y0186961D02*
X0137719Y0186961D01*
X0133519Y0183764D02*
X0131556Y0183764D01*
X0147719Y0183764D02*
X0149682Y0183764D01*
X0148889Y0185363D02*
X0147719Y0185363D01*
X0147719Y0186961D02*
X0148819Y0186961D01*
X0148282Y0188560D02*
X0149381Y0188560D01*
X0149880Y0190159D02*
X0151197Y0190159D01*
X0147138Y0193356D02*
X0117719Y0193356D01*
X0117719Y0194954D02*
X0148736Y0194954D01*
X0150335Y0196553D02*
X0117719Y0196553D01*
X0117719Y0198151D02*
X0151933Y0198151D01*
X0153532Y0199750D02*
X0117719Y0199750D01*
X0117719Y0201348D02*
X0155130Y0201348D01*
X0156729Y0202947D02*
X0117719Y0202947D01*
X0117719Y0204545D02*
X0158327Y0204545D01*
X0159926Y0206144D02*
X0118365Y0206144D01*
X0119964Y0207742D02*
X0161524Y0207742D01*
X0163123Y0209341D02*
X0121562Y0209341D01*
X0123161Y0210939D02*
X0164721Y0210939D01*
X0166320Y0212538D02*
X0124759Y0212538D01*
X0126358Y0214136D02*
X0167918Y0214136D01*
X0169517Y0215735D02*
X0127719Y0215735D01*
X0129080Y0217333D02*
X0171115Y0217333D01*
X0172714Y0218932D02*
X0130347Y0218932D01*
X0130919Y0220530D02*
X0174312Y0220530D01*
X0175911Y0222129D02*
X0130919Y0222129D01*
X0130378Y0223727D02*
X0177509Y0223727D01*
X0179108Y0225326D02*
X0129155Y0225326D01*
X0122082Y0225326D02*
X0104683Y0225326D01*
X0104935Y0226924D02*
X0180706Y0226924D01*
X0182305Y0228523D02*
X0104776Y0228523D01*
X0104114Y0230121D02*
X0183903Y0230121D01*
X0185502Y0231720D02*
X0102545Y0231720D01*
X0103920Y0223727D02*
X0120860Y0223727D01*
X0120319Y0222129D02*
X0102020Y0222129D01*
X0115623Y0209341D02*
X0068419Y0209341D01*
X0068419Y0210939D02*
X0117221Y0210939D01*
X0118820Y0212538D02*
X0068419Y0212538D01*
X0062819Y0212538D02*
X0049285Y0212538D01*
X0050432Y0214136D02*
X0062819Y0214136D01*
X0062819Y0215735D02*
X0050919Y0215735D01*
X0050919Y0217333D02*
X0062988Y0217333D01*
X0064494Y0218932D02*
X0050293Y0218932D01*
X0048951Y0220530D02*
X0080822Y0220530D01*
X0082421Y0222129D02*
X0048876Y0222129D01*
X0050262Y0223727D02*
X0084019Y0223727D01*
X0085618Y0225326D02*
X0050919Y0225326D01*
X0050919Y0226924D02*
X0085987Y0226924D01*
X0086147Y0228523D02*
X0050463Y0228523D01*
X0049360Y0230121D02*
X0072607Y0230121D01*
X0072770Y0230004D02*
X0073574Y0229594D01*
X0074433Y0229314D01*
X0075325Y0229173D01*
X0075592Y0229173D01*
X0075592Y0238663D01*
X0070039Y0238663D01*
X0070039Y0234459D01*
X0070181Y0233567D01*
X0070460Y0232708D01*
X0070870Y0231903D01*
X0071400Y0231173D01*
X0072039Y0230534D01*
X0072770Y0230004D01*
X0071003Y0231720D02*
X0048249Y0231720D01*
X0050066Y0233318D02*
X0070261Y0233318D01*
X0070039Y0234917D02*
X0050755Y0234917D01*
X0050919Y0236515D02*
X0070039Y0236515D01*
X0070039Y0238114D02*
X0050632Y0238114D01*
X0049769Y0239712D02*
X0070039Y0239712D01*
X0070039Y0239031D02*
X0075592Y0239031D01*
X0075592Y0238663D01*
X0075961Y0238663D01*
X0075961Y0239031D01*
X0081513Y0239031D01*
X0081513Y0243236D01*
X0081372Y0244128D01*
X0081093Y0244986D01*
X0080683Y0245791D01*
X0080152Y0246522D01*
X0079514Y0247160D01*
X0078783Y0247691D01*
X0077979Y0248101D01*
X0077120Y0248380D01*
X0076228Y0248521D01*
X0075961Y0248521D01*
X0075961Y0239032D01*
X0075592Y0239032D01*
X0075592Y0248521D01*
X0075325Y0248521D01*
X0074433Y0248380D01*
X0073574Y0248101D01*
X0072770Y0247691D01*
X0072039Y0247160D01*
X0071400Y0246522D01*
X0070870Y0245791D01*
X0070460Y0244986D01*
X0070181Y0244128D01*
X0070039Y0243236D01*
X0070039Y0239031D01*
X0070039Y0241311D02*
X0050508Y0241311D01*
X0051119Y0242909D02*
X0070039Y0242909D01*
X0070304Y0244508D02*
X0051119Y0244508D01*
X0051119Y0246106D02*
X0071099Y0246106D01*
X0072797Y0247705D02*
X0051119Y0247705D01*
X0051119Y0249303D02*
X0086378Y0249303D01*
X0086208Y0249637D02*
X0086618Y0248833D01*
X0087148Y0248102D01*
X0087787Y0247463D01*
X0088518Y0246933D01*
X0089322Y0246523D01*
X0090181Y0246244D01*
X0091073Y0246102D01*
X0095277Y0246102D01*
X0095277Y0251655D01*
X0085787Y0251655D01*
X0085787Y0251388D01*
X0085929Y0250496D01*
X0086208Y0249637D01*
X0085864Y0250902D02*
X0050915Y0250902D01*
X0052165Y0252500D02*
X0085821Y0252500D01*
X0085787Y0252291D02*
X0085929Y0253183D01*
X0086208Y0254042D01*
X0086618Y0254846D01*
X0087148Y0255577D01*
X0087787Y0256215D01*
X0088518Y0256746D01*
X0089322Y0257156D01*
X0090181Y0257435D01*
X0091073Y0257576D01*
X0095277Y0257576D01*
X0095277Y0252024D01*
X0095646Y0252024D01*
X0095646Y0257576D01*
X0099850Y0257576D01*
X0100742Y0257435D01*
X0101601Y0257156D01*
X0102405Y0256746D01*
X0103136Y0256215D01*
X0103774Y0255577D01*
X0104305Y0254846D01*
X0104715Y0254042D01*
X0104994Y0253183D01*
X0105135Y0252291D01*
X0105135Y0252024D01*
X0095646Y0252024D01*
X0095646Y0251655D01*
X0105135Y0251655D01*
X0105135Y0251388D01*
X0104994Y0250496D01*
X0104715Y0249637D01*
X0104305Y0248833D01*
X0103774Y0248102D01*
X0103136Y0247463D01*
X0102405Y0246933D01*
X0101601Y0246523D01*
X0100742Y0246244D01*
X0099850Y0246102D01*
X0095646Y0246102D01*
X0095646Y0251655D01*
X0095277Y0251655D01*
X0095277Y0252024D01*
X0085787Y0252024D01*
X0085787Y0252291D01*
X0086237Y0254099D02*
X0053527Y0254099D01*
X0054189Y0255697D02*
X0087269Y0255697D01*
X0089753Y0257296D02*
X0054750Y0257296D01*
X0054750Y0258895D02*
X0201488Y0258895D01*
X0201488Y0260493D02*
X0054750Y0260493D01*
X0054166Y0262092D02*
X0202072Y0262092D01*
X0202734Y0263690D02*
X0053504Y0263690D01*
X0052110Y0265289D02*
X0204128Y0265289D01*
X0201488Y0257296D02*
X0101170Y0257296D01*
X0103654Y0255697D02*
X0202049Y0255697D01*
X0202711Y0254099D02*
X0104686Y0254099D01*
X0105102Y0252500D02*
X0204073Y0252500D01*
X0205988Y0250902D02*
X0105058Y0250902D01*
X0104545Y0249303D02*
X0210599Y0249303D01*
X0209936Y0247705D02*
X0103377Y0247705D01*
X0099875Y0246106D02*
X0209819Y0246106D01*
X0210152Y0244508D02*
X0081249Y0244508D01*
X0081513Y0242909D02*
X0211081Y0242909D01*
X0213476Y0241311D02*
X0081513Y0241311D01*
X0081513Y0239712D02*
X0211969Y0239712D01*
X0211672Y0233318D02*
X0193040Y0233318D01*
X0191442Y0231720D02*
X0210682Y0231720D01*
X0209619Y0230121D02*
X0189843Y0230121D01*
X0188245Y0228523D02*
X0209619Y0228523D01*
X0209619Y0226924D02*
X0186646Y0226924D01*
X0185048Y0225326D02*
X0209619Y0225326D01*
X0209619Y0226167D02*
X0209619Y0222430D01*
X0209742Y0221972D01*
X0209979Y0221562D01*
X0210314Y0221227D01*
X0210724Y0220990D01*
X0211182Y0220867D01*
X0214919Y0220867D01*
X0214919Y0226167D01*
X0209619Y0226167D01*
X0209619Y0223727D02*
X0183449Y0223727D01*
X0181851Y0222129D02*
X0209700Y0222129D01*
X0214919Y0222129D02*
X0215319Y0222129D01*
X0215319Y0223727D02*
X0214919Y0223727D01*
X0214919Y0225326D02*
X0215319Y0225326D01*
X0219520Y0220530D02*
X0180252Y0220530D01*
X0178654Y0218932D02*
X0219520Y0218932D01*
X0219520Y0217333D02*
X0177055Y0217333D01*
X0175457Y0215735D02*
X0212991Y0215735D01*
X0211529Y0214136D02*
X0173858Y0214136D01*
X0172259Y0212538D02*
X0210867Y0212538D01*
X0210819Y0210939D02*
X0170661Y0210939D01*
X0169062Y0209341D02*
X0210623Y0209341D01*
X0209024Y0207742D02*
X0167464Y0207742D01*
X0165865Y0206144D02*
X0207426Y0206144D01*
X0205827Y0204545D02*
X0164267Y0204545D01*
X0162668Y0202947D02*
X0204229Y0202947D01*
X0202630Y0201348D02*
X0161070Y0201348D01*
X0159471Y0199750D02*
X0201032Y0199750D01*
X0199433Y0198151D02*
X0157873Y0198151D01*
X0156274Y0196553D02*
X0197835Y0196553D01*
X0200577Y0193356D02*
X0211206Y0193356D01*
X0210819Y0192421D02*
X0210819Y0190313D01*
X0211626Y0188365D01*
X0213117Y0186874D01*
X0213133Y0186867D01*
X0211182Y0186867D01*
X0210724Y0186744D01*
X0210314Y0186507D01*
X0209979Y0186172D01*
X0209742Y0185762D01*
X0209619Y0185304D01*
X0209619Y0181567D01*
X0214919Y0181567D01*
X0214919Y0181167D01*
X0215319Y0181167D01*
X0215319Y0175867D01*
X0219056Y0175867D01*
X0219514Y0175990D01*
X0219520Y0175993D01*
X0219520Y0170461D01*
X0219121Y0170860D01*
X0217173Y0171667D01*
X0215065Y0171667D01*
X0213809Y0171147D01*
X0196089Y0188867D01*
X0209943Y0202722D01*
X0209819Y0202421D01*
X0209819Y0200313D01*
X0210626Y0198365D01*
X0212117Y0196874D01*
X0213840Y0196160D01*
X0213117Y0195860D01*
X0211626Y0194369D01*
X0210819Y0192421D01*
X0210819Y0191757D02*
X0198979Y0191757D01*
X0197380Y0190159D02*
X0210883Y0190159D01*
X0211545Y0188560D02*
X0196396Y0188560D01*
X0197994Y0186961D02*
X0213029Y0186961D01*
X0209635Y0185363D02*
X0199593Y0185363D01*
X0201191Y0183764D02*
X0209619Y0183764D01*
X0209619Y0182166D02*
X0202790Y0182166D01*
X0204388Y0180567D02*
X0209619Y0180567D01*
X0209619Y0181167D02*
X0209619Y0177430D01*
X0209742Y0176972D01*
X0209979Y0176562D01*
X0210314Y0176227D01*
X0210724Y0175990D01*
X0211182Y0175867D01*
X0214919Y0175867D01*
X0214919Y0181167D01*
X0209619Y0181167D01*
X0209619Y0178969D02*
X0205987Y0178969D01*
X0207585Y0177370D02*
X0209635Y0177370D01*
X0209184Y0175772D02*
X0219520Y0175772D01*
X0219520Y0174173D02*
X0210782Y0174173D01*
X0212381Y0172575D02*
X0219520Y0172575D01*
X0219520Y0170976D02*
X0218840Y0170976D01*
X0215319Y0177370D02*
X0214919Y0177370D01*
X0214919Y0178969D02*
X0215319Y0178969D01*
X0215319Y0180567D02*
X0214919Y0180567D01*
X0212211Y0194954D02*
X0202176Y0194954D01*
X0203774Y0196553D02*
X0212892Y0196553D01*
X0210839Y0198151D02*
X0205373Y0198151D01*
X0206971Y0199750D02*
X0210052Y0199750D01*
X0209819Y0201348D02*
X0208570Y0201348D01*
X0219246Y0215735D02*
X0219520Y0215735D01*
X0191896Y0238114D02*
X0081513Y0238114D01*
X0081513Y0238663D02*
X0075961Y0238663D01*
X0075961Y0229173D01*
X0076228Y0229173D01*
X0077120Y0229314D01*
X0077979Y0229594D01*
X0078783Y0230004D01*
X0079514Y0230534D01*
X0080152Y0231173D01*
X0080683Y0231903D01*
X0081093Y0232708D01*
X0081372Y0233567D01*
X0081513Y0234459D01*
X0081513Y0238663D01*
X0081513Y0236515D02*
X0190297Y0236515D01*
X0188699Y0234917D02*
X0081513Y0234917D01*
X0081291Y0233318D02*
X0187100Y0233318D01*
X0188334Y0174173D02*
X0181395Y0174173D01*
X0179797Y0172575D02*
X0187223Y0172575D01*
X0187019Y0170976D02*
X0178198Y0170976D01*
X0176600Y0169378D02*
X0185660Y0169378D01*
X0184061Y0167779D02*
X0175001Y0167779D01*
X0173403Y0166181D02*
X0183519Y0166181D01*
X0152096Y0142203D02*
X0147719Y0142203D01*
X0147719Y0143802D02*
X0149644Y0143802D01*
X0148873Y0145400D02*
X0147719Y0145400D01*
X0147719Y0146999D02*
X0148819Y0146999D01*
X0149397Y0148597D02*
X0147719Y0148597D01*
X0143519Y0148597D02*
X0142719Y0148597D01*
X0142719Y0146999D02*
X0143519Y0146999D01*
X0143519Y0145400D02*
X0142719Y0145400D01*
X0142719Y0143802D02*
X0143519Y0143802D01*
X0143519Y0142203D02*
X0142719Y0142203D01*
X0142719Y0140605D02*
X0143519Y0140605D01*
X0143519Y0139006D02*
X0142719Y0139006D01*
X0142719Y0137408D02*
X0143519Y0137408D01*
X0143519Y0135809D02*
X0142719Y0135809D01*
X0142719Y0134211D02*
X0143519Y0134211D01*
X0143519Y0132612D02*
X0142719Y0132612D01*
X0142719Y0131014D02*
X0143519Y0131014D01*
X0143519Y0129415D02*
X0142719Y0129415D01*
X0142719Y0127817D02*
X0143519Y0127817D01*
X0143519Y0126218D02*
X0142719Y0126218D01*
X0142719Y0124620D02*
X0143519Y0124620D01*
X0143519Y0123021D02*
X0142719Y0123021D01*
X0142719Y0121423D02*
X0143519Y0121423D01*
X0143519Y0119824D02*
X0142719Y0119824D01*
X0142719Y0118226D02*
X0143519Y0118226D01*
X0143519Y0116627D02*
X0142719Y0116627D01*
X0142719Y0115028D02*
X0143519Y0115028D01*
X0143519Y0113430D02*
X0142719Y0113430D01*
X0142719Y0111831D02*
X0143519Y0111831D01*
X0143519Y0110233D02*
X0142719Y0110233D01*
X0142719Y0108634D02*
X0143519Y0108634D01*
X0143519Y0107036D02*
X0142719Y0107036D01*
X0142719Y0105437D02*
X0143519Y0105437D01*
X0143519Y0103839D02*
X0142719Y0103839D01*
X0142719Y0102240D02*
X0143519Y0102240D01*
X0143519Y0100642D02*
X0142719Y0100642D01*
X0142719Y0099043D02*
X0143519Y0099043D01*
X0143519Y0097445D02*
X0142719Y0097445D01*
X0142719Y0095846D02*
X0143519Y0095846D01*
X0143519Y0094248D02*
X0142719Y0094248D01*
X0142719Y0092649D02*
X0143519Y0092649D01*
X0143519Y0091051D02*
X0142719Y0091051D01*
X0142719Y0089452D02*
X0143519Y0089452D01*
X0143519Y0087854D02*
X0142719Y0087854D01*
X0142719Y0086255D02*
X0143519Y0086255D01*
X0143519Y0084657D02*
X0142719Y0084657D01*
X0142719Y0083058D02*
X0143519Y0083058D01*
X0143519Y0081460D02*
X0142719Y0081460D01*
X0142719Y0079861D02*
X0143519Y0079861D01*
X0143519Y0078263D02*
X0142719Y0078263D01*
X0142719Y0076664D02*
X0143519Y0076664D01*
X0143519Y0075066D02*
X0142719Y0075066D01*
X0142719Y0073467D02*
X0143519Y0073467D01*
X0143519Y0071869D02*
X0142719Y0071869D01*
X0138519Y0063876D02*
X0137719Y0063876D01*
X0137719Y0062278D02*
X0138519Y0062278D01*
X0138519Y0060679D02*
X0137719Y0060679D01*
X0137719Y0059081D02*
X0138519Y0059081D01*
X0138519Y0057482D02*
X0137719Y0057482D01*
X0137719Y0055884D02*
X0138519Y0055884D01*
X0137719Y0054285D02*
X0139731Y0054285D01*
X0133519Y0062278D02*
X0129322Y0062278D01*
X0131668Y0063876D02*
X0133519Y0063876D01*
X0133519Y0065475D02*
X0132395Y0065475D01*
X0132419Y0067073D02*
X0133519Y0067073D01*
X0133519Y0068672D02*
X0131810Y0068672D01*
X0133519Y0070270D02*
X0129771Y0070270D01*
X0129054Y0072167D02*
X0130598Y0072806D01*
X0131779Y0073988D01*
X0132419Y0075531D01*
X0132419Y0077202D01*
X0131779Y0078746D01*
X0130598Y0079928D01*
X0129054Y0080567D01*
X0122183Y0080567D01*
X0120640Y0079928D01*
X0119458Y0078746D01*
X0118819Y0077202D01*
X0118819Y0075531D01*
X0119458Y0073988D01*
X0120640Y0072806D01*
X0122183Y0072167D01*
X0129054Y0072167D01*
X0131259Y0073467D02*
X0133519Y0073467D01*
X0133519Y0071869D02*
X0113609Y0071869D01*
X0115154Y0073467D02*
X0119979Y0073467D01*
X0119012Y0075066D02*
X0115817Y0075066D01*
X0115919Y0076664D02*
X0118819Y0076664D01*
X0119258Y0078263D02*
X0115570Y0078263D01*
X0114620Y0079861D02*
X0120574Y0079861D01*
X0121467Y0070270D02*
X0097719Y0070270D01*
X0097719Y0068672D02*
X0119428Y0068672D01*
X0118819Y0067073D02*
X0097719Y0067073D01*
X0097719Y0065475D02*
X0118842Y0065475D01*
X0119570Y0063876D02*
X0097719Y0063876D01*
X0097719Y0071869D02*
X0107629Y0071869D01*
X0106083Y0073467D02*
X0097719Y0073467D01*
X0097719Y0075066D02*
X0105421Y0075066D01*
X0105319Y0076664D02*
X0097719Y0076664D01*
X0097719Y0078263D02*
X0105667Y0078263D01*
X0106618Y0079861D02*
X0097719Y0079861D01*
X0097719Y0094248D02*
X0119351Y0094248D01*
X0119756Y0099043D02*
X0105219Y0099043D01*
X0101019Y0099043D02*
X0100469Y0099043D01*
X0100460Y0097445D02*
X0101019Y0097445D01*
X0101019Y0095846D02*
X0097719Y0095846D01*
X0100469Y0100642D02*
X0101019Y0100642D01*
X0101019Y0102240D02*
X0100469Y0102240D01*
X0100469Y0103839D02*
X0101019Y0103839D01*
X0101019Y0105437D02*
X0100311Y0105437D01*
X0101019Y0107036D02*
X0097719Y0107036D01*
X0097719Y0108634D02*
X0101019Y0108634D01*
X0101019Y0110233D02*
X0097719Y0110233D01*
X0097719Y0111831D02*
X0101019Y0111831D01*
X0101019Y0113430D02*
X0097719Y0113430D01*
X0097719Y0115028D02*
X0101019Y0115028D01*
X0101019Y0116627D02*
X0097719Y0116627D01*
X0097719Y0118226D02*
X0101019Y0118226D01*
X0101019Y0119824D02*
X0097719Y0119824D01*
X0097719Y0121423D02*
X0101019Y0121423D01*
X0101019Y0123021D02*
X0097719Y0123021D01*
X0097719Y0124620D02*
X0101019Y0124620D01*
X0101019Y0126218D02*
X0097719Y0126218D01*
X0100469Y0127817D02*
X0101019Y0127817D01*
X0101019Y0129415D02*
X0100469Y0129415D01*
X0100469Y0131014D02*
X0101019Y0131014D01*
X0101019Y0132612D02*
X0100469Y0132612D01*
X0100469Y0134211D02*
X0101019Y0134211D01*
X0101019Y0135809D02*
X0099939Y0135809D01*
X0101019Y0140605D02*
X0051149Y0140605D01*
X0051219Y0142203D02*
X0101019Y0142203D01*
X0101019Y0143802D02*
X0051493Y0143802D01*
X0053091Y0145400D02*
X0101019Y0145400D01*
X0101019Y0146999D02*
X0054690Y0146999D01*
X0056288Y0148597D02*
X0101019Y0148597D01*
X0101019Y0150196D02*
X0057887Y0150196D01*
X0059486Y0151794D02*
X0078627Y0151794D01*
X0078838Y0151687D02*
X0079594Y0151441D01*
X0080379Y0151317D01*
X0080776Y0151317D01*
X0080776Y0156367D01*
X0080776Y0156367D01*
X0075726Y0156367D01*
X0075726Y0156764D01*
X0075851Y0157549D01*
X0076096Y0158305D01*
X0076457Y0159014D01*
X0076924Y0159657D01*
X0077487Y0160219D01*
X0078130Y0160686D01*
X0078838Y0161047D01*
X0079594Y0161293D01*
X0080379Y0161417D01*
X0080776Y0161417D01*
X0080776Y0156367D01*
X0075726Y0156367D01*
X0075726Y0155969D01*
X0075851Y0155184D01*
X0076096Y0154428D01*
X0076457Y0153720D01*
X0076924Y0153077D01*
X0077487Y0152515D01*
X0078130Y0152048D01*
X0078838Y0151687D01*
X0080776Y0151794D02*
X0080776Y0151794D01*
X0080776Y0151317D02*
X0081174Y0151317D01*
X0081959Y0151441D01*
X0082715Y0151687D01*
X0083423Y0152048D01*
X0084066Y0152515D01*
X0084628Y0153077D01*
X0085096Y0153720D01*
X0085456Y0154428D01*
X0085702Y0155184D01*
X0085826Y0155969D01*
X0085826Y0156367D01*
X0085826Y0156764D01*
X0085702Y0157549D01*
X0085456Y0158305D01*
X0085096Y0159014D01*
X0084628Y0159657D01*
X0084066Y0160219D01*
X0083423Y0160686D01*
X0082715Y0161047D01*
X0081959Y0161293D01*
X0081174Y0161417D01*
X0080776Y0161417D01*
X0080776Y0156367D01*
X0080776Y0156367D01*
X0080776Y0156367D01*
X0080776Y0151317D01*
X0080776Y0153393D02*
X0080776Y0153393D01*
X0080776Y0154991D02*
X0080776Y0154991D01*
X0080777Y0156367D02*
X0080777Y0156367D01*
X0085826Y0156367D01*
X0080777Y0156367D01*
X0080776Y0156590D02*
X0080776Y0156590D01*
X0080776Y0158188D02*
X0080776Y0158188D01*
X0080776Y0159787D02*
X0080776Y0159787D01*
X0080776Y0161385D02*
X0080776Y0161385D01*
X0080179Y0161385D02*
X0068419Y0161385D01*
X0068419Y0162984D02*
X0091032Y0162984D01*
X0091019Y0164582D02*
X0068419Y0164582D01*
X0068419Y0166181D02*
X0091019Y0166181D01*
X0091019Y0167779D02*
X0068419Y0167779D01*
X0068419Y0169378D02*
X0091019Y0169378D01*
X0091019Y0170976D02*
X0068419Y0170976D01*
X0068419Y0172575D02*
X0077427Y0172575D01*
X0077487Y0172515D02*
X0078130Y0172048D01*
X0078838Y0171687D01*
X0079594Y0171441D01*
X0080379Y0171317D01*
X0080776Y0171317D01*
X0080776Y0176367D01*
X0080776Y0176367D01*
X0075726Y0176367D01*
X0075726Y0176764D01*
X0075851Y0177549D01*
X0076096Y0178305D01*
X0076457Y0179014D01*
X0076924Y0179657D01*
X0077487Y0180219D01*
X0078130Y0180686D01*
X0078838Y0181047D01*
X0079594Y0181293D01*
X0080379Y0181417D01*
X0080776Y0181417D01*
X0080776Y0176367D01*
X0075726Y0176367D01*
X0075726Y0175969D01*
X0075851Y0175184D01*
X0076096Y0174428D01*
X0076457Y0173720D01*
X0076924Y0173077D01*
X0077487Y0172515D01*
X0076226Y0174173D02*
X0068419Y0174173D01*
X0068419Y0175772D02*
X0075758Y0175772D01*
X0075822Y0177370D02*
X0068419Y0177370D01*
X0068419Y0178969D02*
X0076434Y0178969D01*
X0077966Y0180567D02*
X0068419Y0180567D01*
X0068419Y0182166D02*
X0091019Y0182166D01*
X0091019Y0183764D02*
X0068419Y0183764D01*
X0068419Y0185363D02*
X0091019Y0185363D01*
X0091019Y0186961D02*
X0068419Y0186961D01*
X0068419Y0188560D02*
X0090456Y0188560D01*
X0088857Y0190159D02*
X0068419Y0190159D01*
X0068419Y0191757D02*
X0087259Y0191757D01*
X0085660Y0193356D02*
X0068419Y0193356D01*
X0068419Y0194954D02*
X0084062Y0194954D01*
X0082463Y0196553D02*
X0081670Y0196553D01*
X0079568Y0196553D02*
X0068419Y0196553D01*
X0068419Y0198151D02*
X0076976Y0198151D01*
X0076039Y0199750D02*
X0068419Y0199750D01*
X0068419Y0201348D02*
X0075769Y0201348D01*
X0076024Y0202947D02*
X0068419Y0202947D01*
X0068419Y0204545D02*
X0076938Y0204545D01*
X0082348Y0214136D02*
X0120418Y0214136D01*
X0122017Y0215735D02*
X0083946Y0215735D01*
X0085545Y0217333D02*
X0122157Y0217333D01*
X0120891Y0218932D02*
X0087143Y0218932D01*
X0088742Y0220530D02*
X0120319Y0220530D01*
X0095646Y0246106D02*
X0095277Y0246106D01*
X0095277Y0247705D02*
X0095646Y0247705D01*
X0095646Y0249303D02*
X0095277Y0249303D01*
X0095277Y0250902D02*
X0095646Y0250902D01*
X0095646Y0252500D02*
X0095277Y0252500D01*
X0095277Y0254099D02*
X0095646Y0254099D01*
X0095646Y0255697D02*
X0095277Y0255697D01*
X0095277Y0257296D02*
X0095646Y0257296D01*
X0091047Y0246106D02*
X0080454Y0246106D01*
X0078756Y0247705D02*
X0087545Y0247705D01*
X0075961Y0247705D02*
X0075592Y0247705D01*
X0075592Y0246106D02*
X0075961Y0246106D01*
X0075961Y0244508D02*
X0075592Y0244508D01*
X0075592Y0242909D02*
X0075961Y0242909D01*
X0075961Y0241311D02*
X0075592Y0241311D01*
X0075592Y0239712D02*
X0075961Y0239712D01*
X0075961Y0238114D02*
X0075592Y0238114D01*
X0075592Y0236515D02*
X0075961Y0236515D01*
X0075961Y0234917D02*
X0075592Y0234917D01*
X0075592Y0233318D02*
X0075961Y0233318D01*
X0075961Y0231720D02*
X0075592Y0231720D01*
X0075592Y0230121D02*
X0075961Y0230121D01*
X0078945Y0230121D02*
X0086809Y0230121D01*
X0088377Y0231720D02*
X0080550Y0231720D01*
X0062819Y0210939D02*
X0035419Y0210939D01*
X0035419Y0209341D02*
X0062819Y0209341D01*
X0062819Y0207742D02*
X0035419Y0207742D01*
X0035419Y0206144D02*
X0040962Y0206144D01*
X0040979Y0206172D02*
X0040742Y0205762D01*
X0040619Y0205304D01*
X0040619Y0201567D01*
X0045919Y0201567D01*
X0045919Y0206867D01*
X0042182Y0206867D01*
X0041724Y0206744D01*
X0041314Y0206507D01*
X0040979Y0206172D01*
X0040619Y0204545D02*
X0035419Y0204545D01*
X0035419Y0202947D02*
X0040619Y0202947D01*
X0040619Y0201167D02*
X0040619Y0197430D01*
X0040742Y0196972D01*
X0040979Y0196562D01*
X0041314Y0196227D01*
X0041724Y0195990D01*
X0042152Y0195875D01*
X0042117Y0195860D01*
X0040626Y0194369D01*
X0039819Y0192421D01*
X0039819Y0190313D01*
X0040626Y0188365D01*
X0042117Y0186874D01*
X0043840Y0186160D01*
X0043117Y0185860D01*
X0041626Y0184369D01*
X0040819Y0182421D01*
X0040819Y0180313D01*
X0041626Y0178365D01*
X0043117Y0176874D01*
X0043840Y0176574D01*
X0042117Y0175860D01*
X0040626Y0174369D01*
X0039819Y0172421D01*
X0039819Y0170313D01*
X0040626Y0168365D01*
X0042117Y0166874D01*
X0044065Y0166067D01*
X0046173Y0166067D01*
X0048121Y0166874D01*
X0049612Y0168365D01*
X0050419Y0170313D01*
X0050419Y0172421D01*
X0049612Y0174369D01*
X0048121Y0175860D01*
X0047397Y0176160D01*
X0049121Y0176874D01*
X0050612Y0178365D01*
X0051419Y0180313D01*
X0051419Y0182421D01*
X0050612Y0184369D01*
X0049121Y0185860D01*
X0047397Y0186574D01*
X0048121Y0186874D01*
X0049612Y0188365D01*
X0050419Y0190313D01*
X0050419Y0192421D01*
X0049612Y0194369D01*
X0048121Y0195860D01*
X0048104Y0195867D01*
X0050056Y0195867D01*
X0050514Y0195990D01*
X0050924Y0196227D01*
X0051259Y0196562D01*
X0051496Y0196972D01*
X0051619Y0197430D01*
X0051619Y0201167D01*
X0046319Y0201167D01*
X0046319Y0201567D01*
X0051619Y0201567D01*
X0051619Y0205304D01*
X0051496Y0205762D01*
X0051259Y0206172D01*
X0050924Y0206507D01*
X0050514Y0206744D01*
X0050056Y0206867D01*
X0046319Y0206867D01*
X0046319Y0201567D01*
X0045919Y0201567D01*
X0045919Y0201167D01*
X0040619Y0201167D01*
X0040619Y0199750D02*
X0035419Y0199750D01*
X0035419Y0201348D02*
X0045919Y0201348D01*
X0046319Y0201348D02*
X0062819Y0201348D01*
X0062819Y0199750D02*
X0051619Y0199750D01*
X0051619Y0198151D02*
X0062819Y0198151D01*
X0062819Y0196553D02*
X0051250Y0196553D01*
X0049027Y0194954D02*
X0062819Y0194954D01*
X0062819Y0193356D02*
X0050032Y0193356D01*
X0050419Y0191757D02*
X0062819Y0191757D01*
X0062819Y0190159D02*
X0050355Y0190159D01*
X0049693Y0188560D02*
X0062819Y0188560D01*
X0062819Y0186961D02*
X0048209Y0186961D01*
X0049618Y0185363D02*
X0062819Y0185363D01*
X0062819Y0183764D02*
X0050862Y0183764D01*
X0051419Y0182166D02*
X0062819Y0182166D01*
X0062819Y0180567D02*
X0051419Y0180567D01*
X0050862Y0178969D02*
X0062819Y0178969D01*
X0062819Y0177370D02*
X0049618Y0177370D01*
X0048209Y0175772D02*
X0062819Y0175772D01*
X0062819Y0174173D02*
X0049693Y0174173D01*
X0050355Y0172575D02*
X0062819Y0172575D01*
X0062819Y0170976D02*
X0050419Y0170976D01*
X0050032Y0169378D02*
X0062819Y0169378D01*
X0062819Y0167779D02*
X0049027Y0167779D01*
X0046448Y0166181D02*
X0062819Y0166181D01*
X0062819Y0164582D02*
X0035419Y0164582D01*
X0035419Y0162984D02*
X0062756Y0162984D01*
X0061157Y0161385D02*
X0051397Y0161385D01*
X0051419Y0161304D02*
X0051296Y0161762D01*
X0051059Y0162172D01*
X0050724Y0162507D01*
X0050314Y0162744D01*
X0049856Y0162867D01*
X0046000Y0162867D01*
X0046000Y0157448D01*
X0051419Y0157448D01*
X0051419Y0161304D01*
X0051419Y0159787D02*
X0059559Y0159787D01*
X0057960Y0158188D02*
X0051419Y0158188D01*
X0051419Y0156686D02*
X0051419Y0152830D01*
X0051296Y0152372D01*
X0051059Y0151962D01*
X0050724Y0151627D01*
X0050314Y0151390D01*
X0049856Y0151267D01*
X0046000Y0151267D01*
X0046000Y0156686D01*
X0046000Y0157448D01*
X0045238Y0157448D01*
X0045238Y0162867D01*
X0041382Y0162867D01*
X0040924Y0162744D01*
X0040514Y0162507D01*
X0040179Y0162172D01*
X0039942Y0161762D01*
X0039819Y0161304D01*
X0039819Y0157448D01*
X0045238Y0157448D01*
X0045238Y0156686D01*
X0046000Y0156686D01*
X0051419Y0156686D01*
X0051419Y0156590D02*
X0056361Y0156590D01*
X0054763Y0154991D02*
X0051419Y0154991D01*
X0051419Y0153393D02*
X0053164Y0153393D01*
X0051566Y0151794D02*
X0050892Y0151794D01*
X0049967Y0150196D02*
X0035419Y0150196D01*
X0035419Y0151794D02*
X0040346Y0151794D01*
X0040514Y0151627D02*
X0040924Y0151390D01*
X0041382Y0151267D01*
X0045238Y0151267D01*
X0045238Y0156686D01*
X0039819Y0156686D01*
X0039819Y0152830D01*
X0039942Y0152372D01*
X0040179Y0151962D01*
X0040514Y0151627D01*
X0039819Y0153393D02*
X0035419Y0153393D01*
X0035419Y0154991D02*
X0039819Y0154991D01*
X0039819Y0156590D02*
X0035419Y0156590D01*
X0035419Y0158188D02*
X0039819Y0158188D01*
X0039819Y0159787D02*
X0035419Y0159787D01*
X0035419Y0161385D02*
X0039841Y0161385D01*
X0045238Y0161385D02*
X0046000Y0161385D01*
X0046000Y0159787D02*
X0045238Y0159787D01*
X0045238Y0158188D02*
X0046000Y0158188D01*
X0046000Y0156590D02*
X0045238Y0156590D01*
X0045238Y0154991D02*
X0046000Y0154991D01*
X0046000Y0153393D02*
X0045238Y0153393D01*
X0045238Y0151794D02*
X0046000Y0151794D01*
X0048369Y0148597D02*
X0035419Y0148597D01*
X0035419Y0146999D02*
X0043325Y0146999D01*
X0041212Y0145400D02*
X0035419Y0145400D01*
X0035419Y0143802D02*
X0040350Y0143802D01*
X0040019Y0142203D02*
X0035419Y0142203D01*
X0035419Y0140605D02*
X0040089Y0140605D01*
X0040751Y0139006D02*
X0035419Y0139006D01*
X0035419Y0137408D02*
X0042179Y0137408D01*
X0035419Y0129415D02*
X0053611Y0129415D01*
X0061084Y0153393D02*
X0076695Y0153393D01*
X0075913Y0154991D02*
X0062683Y0154991D01*
X0064281Y0156590D02*
X0075726Y0156590D01*
X0076058Y0158188D02*
X0065880Y0158188D01*
X0067478Y0159787D02*
X0077054Y0159787D01*
X0081373Y0161385D02*
X0092631Y0161385D01*
X0094229Y0159787D02*
X0084498Y0159787D01*
X0085494Y0158188D02*
X0095828Y0158188D01*
X0095611Y0156590D02*
X0085826Y0156590D01*
X0085639Y0154991D02*
X0095782Y0154991D01*
X0096577Y0153393D02*
X0084858Y0153393D01*
X0082926Y0151794D02*
X0098827Y0151794D01*
X0110219Y0148597D02*
X0119397Y0148597D01*
X0118819Y0146999D02*
X0110219Y0146999D01*
X0110219Y0145400D02*
X0118873Y0145400D01*
X0119644Y0143802D02*
X0110219Y0143802D01*
X0110219Y0142203D02*
X0122096Y0142203D01*
X0119718Y0139006D02*
X0110219Y0139006D01*
X0110219Y0137408D02*
X0118904Y0137408D01*
X0118819Y0135809D02*
X0110219Y0135809D01*
X0110219Y0134211D02*
X0119366Y0134211D01*
X0110219Y0140605D02*
X0133519Y0140605D01*
X0133519Y0153393D02*
X0131184Y0153393D01*
X0132195Y0154991D02*
X0133519Y0154991D01*
X0133519Y0156590D02*
X0132419Y0156590D01*
X0132011Y0158188D02*
X0133519Y0158188D01*
X0142719Y0158188D02*
X0143519Y0158188D01*
X0143519Y0156590D02*
X0142719Y0156590D01*
X0142719Y0154991D02*
X0143519Y0154991D01*
X0143519Y0153393D02*
X0142719Y0153393D01*
X0142719Y0151794D02*
X0143519Y0151794D01*
X0143519Y0150196D02*
X0142719Y0150196D01*
X0142719Y0159787D02*
X0143519Y0159787D01*
X0143519Y0161385D02*
X0142719Y0161385D01*
X0177373Y0116627D02*
X0181596Y0116627D01*
X0180769Y0118226D02*
X0179579Y0118226D01*
X0180427Y0119824D02*
X0180769Y0119824D01*
X0180769Y0121423D02*
X0180669Y0121423D01*
X0180769Y0123021D02*
X0180391Y0123021D01*
X0180769Y0124620D02*
X0179498Y0124620D01*
X0159276Y0102240D02*
X0159232Y0102240D01*
X0152006Y0102240D02*
X0147719Y0102240D01*
X0147719Y0103839D02*
X0149607Y0103839D01*
X0148858Y0105437D02*
X0147719Y0105437D01*
X0147719Y0107036D02*
X0148819Y0107036D01*
X0149412Y0108634D02*
X0147719Y0108634D01*
X0147719Y0110233D02*
X0151377Y0110233D01*
X0150165Y0089452D02*
X0147719Y0089452D01*
X0147719Y0087854D02*
X0149089Y0087854D01*
X0148819Y0086255D02*
X0147719Y0086255D01*
X0147719Y0084657D02*
X0149181Y0084657D01*
X0133519Y0079861D02*
X0130664Y0079861D01*
X0131980Y0078263D02*
X0133519Y0078263D01*
X0133519Y0076664D02*
X0132419Y0076664D01*
X0132226Y0075066D02*
X0133519Y0075066D01*
X0090769Y0127817D02*
X0089210Y0127817D01*
X0090292Y0129415D02*
X0090769Y0129415D01*
X0090769Y0131014D02*
X0090669Y0131014D01*
X0090769Y0132612D02*
X0090524Y0132612D01*
X0090769Y0134211D02*
X0089795Y0134211D01*
X0091298Y0135809D02*
X0088024Y0135809D01*
X0085619Y0135809D02*
X0085619Y0135809D01*
X0085619Y0134211D02*
X0085619Y0134211D01*
X0085619Y0132612D02*
X0085619Y0132612D01*
X0085619Y0131014D02*
X0085619Y0131014D01*
X0085619Y0129415D02*
X0085619Y0129415D01*
X0085619Y0127817D02*
X0085619Y0127817D01*
X0081174Y0171317D02*
X0081959Y0171441D01*
X0082715Y0171687D01*
X0083423Y0172048D01*
X0084066Y0172515D01*
X0084628Y0173077D01*
X0085096Y0173720D01*
X0085456Y0174428D01*
X0085702Y0175184D01*
X0085826Y0175969D01*
X0085826Y0176367D01*
X0085826Y0176764D01*
X0085702Y0177549D01*
X0085456Y0178305D01*
X0085096Y0179014D01*
X0084628Y0179657D01*
X0084066Y0180219D01*
X0083423Y0180686D01*
X0082715Y0181047D01*
X0081959Y0181293D01*
X0081174Y0181417D01*
X0080776Y0181417D01*
X0080776Y0176367D01*
X0080776Y0176367D01*
X0080776Y0176367D01*
X0080776Y0171317D01*
X0081174Y0171317D01*
X0080776Y0172575D02*
X0080776Y0172575D01*
X0080776Y0174173D02*
X0080776Y0174173D01*
X0080776Y0175772D02*
X0080776Y0175772D01*
X0080777Y0176367D02*
X0080777Y0176367D01*
X0085826Y0176367D01*
X0080777Y0176367D01*
X0080776Y0177370D02*
X0080776Y0177370D01*
X0080776Y0178969D02*
X0080776Y0178969D01*
X0080776Y0180567D02*
X0080776Y0180567D01*
X0083586Y0180567D02*
X0091019Y0180567D01*
X0091019Y0178969D02*
X0085118Y0178969D01*
X0085730Y0177370D02*
X0091019Y0177370D01*
X0091019Y0175772D02*
X0085795Y0175772D01*
X0085326Y0174173D02*
X0091019Y0174173D01*
X0091019Y0172575D02*
X0084126Y0172575D01*
X0102994Y0180567D02*
X0106019Y0180567D01*
X0106019Y0178969D02*
X0104633Y0178969D01*
X0105295Y0177370D02*
X0106019Y0177370D01*
X0106019Y0175772D02*
X0105311Y0175772D01*
X0105782Y0174173D02*
X0106019Y0174173D01*
X0062819Y0202947D02*
X0051619Y0202947D01*
X0051619Y0204545D02*
X0062819Y0204545D01*
X0062819Y0206144D02*
X0051276Y0206144D01*
X0046319Y0206144D02*
X0045919Y0206144D01*
X0045919Y0204545D02*
X0046319Y0204545D01*
X0046319Y0202947D02*
X0045919Y0202947D01*
X0040619Y0198151D02*
X0035419Y0198151D01*
X0035419Y0196553D02*
X0040988Y0196553D01*
X0041211Y0194954D02*
X0035419Y0194954D01*
X0035419Y0193356D02*
X0040206Y0193356D01*
X0039819Y0191757D02*
X0035419Y0191757D01*
X0035419Y0190159D02*
X0039883Y0190159D01*
X0040545Y0188560D02*
X0035419Y0188560D01*
X0035419Y0186961D02*
X0042029Y0186961D01*
X0042620Y0185363D02*
X0035419Y0185363D01*
X0035419Y0183764D02*
X0041375Y0183764D01*
X0040819Y0182166D02*
X0035419Y0182166D01*
X0035419Y0180567D02*
X0040819Y0180567D01*
X0041375Y0178969D02*
X0035419Y0178969D01*
X0035419Y0177370D02*
X0042620Y0177370D01*
X0042029Y0175772D02*
X0035419Y0175772D01*
X0035419Y0174173D02*
X0040545Y0174173D01*
X0039883Y0172575D02*
X0035419Y0172575D01*
X0035419Y0170976D02*
X0039819Y0170976D01*
X0040206Y0169378D02*
X0035419Y0169378D01*
X0035419Y0167779D02*
X0041211Y0167779D01*
X0043790Y0166181D02*
X0035419Y0166181D01*
X0035419Y0212538D02*
X0041953Y0212538D01*
X0040806Y0214136D02*
X0035419Y0214136D01*
X0035419Y0215735D02*
X0040319Y0215735D01*
X0040319Y0217333D02*
X0035419Y0217333D01*
X0035419Y0218932D02*
X0040945Y0218932D01*
X0042287Y0220530D02*
X0035419Y0220530D01*
X0035419Y0222129D02*
X0042362Y0222129D01*
X0040976Y0223727D02*
X0035419Y0223727D01*
X0035419Y0225326D02*
X0040319Y0225326D01*
X0040319Y0226924D02*
X0035419Y0226924D01*
X0035419Y0228523D02*
X0040775Y0228523D01*
X0041878Y0230121D02*
X0035419Y0230121D01*
X0035419Y0231720D02*
X0042988Y0231720D01*
X0041172Y0233318D02*
X0035419Y0233318D01*
X0035419Y0234917D02*
X0040483Y0234917D01*
X0040319Y0236515D02*
X0035419Y0236515D01*
X0035419Y0238114D02*
X0040606Y0238114D01*
X0041469Y0239712D02*
X0035419Y0239712D01*
X0035419Y0241311D02*
X0040729Y0241311D01*
X0040119Y0242909D02*
X0035419Y0242909D01*
X0035419Y0244508D02*
X0040119Y0244508D01*
X0040119Y0246106D02*
X0035419Y0246106D01*
X0035419Y0247705D02*
X0040119Y0247705D01*
X0040119Y0249303D02*
X0035419Y0249303D01*
X0035419Y0250902D02*
X0040323Y0250902D01*
X0039073Y0252500D02*
X0035419Y0252500D01*
X0035419Y0254099D02*
X0037711Y0254099D01*
X0037049Y0255697D02*
X0035419Y0255697D01*
X0035419Y0257296D02*
X0036488Y0257296D01*
X0036488Y0258895D02*
X0035419Y0258895D01*
X0035419Y0260493D02*
X0036488Y0260493D01*
X0037072Y0262092D02*
X0035419Y0262092D01*
X0035419Y0263690D02*
X0037734Y0263690D01*
X0039128Y0265289D02*
X0035419Y0265289D01*
X0035419Y0060679D02*
X0067436Y0060679D01*
X0066006Y0059081D02*
X0035419Y0059081D01*
X0045238Y0051088D02*
X0046000Y0051088D01*
X0046000Y0049490D02*
X0045238Y0049490D01*
X0045238Y0047891D02*
X0046000Y0047891D01*
X0046000Y0046292D02*
X0045238Y0046292D01*
X0048929Y0041497D02*
X0069154Y0041497D01*
X0066655Y0039898D02*
X0050433Y0039898D01*
X0051095Y0038300D02*
X0065683Y0038300D01*
X0065319Y0036701D02*
X0051219Y0036701D01*
X0050941Y0035103D02*
X0065406Y0035103D01*
X0066068Y0033504D02*
X0050155Y0033504D01*
X0048226Y0031906D02*
X0067585Y0031906D01*
X0214869Y0049490D02*
X0219520Y0049490D01*
X0219520Y0047891D02*
X0217008Y0047891D01*
X0218462Y0046292D02*
X0219520Y0046292D01*
X0219520Y0044694D02*
X0219124Y0044694D01*
X0219231Y0038300D02*
X0219520Y0038300D01*
X0219520Y0036701D02*
X0218569Y0036701D01*
X0219520Y0035103D02*
X0217268Y0035103D01*
X0215319Y0097445D02*
X0214919Y0097445D01*
X0214919Y0099043D02*
X0215319Y0099043D01*
X0215319Y0100642D02*
X0214919Y0100642D01*
D20*
X0215119Y0086367D02*
X0205619Y0086367D01*
X0205619Y0113867D01*
X0205619Y0151367D01*
X0188119Y0168867D01*
X0190619Y0171367D01*
X0188119Y0168867D02*
X0185619Y0166367D01*
X0185619Y0156367D01*
X0168119Y0151367D02*
X0183119Y0136367D01*
X0183119Y0123867D01*
X0185619Y0121367D01*
X0205619Y0113867D02*
X0213119Y0121367D01*
X0215119Y0121367D01*
X0205619Y0086367D02*
X0170619Y0086367D01*
X0170619Y0056367D01*
X0175619Y0051367D01*
X0173119Y0046367D02*
X0185619Y0046367D01*
X0185619Y0041367D01*
X0188119Y0033867D02*
X0118119Y0033867D01*
X0118119Y0036367D01*
X0110619Y0036367D01*
X0118119Y0036367D02*
X0135619Y0053867D01*
X0135619Y0186367D01*
X0125619Y0186367D01*
X0140619Y0183867D02*
X0140619Y0056367D01*
X0155619Y0056367D01*
X0155619Y0066367D02*
X0145619Y0066367D01*
X0145619Y0188867D01*
X0193119Y0236367D01*
X0216119Y0236367D01*
X0216119Y0211367D02*
X0215619Y0211367D01*
X0215619Y0208867D01*
X0213119Y0208867D01*
X0193119Y0188867D01*
X0215619Y0166367D01*
X0216119Y0166367D01*
X0193119Y0188867D02*
X0168119Y0163867D01*
X0168119Y0151367D01*
X0158119Y0106367D02*
X0155619Y0106367D01*
X0158119Y0106367D02*
X0170619Y0093867D01*
X0170619Y0086367D01*
X0168119Y0086367D02*
X0168119Y0051367D01*
X0173119Y0046367D01*
X0175619Y0041367D02*
X0170619Y0041367D01*
X0165619Y0046367D01*
X0165619Y0078867D01*
X0160619Y0083867D01*
X0160619Y0086367D01*
X0155619Y0086367D01*
X0160619Y0093867D02*
X0168119Y0086367D01*
X0160619Y0093867D02*
X0160619Y0096367D01*
X0155619Y0096367D01*
X0175619Y0076367D02*
X0185619Y0066367D01*
X0185619Y0051367D01*
X0195619Y0041367D02*
X0188119Y0033867D01*
X0125619Y0096367D02*
X0103119Y0096367D01*
X0103119Y0151367D01*
X0100619Y0153867D01*
X0100619Y0156367D01*
X0100461Y0156367D01*
X0100619Y0156367D02*
X0100619Y0158867D01*
X0098119Y0158867D01*
X0093119Y0163867D01*
X0093119Y0188867D01*
X0080619Y0201367D01*
X0100619Y0201367D02*
X0108119Y0193867D01*
X0108119Y0168867D01*
X0103119Y0173867D01*
X0100619Y0173867D01*
X0100619Y0176367D01*
X0100461Y0176367D01*
X0108119Y0168867D02*
X0108119Y0106367D01*
X0125619Y0106367D01*
X0095619Y0101367D02*
X0095619Y0036367D01*
X0070619Y0036367D01*
X0095619Y0101367D02*
X0095619Y0131367D01*
X0115619Y0166367D02*
X0115619Y0206367D01*
X0125619Y0216367D01*
X0125619Y0221367D01*
X0125619Y0166367D02*
X0115619Y0166367D01*
D21*
X0140619Y0183867D03*
X0190619Y0171367D03*
X0175619Y0076367D03*
D22*
X0065619Y0161887D02*
X0045619Y0141887D01*
X0045619Y0141367D01*
X0060619Y0126367D01*
X0060619Y0121887D01*
X0045619Y0106887D01*
X0045619Y0106367D01*
X0060619Y0091367D01*
X0060619Y0086887D01*
X0045619Y0071887D01*
X0065619Y0161887D02*
X0065619Y0216367D01*
X0080619Y0216367D01*
X0091288Y0227036D01*
X0095461Y0227036D01*
M02*
