%
M48
M72
T01C0.02400
T02C0.02756
T03C0.03200
T04C0.03543
T05C0.03937
T06C0.04000
T07C0.04724
T08C0.08661
%
T01
X140619Y183867
X190619Y171367
X175619Y76367
T02
X175619Y121367
X185619Y121367
X185619Y156367
X175619Y156367
X100461Y156367
X100461Y176367
X80776Y176367
X80776Y156367
X85619Y131367
X95619Y131367
X95619Y101367
X85619Y101367
X80619Y201367
X100619Y201367
T03
X125619Y186367
X125619Y176367
X125619Y166367
X125619Y156367
X125619Y146367
X125619Y136367
X125619Y126367
X125619Y116367
X125619Y106367
X125619Y96367
X125619Y86367
X125619Y76367
X125619Y66367
X125619Y56367
X155619Y56367
X155619Y66367
X155619Y76367
X155619Y86367
X155619Y96367
X155619Y106367
X155619Y116367
X155619Y126367
X155619Y136367
X155619Y146367
X155619Y156367
X155619Y166367
X155619Y176367
X155619Y186367
T04
X110619Y76367
X110619Y56367
X110619Y36367
X70619Y36367
X70619Y56367
X70619Y76367
T05
X95461Y227036
X75776Y238847
X95461Y251839
T06
X125619Y221367
X45619Y216367
X45619Y226367
X45619Y236367
X45619Y246367
X46119Y201367
X45119Y191367
X46119Y181367
X45119Y171367
X175619Y51367
X185619Y51367
X195619Y51367
X195619Y41367
X185619Y41367
X175619Y41367
X215119Y66367
X216119Y76367
X215119Y86367
X215119Y101367
X216119Y111367
X215119Y121367
X215119Y136367
X216119Y146367
X215119Y156367
X216119Y166367
X215119Y181367
X216119Y191367
X215119Y201367
X216119Y211367
X215119Y226367
X216119Y236367
X215119Y246367
T07
X45619Y36887
X45619Y52067
X45619Y71887
X45619Y87067
X45619Y106887
X45619Y122067
X45619Y141887
X45619Y157067
T08
X45619Y258867
X210619Y258867
X210619Y41367
M30
